%TF.GenerationSoftware,KiCad,Pcbnew,(5.1.6)-1*%
%TF.CreationDate,2024-03-01T18:25:56-06:00*%
%TF.ProjectId,Loop PCVR,4c6f6f70-2050-4435-9652-2e6b69636164,rev?*%
%TF.SameCoordinates,Original*%
%TF.FileFunction,Copper,L2,Bot*%
%TF.FilePolarity,Positive*%
%FSLAX46Y46*%
G04 Gerber Fmt 4.6, Leading zero omitted, Abs format (unit mm)*
G04 Created by KiCad (PCBNEW (5.1.6)-1) date 2024-03-01 18:25:56*
%MOMM*%
%LPD*%
G01*
G04 APERTURE LIST*
%TA.AperFunction,ComponentPad*%
%ADD10R,2.000000X2.000000*%
%TD*%
%TA.AperFunction,ComponentPad*%
%ADD11C,2.000000*%
%TD*%
%TA.AperFunction,ComponentPad*%
%ADD12C,2.500000*%
%TD*%
%TA.AperFunction,ComponentPad*%
%ADD13R,2.500000X2.500000*%
%TD*%
%TA.AperFunction,ComponentPad*%
%ADD14C,1.600000*%
%TD*%
%TA.AperFunction,ComponentPad*%
%ADD15R,1.600000X1.600000*%
%TD*%
%TA.AperFunction,ComponentPad*%
%ADD16O,1.700000X1.700000*%
%TD*%
%TA.AperFunction,ComponentPad*%
%ADD17R,1.700000X1.700000*%
%TD*%
%TA.AperFunction,ComponentPad*%
%ADD18O,1.600000X1.600000*%
%TD*%
%TA.AperFunction,ViaPad*%
%ADD19C,0.800000*%
%TD*%
%TA.AperFunction,Conductor*%
%ADD20C,0.300000*%
%TD*%
%TA.AperFunction,Conductor*%
%ADD21C,0.250000*%
%TD*%
%TA.AperFunction,Conductor*%
%ADD22C,0.254000*%
%TD*%
G04 APERTURE END LIST*
D10*
%TO.P,C3,1*%
%TO.N,Net-(C3-Pad1)*%
X31242000Y-121412000D03*
D11*
%TO.P,C3,2*%
%TO.N,VCCQ*%
X36242000Y-121412000D03*
%TD*%
D12*
%TO.P,X9,2*%
%TO.N,GNDA*%
X97790000Y-64850000D03*
D13*
%TO.P,X9,1*%
X97790000Y-69850000D03*
%TD*%
D12*
%TO.P,X8,2*%
%TO.N,GNDPWR*%
X36068000Y-65104000D03*
D13*
%TO.P,X8,1*%
X36068000Y-70104000D03*
%TD*%
D14*
%TO.P,C12,2*%
%TO.N,VCCQ*%
X100298000Y-123190000D03*
D15*
%TO.P,C12,1*%
%TO.N,GND3*%
X98298000Y-123190000D03*
%TD*%
D14*
%TO.P,C11,2*%
%TO.N,Net-(C11-Pad2)*%
X87630000Y-116300000D03*
D15*
%TO.P,C11,1*%
%TO.N,Net-(C11-Pad1)*%
X87630000Y-114300000D03*
%TD*%
D14*
%TO.P,C10,2*%
%TO.N,VCCQ*%
X96742000Y-94234000D03*
D15*
%TO.P,C10,1*%
%TO.N,GND2*%
X94742000Y-94234000D03*
%TD*%
D14*
%TO.P,C9,2*%
%TO.N,Net-(C9-Pad2)*%
X86360000Y-86328000D03*
D15*
%TO.P,C9,1*%
%TO.N,Net-(C9-Pad1)*%
X86360000Y-84328000D03*
%TD*%
D12*
%TO.P,X6,2*%
%TO.N,Net-(J8-Pad1)*%
X90678000Y-154512000D03*
D13*
%TO.P,X6,1*%
X90678000Y-159512000D03*
%TD*%
D12*
%TO.P,X5,2*%
%TO.N,Net-(J6-Pad1)*%
X83058000Y-100918000D03*
D13*
%TO.P,X5,1*%
X83058000Y-105918000D03*
%TD*%
D16*
%TO.P,J8,2*%
%TO.N,Net-(J8-Pad1)*%
X81280000Y-157988000D03*
D17*
%TO.P,J8,1*%
X81280000Y-155448000D03*
%TD*%
D16*
%TO.P,J7,2*%
%TO.N,Net-(C6-Pad2)*%
X69850000Y-121158000D03*
D17*
%TO.P,J7,1*%
X69850000Y-118618000D03*
%TD*%
D16*
%TO.P,J6,2*%
%TO.N,Net-(J6-Pad1)*%
X73152000Y-103378000D03*
D17*
%TO.P,J6,1*%
X73152000Y-100838000D03*
%TD*%
D12*
%TO.P,X4,2*%
%TO.N,Net-(J4-Pad1)*%
X82550000Y-47070000D03*
D13*
%TO.P,X4,1*%
X82550000Y-52070000D03*
%TD*%
D12*
%TO.P,X7,2*%
%TO.N,VCCQ*%
X91694000Y-17606000D03*
D13*
%TO.P,X7,1*%
%TO.N,VCC*%
X91694000Y-22606000D03*
%TD*%
D16*
%TO.P,J5,2*%
%TO.N,Net-(C5-Pad2)*%
X67564000Y-74930000D03*
D17*
%TO.P,J5,1*%
X67564000Y-72390000D03*
%TD*%
D16*
%TO.P,J4,2*%
%TO.N,Net-(J4-Pad1)*%
X73152000Y-53594000D03*
D17*
%TO.P,J4,1*%
X73152000Y-51054000D03*
%TD*%
D16*
%TO.P,J3,2*%
%TO.N,Net-(C4-Pad2)*%
X66040000Y-21590000D03*
D17*
%TO.P,J3,1*%
X66040000Y-19050000D03*
%TD*%
D18*
%TO.P,D6,2*%
%TO.N,VCCQ*%
X30988000Y-141478000D03*
D15*
%TO.P,D6,1*%
%TO.N,Net-(D5-Pad2)*%
X38608000Y-141478000D03*
%TD*%
D18*
%TO.P,D5,2*%
%TO.N,Net-(D5-Pad2)*%
X30988000Y-132842000D03*
D15*
%TO.P,D5,1*%
%TO.N,VCC*%
X38608000Y-132842000D03*
%TD*%
D18*
%TO.P,D4,2*%
%TO.N,VCCQ*%
X32004000Y-97028000D03*
D15*
%TO.P,D4,1*%
%TO.N,Net-(D3-Pad2)*%
X39624000Y-97028000D03*
%TD*%
D18*
%TO.P,D3,2*%
%TO.N,Net-(D3-Pad2)*%
X32004000Y-90424000D03*
D15*
%TO.P,D3,1*%
%TO.N,VCC*%
X39624000Y-90424000D03*
%TD*%
D14*
%TO.P,C8,2*%
%TO.N,VCCQ*%
X101314000Y-41910000D03*
D15*
%TO.P,C8,1*%
%TO.N,GND*%
X99314000Y-41910000D03*
%TD*%
D14*
%TO.P,C7,2*%
%TO.N,Net-(C7-Pad2)*%
X88392000Y-35020000D03*
D15*
%TO.P,C7,1*%
%TO.N,Net-(C7-Pad1)*%
X88392000Y-33020000D03*
%TD*%
D14*
%TO.P,C6,2*%
%TO.N,Net-(C6-Pad2)*%
X69564000Y-131826000D03*
D15*
%TO.P,C6,1*%
%TO.N,GND3*%
X67564000Y-131826000D03*
%TD*%
D14*
%TO.P,C5,2*%
%TO.N,Net-(C5-Pad2)*%
X66770000Y-83566000D03*
D15*
%TO.P,C5,1*%
%TO.N,GND2*%
X64770000Y-83566000D03*
%TD*%
D11*
%TO.P,C2,2*%
%TO.N,VCCQ*%
X37766000Y-81026000D03*
D10*
%TO.P,C2,1*%
%TO.N,Net-(C2-Pad1)*%
X32766000Y-81026000D03*
%TD*%
D11*
%TO.P,C1,2*%
%TO.N,VCCQ*%
X35480000Y-22860000D03*
D10*
%TO.P,C1,1*%
%TO.N,Net-(C1-Pad1)*%
X30480000Y-22860000D03*
%TD*%
D12*
%TO.P,X3,2*%
%TO.N,Net-(R3-Pad2)*%
X38608000Y-151972000D03*
D13*
%TO.P,X3,1*%
X38608000Y-156972000D03*
%TD*%
D12*
%TO.P,X2,2*%
%TO.N,Net-(R2-Pad2)*%
X32512000Y-104474000D03*
D13*
%TO.P,X2,1*%
X32512000Y-109474000D03*
%TD*%
D12*
%TO.P,X1,2*%
%TO.N,Net-(R1-Pad2)*%
X32258000Y-51642000D03*
D13*
%TO.P,X1,1*%
X32258000Y-56642000D03*
%TD*%
D15*
%TO.P,C4,1*%
%TO.N,GND*%
X64770000Y-33020000D03*
D14*
%TO.P,C4,2*%
%TO.N,Net-(C4-Pad2)*%
X66770000Y-33020000D03*
%TD*%
D18*
%TO.P,D1,2*%
%TO.N,Net-(D1-Pad2)*%
X32258000Y-38100000D03*
D15*
%TO.P,D1,1*%
%TO.N,VCC*%
X39878000Y-38100000D03*
%TD*%
%TO.P,D2,1*%
%TO.N,Net-(D1-Pad2)*%
X40132000Y-45212000D03*
D18*
%TO.P,D2,2*%
%TO.N,VCCQ*%
X32512000Y-45212000D03*
%TD*%
D19*
%TO.N,Net-(C1-Pad1)*%
X54610000Y-38100000D03*
%TO.N,GND*%
X57404000Y-46228000D03*
X54356000Y-55626000D03*
%TO.N,VCCQ*%
X58420000Y-47752000D03*
X58496001Y-39700001D03*
X58420000Y-98552000D03*
X53848000Y-145288000D03*
X47117000Y-127635000D03*
%TO.N,VCC*%
X69850000Y-43688000D03*
X61468000Y-33528000D03*
X68326000Y-40386000D03*
X59690000Y-74930000D03*
X59690000Y-88392000D03*
X69342000Y-92202000D03*
X69342000Y-94742000D03*
X60198000Y-125222000D03*
X60198000Y-133604000D03*
X72136000Y-137668000D03*
X72136000Y-141478000D03*
X94234000Y-78994000D03*
%TO.N,Net-(R10-Pad2)*%
X46736000Y-37084000D03*
X46736000Y-33782000D03*
%TO.N,Net-(R11-Pad2)*%
X45720000Y-76708000D03*
X45720000Y-85598000D03*
%TO.N,Net-(R12-Pad2)*%
X44704000Y-132842000D03*
X44704000Y-125222000D03*
%TO.N,GND2*%
X42164000Y-94742000D03*
X56388000Y-80264000D03*
X50292000Y-86360000D03*
%TO.N,GNDA*%
X90170000Y-60960000D03*
%TD*%
D20*
%TO.N,Net-(C1-Pad1)*%
X45720000Y-38100000D02*
X30480000Y-22860000D01*
X54610000Y-38100000D02*
X45720000Y-38100000D01*
D21*
%TO.N,GND*%
X57346002Y-46627999D02*
X57346002Y-55568002D01*
X57346002Y-55568002D02*
X57288004Y-55626000D01*
X57288004Y-55626000D02*
X54356000Y-55626000D01*
D20*
%TO.N,VCCQ*%
X58496001Y-47675999D02*
X58420000Y-47752000D01*
X32512000Y-45212000D02*
X35306000Y-45212000D01*
X38176001Y-42341999D02*
X58496001Y-42341999D01*
X35306000Y-45212000D02*
X38176001Y-42341999D01*
X58496001Y-42341999D02*
X58496001Y-47675999D01*
X58496001Y-25069999D02*
X58496001Y-39700001D01*
X58496001Y-39700001D02*
X58496001Y-42341999D01*
X53848000Y-145288000D02*
X52324000Y-143764000D01*
X52324000Y-143764000D02*
X52324000Y-138176000D01*
X47117000Y-132969000D02*
X47117000Y-127635000D01*
X52324000Y-138176000D02*
X47117000Y-132969000D01*
D21*
X84230001Y-25069999D02*
X91694000Y-17606000D01*
X58496001Y-25069999D02*
X84230001Y-25069999D01*
D20*
X38473999Y-133992001D02*
X30988000Y-141478000D01*
X46093999Y-133992001D02*
X38473999Y-133992001D01*
X47117000Y-132969000D02*
X46093999Y-133992001D01*
X33528000Y-98552000D02*
X32004000Y-97028000D01*
X58420000Y-98552000D02*
X33528000Y-98552000D01*
X58420000Y-99234000D02*
X58420000Y-98552000D01*
X36242000Y-121412000D02*
X58420000Y-99234000D01*
X96742000Y-93102630D02*
X94571370Y-90932000D01*
X96742000Y-94234000D02*
X96742000Y-93102630D01*
X94571370Y-90932000D02*
X58420000Y-90932000D01*
X58420000Y-75946000D02*
X58420000Y-90932000D01*
X58420000Y-90932000D02*
X58420000Y-98552000D01*
X48434000Y-70358000D02*
X58420000Y-70358000D01*
X37766000Y-81026000D02*
X48434000Y-70358000D01*
X58420000Y-47752000D02*
X58420000Y-70358000D01*
X58420000Y-70358000D02*
X58420000Y-75946000D01*
%TO.N,VCC*%
X76200000Y-43688000D02*
X69850000Y-43688000D01*
X61468000Y-33528000D02*
X68326000Y-40386000D01*
X69342000Y-94742000D02*
X69342000Y-92202000D01*
X59690000Y-53848000D02*
X69850000Y-43688000D01*
X59690000Y-74930000D02*
X59690000Y-53848000D01*
X69342000Y-94742000D02*
X69342000Y-106680000D01*
X69342000Y-106680000D02*
X60198000Y-115824000D01*
X60198000Y-115824000D02*
X60198000Y-125222000D01*
X60198000Y-125222000D02*
X60198000Y-133604000D01*
X72136000Y-137668000D02*
X72136000Y-141478000D01*
D21*
X76200000Y-43688000D02*
X76454000Y-43688000D01*
X76454000Y-43688000D02*
X84836000Y-35306000D01*
X84836000Y-29464000D02*
X91694000Y-22606000D01*
X84836000Y-35306000D02*
X84836000Y-29464000D01*
D20*
X94234000Y-78994000D02*
X59690000Y-78994000D01*
X59690000Y-74930000D02*
X59690000Y-78994000D01*
X59690000Y-78994000D02*
X59690000Y-88392000D01*
%TO.N,Net-(R10-Pad2)*%
X46736000Y-37084000D02*
X46736000Y-33782000D01*
%TO.N,Net-(R11-Pad2)*%
X45720000Y-76708000D02*
X45720000Y-85598000D01*
%TO.N,Net-(R12-Pad2)*%
X44704000Y-132842000D02*
X44704000Y-125222000D01*
%TD*%
D22*
%TO.N,GNDPWR*%
G36*
X48387000Y-67564000D02*
G01*
X48389440Y-67588776D01*
X48396667Y-67612601D01*
X48408403Y-67634557D01*
X48424197Y-67653803D01*
X48443443Y-67669597D01*
X48465399Y-67681333D01*
X48489224Y-67688560D01*
X48514000Y-67691000D01*
X57635001Y-67691000D01*
X57635001Y-69573000D01*
X48472552Y-69573000D01*
X48433999Y-69569203D01*
X48395446Y-69573000D01*
X48395439Y-69573000D01*
X48294490Y-69582943D01*
X48280112Y-69584359D01*
X48245672Y-69594806D01*
X48132140Y-69629246D01*
X47995767Y-69702138D01*
X47935559Y-69751550D01*
X47906187Y-69775655D01*
X47906184Y-69775658D01*
X47876236Y-69800236D01*
X47851658Y-69830184D01*
X47450842Y-70231000D01*
X42926000Y-70231000D01*
X42901224Y-70233440D01*
X42877399Y-70240667D01*
X42855443Y-70252403D01*
X42836197Y-70268197D01*
X42820403Y-70287443D01*
X42808667Y-70309399D01*
X42801440Y-70333224D01*
X42799000Y-70358000D01*
X42799000Y-74882842D01*
X41588900Y-76092942D01*
X26060000Y-76324717D01*
X26060000Y-71354000D01*
X34179928Y-71354000D01*
X34192188Y-71478482D01*
X34228498Y-71598180D01*
X34287463Y-71708494D01*
X34366815Y-71805185D01*
X34463506Y-71884537D01*
X34573820Y-71943502D01*
X34693518Y-71979812D01*
X34818000Y-71992072D01*
X35782250Y-71989000D01*
X35941000Y-71830250D01*
X35941000Y-70231000D01*
X36195000Y-70231000D01*
X36195000Y-71830250D01*
X36353750Y-71989000D01*
X37318000Y-71992072D01*
X37442482Y-71979812D01*
X37562180Y-71943502D01*
X37672494Y-71884537D01*
X37769185Y-71805185D01*
X37848537Y-71708494D01*
X37907502Y-71598180D01*
X37943812Y-71478482D01*
X37956072Y-71354000D01*
X37953000Y-70389750D01*
X37794250Y-70231000D01*
X36195000Y-70231000D01*
X35941000Y-70231000D01*
X34341750Y-70231000D01*
X34183000Y-70389750D01*
X34179928Y-71354000D01*
X26060000Y-71354000D01*
X26060000Y-68854000D01*
X34179928Y-68854000D01*
X34183000Y-69818250D01*
X34341750Y-69977000D01*
X35941000Y-69977000D01*
X35941000Y-68377750D01*
X36195000Y-68377750D01*
X36195000Y-69977000D01*
X37794250Y-69977000D01*
X37953000Y-69818250D01*
X37956072Y-68854000D01*
X37943812Y-68729518D01*
X37907502Y-68609820D01*
X37848537Y-68499506D01*
X37769185Y-68402815D01*
X37672494Y-68323463D01*
X37562180Y-68264498D01*
X37442482Y-68228188D01*
X37318000Y-68215928D01*
X36353750Y-68219000D01*
X36195000Y-68377750D01*
X35941000Y-68377750D01*
X35782250Y-68219000D01*
X34818000Y-68215928D01*
X34693518Y-68228188D01*
X34573820Y-68264498D01*
X34463506Y-68323463D01*
X34366815Y-68402815D01*
X34287463Y-68499506D01*
X34228498Y-68609820D01*
X34192188Y-68729518D01*
X34179928Y-68854000D01*
X26060000Y-68854000D01*
X26060000Y-66417605D01*
X34934000Y-66417605D01*
X35059914Y-66707577D01*
X35392126Y-66873433D01*
X35750312Y-66971290D01*
X36120706Y-66997389D01*
X36489075Y-66950725D01*
X36841262Y-66833094D01*
X37076086Y-66707577D01*
X37202000Y-66417605D01*
X36068000Y-65283605D01*
X34934000Y-66417605D01*
X26060000Y-66417605D01*
X26060000Y-65156706D01*
X34174611Y-65156706D01*
X34221275Y-65525075D01*
X34338906Y-65877262D01*
X34464423Y-66112086D01*
X34754395Y-66238000D01*
X35888395Y-65104000D01*
X36247605Y-65104000D01*
X37381605Y-66238000D01*
X37671577Y-66112086D01*
X37837433Y-65779874D01*
X37935290Y-65421688D01*
X37961389Y-65051294D01*
X37914725Y-64682925D01*
X37797094Y-64330738D01*
X37671577Y-64095914D01*
X37381605Y-63970000D01*
X36247605Y-65104000D01*
X35888395Y-65104000D01*
X34754395Y-63970000D01*
X34464423Y-64095914D01*
X34298567Y-64428126D01*
X34200710Y-64786312D01*
X34174611Y-65156706D01*
X26060000Y-65156706D01*
X26060000Y-63790395D01*
X34934000Y-63790395D01*
X36068000Y-64924395D01*
X37202000Y-63790395D01*
X37076086Y-63500423D01*
X36743874Y-63334567D01*
X36385688Y-63236710D01*
X36015294Y-63210611D01*
X35646925Y-63257275D01*
X35294738Y-63374906D01*
X35059914Y-63500423D01*
X34934000Y-63790395D01*
X26060000Y-63790395D01*
X26060000Y-61087000D01*
X48387000Y-61087000D01*
X48387000Y-67564000D01*
G37*
X48387000Y-67564000D02*
X48389440Y-67588776D01*
X48396667Y-67612601D01*
X48408403Y-67634557D01*
X48424197Y-67653803D01*
X48443443Y-67669597D01*
X48465399Y-67681333D01*
X48489224Y-67688560D01*
X48514000Y-67691000D01*
X57635001Y-67691000D01*
X57635001Y-69573000D01*
X48472552Y-69573000D01*
X48433999Y-69569203D01*
X48395446Y-69573000D01*
X48395439Y-69573000D01*
X48294490Y-69582943D01*
X48280112Y-69584359D01*
X48245672Y-69594806D01*
X48132140Y-69629246D01*
X47995767Y-69702138D01*
X47935559Y-69751550D01*
X47906187Y-69775655D01*
X47906184Y-69775658D01*
X47876236Y-69800236D01*
X47851658Y-69830184D01*
X47450842Y-70231000D01*
X42926000Y-70231000D01*
X42901224Y-70233440D01*
X42877399Y-70240667D01*
X42855443Y-70252403D01*
X42836197Y-70268197D01*
X42820403Y-70287443D01*
X42808667Y-70309399D01*
X42801440Y-70333224D01*
X42799000Y-70358000D01*
X42799000Y-74882842D01*
X41588900Y-76092942D01*
X26060000Y-76324717D01*
X26060000Y-71354000D01*
X34179928Y-71354000D01*
X34192188Y-71478482D01*
X34228498Y-71598180D01*
X34287463Y-71708494D01*
X34366815Y-71805185D01*
X34463506Y-71884537D01*
X34573820Y-71943502D01*
X34693518Y-71979812D01*
X34818000Y-71992072D01*
X35782250Y-71989000D01*
X35941000Y-71830250D01*
X35941000Y-70231000D01*
X36195000Y-70231000D01*
X36195000Y-71830250D01*
X36353750Y-71989000D01*
X37318000Y-71992072D01*
X37442482Y-71979812D01*
X37562180Y-71943502D01*
X37672494Y-71884537D01*
X37769185Y-71805185D01*
X37848537Y-71708494D01*
X37907502Y-71598180D01*
X37943812Y-71478482D01*
X37956072Y-71354000D01*
X37953000Y-70389750D01*
X37794250Y-70231000D01*
X36195000Y-70231000D01*
X35941000Y-70231000D01*
X34341750Y-70231000D01*
X34183000Y-70389750D01*
X34179928Y-71354000D01*
X26060000Y-71354000D01*
X26060000Y-68854000D01*
X34179928Y-68854000D01*
X34183000Y-69818250D01*
X34341750Y-69977000D01*
X35941000Y-69977000D01*
X35941000Y-68377750D01*
X36195000Y-68377750D01*
X36195000Y-69977000D01*
X37794250Y-69977000D01*
X37953000Y-69818250D01*
X37956072Y-68854000D01*
X37943812Y-68729518D01*
X37907502Y-68609820D01*
X37848537Y-68499506D01*
X37769185Y-68402815D01*
X37672494Y-68323463D01*
X37562180Y-68264498D01*
X37442482Y-68228188D01*
X37318000Y-68215928D01*
X36353750Y-68219000D01*
X36195000Y-68377750D01*
X35941000Y-68377750D01*
X35782250Y-68219000D01*
X34818000Y-68215928D01*
X34693518Y-68228188D01*
X34573820Y-68264498D01*
X34463506Y-68323463D01*
X34366815Y-68402815D01*
X34287463Y-68499506D01*
X34228498Y-68609820D01*
X34192188Y-68729518D01*
X34179928Y-68854000D01*
X26060000Y-68854000D01*
X26060000Y-66417605D01*
X34934000Y-66417605D01*
X35059914Y-66707577D01*
X35392126Y-66873433D01*
X35750312Y-66971290D01*
X36120706Y-66997389D01*
X36489075Y-66950725D01*
X36841262Y-66833094D01*
X37076086Y-66707577D01*
X37202000Y-66417605D01*
X36068000Y-65283605D01*
X34934000Y-66417605D01*
X26060000Y-66417605D01*
X26060000Y-65156706D01*
X34174611Y-65156706D01*
X34221275Y-65525075D01*
X34338906Y-65877262D01*
X34464423Y-66112086D01*
X34754395Y-66238000D01*
X35888395Y-65104000D01*
X36247605Y-65104000D01*
X37381605Y-66238000D01*
X37671577Y-66112086D01*
X37837433Y-65779874D01*
X37935290Y-65421688D01*
X37961389Y-65051294D01*
X37914725Y-64682925D01*
X37797094Y-64330738D01*
X37671577Y-64095914D01*
X37381605Y-63970000D01*
X36247605Y-65104000D01*
X35888395Y-65104000D01*
X34754395Y-63970000D01*
X34464423Y-64095914D01*
X34298567Y-64428126D01*
X34200710Y-64786312D01*
X34174611Y-65156706D01*
X26060000Y-65156706D01*
X26060000Y-63790395D01*
X34934000Y-63790395D01*
X36068000Y-64924395D01*
X37202000Y-63790395D01*
X37076086Y-63500423D01*
X36743874Y-63334567D01*
X36385688Y-63236710D01*
X36015294Y-63210611D01*
X35646925Y-63257275D01*
X35294738Y-63374906D01*
X35059914Y-63500423D01*
X34934000Y-63790395D01*
X26060000Y-63790395D01*
X26060000Y-61087000D01*
X48387000Y-61087000D01*
X48387000Y-67564000D01*
%TO.N,GND*%
G36*
X99217023Y-13554837D02*
G01*
X98914837Y-13857023D01*
X98677412Y-14212355D01*
X98513870Y-14607179D01*
X98430497Y-15026323D01*
X98430497Y-15453677D01*
X98513870Y-15872821D01*
X98677412Y-16267645D01*
X98914837Y-16622977D01*
X99217023Y-16925163D01*
X99572355Y-17162588D01*
X99967179Y-17326130D01*
X100386323Y-17409503D01*
X100813677Y-17409503D01*
X101232821Y-17326130D01*
X101627645Y-17162588D01*
X101982977Y-16925163D01*
X102285163Y-16622977D01*
X102522588Y-16267645D01*
X102686130Y-15872821D01*
X102769503Y-15453677D01*
X102769503Y-15026323D01*
X102686130Y-14607179D01*
X102522588Y-14212355D01*
X102285163Y-13857023D01*
X101982977Y-13554837D01*
X101691383Y-13360000D01*
X103480000Y-13360000D01*
X103480000Y-55499000D01*
X86106000Y-55499000D01*
X86081224Y-55501440D01*
X86057399Y-55508667D01*
X86035443Y-55520403D01*
X86016197Y-55536197D01*
X86000403Y-55555443D01*
X85988667Y-55577399D01*
X85981440Y-55601224D01*
X85979000Y-55626000D01*
X85979000Y-66421000D01*
X60475000Y-66421000D01*
X60475000Y-54173157D01*
X64444157Y-50204000D01*
X71663928Y-50204000D01*
X71663928Y-51904000D01*
X71676188Y-52028482D01*
X71712498Y-52148180D01*
X71771463Y-52258494D01*
X71850815Y-52355185D01*
X71947506Y-52434537D01*
X72057820Y-52493502D01*
X72130380Y-52515513D01*
X71998525Y-52647368D01*
X71836010Y-52890589D01*
X71724068Y-53160842D01*
X71667000Y-53447740D01*
X71667000Y-53740260D01*
X71724068Y-54027158D01*
X71836010Y-54297411D01*
X71998525Y-54540632D01*
X72205368Y-54747475D01*
X72448589Y-54909990D01*
X72718842Y-55021932D01*
X73005740Y-55079000D01*
X73298260Y-55079000D01*
X73585158Y-55021932D01*
X73855411Y-54909990D01*
X74098632Y-54747475D01*
X74305475Y-54540632D01*
X74467990Y-54297411D01*
X74579932Y-54027158D01*
X74637000Y-53740260D01*
X74637000Y-53447740D01*
X74579932Y-53160842D01*
X74467990Y-52890589D01*
X74305475Y-52647368D01*
X74173620Y-52515513D01*
X74246180Y-52493502D01*
X74356494Y-52434537D01*
X74453185Y-52355185D01*
X74532537Y-52258494D01*
X74591502Y-52148180D01*
X74627812Y-52028482D01*
X74640072Y-51904000D01*
X74640072Y-50820000D01*
X80661928Y-50820000D01*
X80661928Y-53320000D01*
X80674188Y-53444482D01*
X80710498Y-53564180D01*
X80769463Y-53674494D01*
X80848815Y-53771185D01*
X80945506Y-53850537D01*
X81055820Y-53909502D01*
X81175518Y-53945812D01*
X81300000Y-53958072D01*
X83800000Y-53958072D01*
X83924482Y-53945812D01*
X84044180Y-53909502D01*
X84154494Y-53850537D01*
X84251185Y-53771185D01*
X84330537Y-53674494D01*
X84389502Y-53564180D01*
X84425812Y-53444482D01*
X84438072Y-53320000D01*
X84438072Y-50820000D01*
X84425812Y-50695518D01*
X84389502Y-50575820D01*
X84330537Y-50465506D01*
X84251185Y-50368815D01*
X84154494Y-50289463D01*
X84044180Y-50230498D01*
X83924482Y-50194188D01*
X83800000Y-50181928D01*
X81300000Y-50181928D01*
X81175518Y-50194188D01*
X81055820Y-50230498D01*
X80945506Y-50289463D01*
X80848815Y-50368815D01*
X80769463Y-50465506D01*
X80710498Y-50575820D01*
X80674188Y-50695518D01*
X80661928Y-50820000D01*
X74640072Y-50820000D01*
X74640072Y-50204000D01*
X74627812Y-50079518D01*
X74591502Y-49959820D01*
X74532537Y-49849506D01*
X74453185Y-49752815D01*
X74356494Y-49673463D01*
X74246180Y-49614498D01*
X74126482Y-49578188D01*
X74002000Y-49565928D01*
X72302000Y-49565928D01*
X72177518Y-49578188D01*
X72057820Y-49614498D01*
X71947506Y-49673463D01*
X71850815Y-49752815D01*
X71771463Y-49849506D01*
X71712498Y-49959820D01*
X71676188Y-50079518D01*
X71663928Y-50204000D01*
X64444157Y-50204000D01*
X67763813Y-46884344D01*
X80665000Y-46884344D01*
X80665000Y-47255656D01*
X80737439Y-47619834D01*
X80879534Y-47962882D01*
X81085825Y-48271618D01*
X81348382Y-48534175D01*
X81657118Y-48740466D01*
X82000166Y-48882561D01*
X82364344Y-48955000D01*
X82735656Y-48955000D01*
X83099834Y-48882561D01*
X83442882Y-48740466D01*
X83751618Y-48534175D01*
X84014175Y-48271618D01*
X84220466Y-47962882D01*
X84362561Y-47619834D01*
X84435000Y-47255656D01*
X84435000Y-46884344D01*
X84362561Y-46520166D01*
X84220466Y-46177118D01*
X84014175Y-45868382D01*
X83751618Y-45605825D01*
X83442882Y-45399534D01*
X83099834Y-45257439D01*
X82735656Y-45185000D01*
X82364344Y-45185000D01*
X82000166Y-45257439D01*
X81657118Y-45399534D01*
X81348382Y-45605825D01*
X81085825Y-45868382D01*
X80879534Y-46177118D01*
X80737439Y-46520166D01*
X80665000Y-46884344D01*
X67763813Y-46884344D01*
X69925157Y-44723000D01*
X69951939Y-44723000D01*
X70151898Y-44683226D01*
X70340256Y-44605205D01*
X70509774Y-44491937D01*
X70528711Y-44473000D01*
X76238561Y-44473000D01*
X76353887Y-44461641D01*
X76398855Y-44448000D01*
X76416678Y-44448000D01*
X76454000Y-44451676D01*
X76491322Y-44448000D01*
X76491333Y-44448000D01*
X76602986Y-44437003D01*
X76746247Y-44393546D01*
X76878276Y-44322974D01*
X76994001Y-44228001D01*
X77017804Y-44198997D01*
X78506801Y-42710000D01*
X97875928Y-42710000D01*
X97888188Y-42834482D01*
X97924498Y-42954180D01*
X97983463Y-43064494D01*
X98062815Y-43161185D01*
X98159506Y-43240537D01*
X98269820Y-43299502D01*
X98389518Y-43335812D01*
X98514000Y-43348072D01*
X99028250Y-43345000D01*
X99187000Y-43186250D01*
X99187000Y-42037000D01*
X98037750Y-42037000D01*
X97879000Y-42195750D01*
X97875928Y-42710000D01*
X78506801Y-42710000D01*
X80106801Y-41110000D01*
X97875928Y-41110000D01*
X97879000Y-41624250D01*
X98037750Y-41783000D01*
X99187000Y-41783000D01*
X99187000Y-40633750D01*
X99441000Y-40633750D01*
X99441000Y-41783000D01*
X99461000Y-41783000D01*
X99461000Y-42037000D01*
X99441000Y-42037000D01*
X99441000Y-43186250D01*
X99599750Y-43345000D01*
X100114000Y-43348072D01*
X100238482Y-43335812D01*
X100358180Y-43299502D01*
X100468494Y-43240537D01*
X100565185Y-43161185D01*
X100578790Y-43144607D01*
X100634273Y-43181680D01*
X100895426Y-43289853D01*
X101172665Y-43345000D01*
X101455335Y-43345000D01*
X101732574Y-43289853D01*
X101993727Y-43181680D01*
X102228759Y-43024637D01*
X102428637Y-42824759D01*
X102585680Y-42589727D01*
X102693853Y-42328574D01*
X102749000Y-42051335D01*
X102749000Y-41768665D01*
X102693853Y-41491426D01*
X102585680Y-41230273D01*
X102428637Y-40995241D01*
X102228759Y-40795363D01*
X101993727Y-40638320D01*
X101732574Y-40530147D01*
X101455335Y-40475000D01*
X101172665Y-40475000D01*
X100895426Y-40530147D01*
X100634273Y-40638320D01*
X100578790Y-40675393D01*
X100565185Y-40658815D01*
X100468494Y-40579463D01*
X100358180Y-40520498D01*
X100238482Y-40484188D01*
X100114000Y-40471928D01*
X99599750Y-40475000D01*
X99441000Y-40633750D01*
X99187000Y-40633750D01*
X99028250Y-40475000D01*
X98514000Y-40471928D01*
X98389518Y-40484188D01*
X98269820Y-40520498D01*
X98159506Y-40579463D01*
X98062815Y-40658815D01*
X97983463Y-40755506D01*
X97924498Y-40865820D01*
X97888188Y-40985518D01*
X97875928Y-41110000D01*
X80106801Y-41110000D01*
X85347004Y-35869798D01*
X85376001Y-35846001D01*
X85402332Y-35813917D01*
X85470974Y-35730277D01*
X85541546Y-35598247D01*
X85541546Y-35598246D01*
X85585003Y-35454986D01*
X85596000Y-35343333D01*
X85596000Y-35343324D01*
X85599676Y-35306001D01*
X85596000Y-35268678D01*
X85596000Y-32220000D01*
X86953928Y-32220000D01*
X86953928Y-33820000D01*
X86966188Y-33944482D01*
X87002498Y-34064180D01*
X87061463Y-34174494D01*
X87140815Y-34271185D01*
X87157393Y-34284790D01*
X87120320Y-34340273D01*
X87012147Y-34601426D01*
X86957000Y-34878665D01*
X86957000Y-35161335D01*
X87012147Y-35438574D01*
X87120320Y-35699727D01*
X87277363Y-35934759D01*
X87477241Y-36134637D01*
X87712273Y-36291680D01*
X87973426Y-36399853D01*
X88250665Y-36455000D01*
X88533335Y-36455000D01*
X88810574Y-36399853D01*
X89071727Y-36291680D01*
X89306759Y-36134637D01*
X89506637Y-35934759D01*
X89663680Y-35699727D01*
X89771853Y-35438574D01*
X89827000Y-35161335D01*
X89827000Y-34878665D01*
X89771853Y-34601426D01*
X89663680Y-34340273D01*
X89626607Y-34284790D01*
X89643185Y-34271185D01*
X89722537Y-34174494D01*
X89781502Y-34064180D01*
X89817812Y-33944482D01*
X89830072Y-33820000D01*
X89830072Y-32220000D01*
X89817812Y-32095518D01*
X89781502Y-31975820D01*
X89722537Y-31865506D01*
X89643185Y-31768815D01*
X89546494Y-31689463D01*
X89436180Y-31630498D01*
X89316482Y-31594188D01*
X89192000Y-31581928D01*
X87592000Y-31581928D01*
X87467518Y-31594188D01*
X87347820Y-31630498D01*
X87237506Y-31689463D01*
X87140815Y-31768815D01*
X87061463Y-31865506D01*
X87002498Y-31975820D01*
X86966188Y-32095518D01*
X86953928Y-32220000D01*
X85596000Y-32220000D01*
X85596000Y-29778801D01*
X90880730Y-24494072D01*
X92944000Y-24494072D01*
X93068482Y-24481812D01*
X93188180Y-24445502D01*
X93298494Y-24386537D01*
X93395185Y-24307185D01*
X93474537Y-24210494D01*
X93533502Y-24100180D01*
X93569812Y-23980482D01*
X93582072Y-23856000D01*
X93582072Y-21356000D01*
X93569812Y-21231518D01*
X93533502Y-21111820D01*
X93474537Y-21001506D01*
X93395185Y-20904815D01*
X93298494Y-20825463D01*
X93188180Y-20766498D01*
X93068482Y-20730188D01*
X92944000Y-20717928D01*
X90444000Y-20717928D01*
X90319518Y-20730188D01*
X90199820Y-20766498D01*
X90089506Y-20825463D01*
X89992815Y-20904815D01*
X89913463Y-21001506D01*
X89854498Y-21111820D01*
X89818188Y-21231518D01*
X89805928Y-21356000D01*
X89805928Y-23419270D01*
X84324998Y-28900201D01*
X84296000Y-28923999D01*
X84272202Y-28952997D01*
X84272201Y-28952998D01*
X84201026Y-29039724D01*
X84130454Y-29171754D01*
X84086998Y-29315015D01*
X84072324Y-29464000D01*
X84076001Y-29501332D01*
X84076000Y-34991198D01*
X76164199Y-42903000D01*
X70528711Y-42903000D01*
X70509774Y-42884063D01*
X70340256Y-42770795D01*
X70151898Y-42692774D01*
X69951939Y-42653000D01*
X69748061Y-42653000D01*
X69548102Y-42692774D01*
X69359744Y-42770795D01*
X69190226Y-42884063D01*
X69046063Y-43028226D01*
X68932795Y-43197744D01*
X68854774Y-43386102D01*
X68815000Y-43586061D01*
X68815000Y-43612843D01*
X59205000Y-53222843D01*
X59205000Y-48430711D01*
X59223937Y-48411774D01*
X59337205Y-48242256D01*
X59415226Y-48053898D01*
X59455000Y-47853939D01*
X59455000Y-47650061D01*
X59415226Y-47450102D01*
X59337205Y-47261744D01*
X59281001Y-47177629D01*
X59281001Y-42380560D01*
X59284799Y-42341999D01*
X59281001Y-42303438D01*
X59281001Y-40378712D01*
X59299938Y-40359775D01*
X59413206Y-40190257D01*
X59491227Y-40001899D01*
X59531001Y-39801940D01*
X59531001Y-39598062D01*
X59491227Y-39398103D01*
X59413206Y-39209745D01*
X59299938Y-39040227D01*
X59281001Y-39021290D01*
X59281001Y-33426061D01*
X60433000Y-33426061D01*
X60433000Y-33629939D01*
X60472774Y-33829898D01*
X60550795Y-34018256D01*
X60664063Y-34187774D01*
X60808226Y-34331937D01*
X60977744Y-34445205D01*
X61166102Y-34523226D01*
X61366061Y-34563000D01*
X61392843Y-34563000D01*
X67291000Y-40461157D01*
X67291000Y-40487939D01*
X67330774Y-40687898D01*
X67408795Y-40876256D01*
X67522063Y-41045774D01*
X67666226Y-41189937D01*
X67835744Y-41303205D01*
X68024102Y-41381226D01*
X68224061Y-41421000D01*
X68427939Y-41421000D01*
X68627898Y-41381226D01*
X68816256Y-41303205D01*
X68985774Y-41189937D01*
X69129937Y-41045774D01*
X69243205Y-40876256D01*
X69321226Y-40687898D01*
X69361000Y-40487939D01*
X69361000Y-40284061D01*
X69321226Y-40084102D01*
X69243205Y-39895744D01*
X69129937Y-39726226D01*
X68985774Y-39582063D01*
X68816256Y-39468795D01*
X68627898Y-39390774D01*
X68427939Y-39351000D01*
X68401157Y-39351000D01*
X62870157Y-33820000D01*
X63331928Y-33820000D01*
X63344188Y-33944482D01*
X63380498Y-34064180D01*
X63439463Y-34174494D01*
X63518815Y-34271185D01*
X63615506Y-34350537D01*
X63725820Y-34409502D01*
X63845518Y-34445812D01*
X63970000Y-34458072D01*
X64484250Y-34455000D01*
X64643000Y-34296250D01*
X64643000Y-33147000D01*
X63493750Y-33147000D01*
X63335000Y-33305750D01*
X63331928Y-33820000D01*
X62870157Y-33820000D01*
X62503000Y-33452843D01*
X62503000Y-33426061D01*
X62463226Y-33226102D01*
X62385205Y-33037744D01*
X62271937Y-32868226D01*
X62127774Y-32724063D01*
X61958256Y-32610795D01*
X61769898Y-32532774D01*
X61569939Y-32493000D01*
X61366061Y-32493000D01*
X61166102Y-32532774D01*
X60977744Y-32610795D01*
X60808226Y-32724063D01*
X60664063Y-32868226D01*
X60550795Y-33037744D01*
X60472774Y-33226102D01*
X60433000Y-33426061D01*
X59281001Y-33426061D01*
X59281001Y-32220000D01*
X63331928Y-32220000D01*
X63335000Y-32734250D01*
X63493750Y-32893000D01*
X64643000Y-32893000D01*
X64643000Y-31743750D01*
X64897000Y-31743750D01*
X64897000Y-32893000D01*
X64917000Y-32893000D01*
X64917000Y-33147000D01*
X64897000Y-33147000D01*
X64897000Y-34296250D01*
X65055750Y-34455000D01*
X65570000Y-34458072D01*
X65694482Y-34445812D01*
X65814180Y-34409502D01*
X65924494Y-34350537D01*
X66021185Y-34271185D01*
X66034790Y-34254607D01*
X66090273Y-34291680D01*
X66351426Y-34399853D01*
X66628665Y-34455000D01*
X66911335Y-34455000D01*
X67188574Y-34399853D01*
X67449727Y-34291680D01*
X67684759Y-34134637D01*
X67884637Y-33934759D01*
X68041680Y-33699727D01*
X68149853Y-33438574D01*
X68205000Y-33161335D01*
X68205000Y-32878665D01*
X68149853Y-32601426D01*
X68041680Y-32340273D01*
X67884637Y-32105241D01*
X67684759Y-31905363D01*
X67449727Y-31748320D01*
X67188574Y-31640147D01*
X66911335Y-31585000D01*
X66628665Y-31585000D01*
X66351426Y-31640147D01*
X66090273Y-31748320D01*
X66034790Y-31785393D01*
X66021185Y-31768815D01*
X65924494Y-31689463D01*
X65814180Y-31630498D01*
X65694482Y-31594188D01*
X65570000Y-31581928D01*
X65055750Y-31585000D01*
X64897000Y-31743750D01*
X64643000Y-31743750D01*
X64484250Y-31585000D01*
X63970000Y-31581928D01*
X63845518Y-31594188D01*
X63725820Y-31630498D01*
X63615506Y-31689463D01*
X63518815Y-31768815D01*
X63439463Y-31865506D01*
X63380498Y-31975820D01*
X63344188Y-32095518D01*
X63331928Y-32220000D01*
X59281001Y-32220000D01*
X59281001Y-25829999D01*
X84192679Y-25829999D01*
X84230001Y-25833675D01*
X84267323Y-25829999D01*
X84267334Y-25829999D01*
X84378987Y-25819002D01*
X84522248Y-25775545D01*
X84654277Y-25704973D01*
X84770002Y-25610000D01*
X84793805Y-25580996D01*
X91011283Y-19363519D01*
X91144166Y-19418561D01*
X91508344Y-19491000D01*
X91879656Y-19491000D01*
X92243834Y-19418561D01*
X92586882Y-19276466D01*
X92895618Y-19070175D01*
X93158175Y-18807618D01*
X93364466Y-18498882D01*
X93506561Y-18155834D01*
X93579000Y-17791656D01*
X93579000Y-17420344D01*
X93506561Y-17056166D01*
X93364466Y-16713118D01*
X93158175Y-16404382D01*
X92895618Y-16141825D01*
X92586882Y-15935534D01*
X92243834Y-15793439D01*
X91879656Y-15721000D01*
X91508344Y-15721000D01*
X91144166Y-15793439D01*
X90801118Y-15935534D01*
X90492382Y-16141825D01*
X90229825Y-16404382D01*
X90023534Y-16713118D01*
X89881439Y-17056166D01*
X89809000Y-17420344D01*
X89809000Y-17791656D01*
X89881439Y-18155834D01*
X89936481Y-18288717D01*
X83915200Y-24309999D01*
X58694855Y-24309999D01*
X58649887Y-24296358D01*
X58496001Y-24281201D01*
X58342114Y-24296358D01*
X58194141Y-24341245D01*
X58057768Y-24414137D01*
X57938237Y-24512235D01*
X57840139Y-24631767D01*
X57767247Y-24768140D01*
X57722360Y-24916113D01*
X57711001Y-25031439D01*
X57711002Y-39021289D01*
X57692064Y-39040227D01*
X57578796Y-39209745D01*
X57500775Y-39398103D01*
X57461001Y-39598062D01*
X57461001Y-39801940D01*
X57500775Y-40001899D01*
X57578796Y-40190257D01*
X57692064Y-40359775D01*
X57711001Y-40378712D01*
X57711002Y-41556999D01*
X38214553Y-41556999D01*
X38176000Y-41553202D01*
X38137447Y-41556999D01*
X38137440Y-41556999D01*
X38036491Y-41566942D01*
X38022113Y-41568358D01*
X37987673Y-41578805D01*
X37874141Y-41613245D01*
X37737768Y-41686137D01*
X37677560Y-41735549D01*
X37648188Y-41759654D01*
X37648185Y-41759657D01*
X37618237Y-41784235D01*
X37593659Y-41814183D01*
X34980843Y-44427000D01*
X33713339Y-44427000D01*
X33626637Y-44297241D01*
X33426759Y-44097363D01*
X33191727Y-43940320D01*
X32930574Y-43832147D01*
X32653335Y-43777000D01*
X32370665Y-43777000D01*
X32093426Y-43832147D01*
X31832273Y-43940320D01*
X31597241Y-44097363D01*
X31397363Y-44297241D01*
X31240320Y-44532273D01*
X31132147Y-44793426D01*
X31077000Y-45070665D01*
X31077000Y-45353335D01*
X31132147Y-45630574D01*
X31240320Y-45891727D01*
X31397363Y-46126759D01*
X31597241Y-46326637D01*
X31832273Y-46483680D01*
X32093426Y-46591853D01*
X32370665Y-46647000D01*
X32653335Y-46647000D01*
X32930574Y-46591853D01*
X33191727Y-46483680D01*
X33426759Y-46326637D01*
X33626637Y-46126759D01*
X33713339Y-45997000D01*
X35267447Y-45997000D01*
X35306000Y-46000797D01*
X35344553Y-45997000D01*
X35344561Y-45997000D01*
X35459887Y-45985641D01*
X35607860Y-45940754D01*
X35744233Y-45867862D01*
X35863764Y-45769764D01*
X35888347Y-45739810D01*
X37216157Y-44412000D01*
X38693928Y-44412000D01*
X38693928Y-46012000D01*
X38706188Y-46136482D01*
X38742498Y-46256180D01*
X38801463Y-46366494D01*
X38880815Y-46463185D01*
X38977506Y-46542537D01*
X39087820Y-46601502D01*
X39207518Y-46637812D01*
X39332000Y-46650072D01*
X40932000Y-46650072D01*
X41056482Y-46637812D01*
X41176180Y-46601502D01*
X41286494Y-46542537D01*
X41383185Y-46463185D01*
X41462537Y-46366494D01*
X41521502Y-46256180D01*
X41557812Y-46136482D01*
X41570072Y-46012000D01*
X41570072Y-44412000D01*
X41557812Y-44287518D01*
X41521502Y-44167820D01*
X41462537Y-44057506D01*
X41383185Y-43960815D01*
X41286494Y-43881463D01*
X41176180Y-43822498D01*
X41056482Y-43786188D01*
X40932000Y-43773928D01*
X39332000Y-43773928D01*
X39207518Y-43786188D01*
X39087820Y-43822498D01*
X38977506Y-43881463D01*
X38880815Y-43960815D01*
X38801463Y-44057506D01*
X38742498Y-44167820D01*
X38706188Y-44287518D01*
X38693928Y-44412000D01*
X37216157Y-44412000D01*
X38501159Y-43126999D01*
X57711001Y-43126999D01*
X57711002Y-46997287D01*
X57616063Y-47092226D01*
X57502795Y-47261744D01*
X57424774Y-47450102D01*
X57385000Y-47650061D01*
X57385000Y-47853939D01*
X57424774Y-48053898D01*
X57502795Y-48242256D01*
X57616063Y-48411774D01*
X57635000Y-48430711D01*
X57635001Y-66421000D01*
X49149000Y-66421000D01*
X49149000Y-47498000D01*
X49146560Y-47473224D01*
X49139333Y-47449399D01*
X49127597Y-47427443D01*
X49111803Y-47408197D01*
X49092557Y-47392403D01*
X49070601Y-47380667D01*
X49046776Y-47373440D01*
X49022000Y-47371000D01*
X26289000Y-47371000D01*
X26289000Y-37958665D01*
X30823000Y-37958665D01*
X30823000Y-38241335D01*
X30878147Y-38518574D01*
X30986320Y-38779727D01*
X31143363Y-39014759D01*
X31343241Y-39214637D01*
X31578273Y-39371680D01*
X31839426Y-39479853D01*
X32116665Y-39535000D01*
X32399335Y-39535000D01*
X32676574Y-39479853D01*
X32937727Y-39371680D01*
X33172759Y-39214637D01*
X33372637Y-39014759D01*
X33529680Y-38779727D01*
X33637853Y-38518574D01*
X33693000Y-38241335D01*
X33693000Y-37958665D01*
X33637853Y-37681426D01*
X33529680Y-37420273D01*
X33449317Y-37300000D01*
X38439928Y-37300000D01*
X38439928Y-38900000D01*
X38452188Y-39024482D01*
X38488498Y-39144180D01*
X38547463Y-39254494D01*
X38626815Y-39351185D01*
X38723506Y-39430537D01*
X38833820Y-39489502D01*
X38953518Y-39525812D01*
X39078000Y-39538072D01*
X40678000Y-39538072D01*
X40802482Y-39525812D01*
X40922180Y-39489502D01*
X41032494Y-39430537D01*
X41129185Y-39351185D01*
X41208537Y-39254494D01*
X41267502Y-39144180D01*
X41303812Y-39024482D01*
X41316072Y-38900000D01*
X41316072Y-37300000D01*
X41303812Y-37175518D01*
X41267502Y-37055820D01*
X41208537Y-36945506D01*
X41129185Y-36848815D01*
X41032494Y-36769463D01*
X40922180Y-36710498D01*
X40802482Y-36674188D01*
X40678000Y-36661928D01*
X39078000Y-36661928D01*
X38953518Y-36674188D01*
X38833820Y-36710498D01*
X38723506Y-36769463D01*
X38626815Y-36848815D01*
X38547463Y-36945506D01*
X38488498Y-37055820D01*
X38452188Y-37175518D01*
X38439928Y-37300000D01*
X33449317Y-37300000D01*
X33372637Y-37185241D01*
X33172759Y-36985363D01*
X32937727Y-36828320D01*
X32676574Y-36720147D01*
X32399335Y-36665000D01*
X32116665Y-36665000D01*
X31839426Y-36720147D01*
X31578273Y-36828320D01*
X31343241Y-36985363D01*
X31143363Y-37185241D01*
X30986320Y-37420273D01*
X30878147Y-37681426D01*
X30823000Y-37958665D01*
X26289000Y-37958665D01*
X26289000Y-21860000D01*
X28841928Y-21860000D01*
X28841928Y-23860000D01*
X28854188Y-23984482D01*
X28890498Y-24104180D01*
X28949463Y-24214494D01*
X29028815Y-24311185D01*
X29125506Y-24390537D01*
X29235820Y-24449502D01*
X29355518Y-24485812D01*
X29480000Y-24498072D01*
X31007915Y-24498072D01*
X45137653Y-38627810D01*
X45162236Y-38657764D01*
X45281767Y-38755862D01*
X45418140Y-38828754D01*
X45566113Y-38873642D01*
X45641026Y-38881020D01*
X45681439Y-38885000D01*
X45681444Y-38885000D01*
X45720000Y-38888797D01*
X45758556Y-38885000D01*
X53931289Y-38885000D01*
X53950226Y-38903937D01*
X54119744Y-39017205D01*
X54308102Y-39095226D01*
X54508061Y-39135000D01*
X54711939Y-39135000D01*
X54911898Y-39095226D01*
X55100256Y-39017205D01*
X55269774Y-38903937D01*
X55413937Y-38759774D01*
X55527205Y-38590256D01*
X55605226Y-38401898D01*
X55645000Y-38201939D01*
X55645000Y-37998061D01*
X55605226Y-37798102D01*
X55527205Y-37609744D01*
X55413937Y-37440226D01*
X55269774Y-37296063D01*
X55100256Y-37182795D01*
X54911898Y-37104774D01*
X54711939Y-37065000D01*
X54508061Y-37065000D01*
X54308102Y-37104774D01*
X54119744Y-37182795D01*
X53950226Y-37296063D01*
X53931289Y-37315000D01*
X47745328Y-37315000D01*
X47771000Y-37185939D01*
X47771000Y-36982061D01*
X47731226Y-36782102D01*
X47653205Y-36593744D01*
X47539937Y-36424226D01*
X47521000Y-36405289D01*
X47521000Y-34460711D01*
X47539937Y-34441774D01*
X47653205Y-34272256D01*
X47731226Y-34083898D01*
X47771000Y-33883939D01*
X47771000Y-33680061D01*
X47731226Y-33480102D01*
X47653205Y-33291744D01*
X47539937Y-33122226D01*
X47395774Y-32978063D01*
X47226256Y-32864795D01*
X47037898Y-32786774D01*
X46837939Y-32747000D01*
X46634061Y-32747000D01*
X46434102Y-32786774D01*
X46245744Y-32864795D01*
X46076226Y-32978063D01*
X45932063Y-33122226D01*
X45818795Y-33291744D01*
X45740774Y-33480102D01*
X45701000Y-33680061D01*
X45701000Y-33883939D01*
X45740774Y-34083898D01*
X45818795Y-34272256D01*
X45932063Y-34441774D01*
X45951001Y-34460712D01*
X45951000Y-36405289D01*
X45932063Y-36424226D01*
X45818795Y-36593744D01*
X45740774Y-36782102D01*
X45702861Y-36972704D01*
X32118072Y-23387915D01*
X32118072Y-22698967D01*
X33845000Y-22698967D01*
X33845000Y-23021033D01*
X33907832Y-23336912D01*
X34031082Y-23634463D01*
X34210013Y-23902252D01*
X34437748Y-24129987D01*
X34705537Y-24308918D01*
X35003088Y-24432168D01*
X35318967Y-24495000D01*
X35641033Y-24495000D01*
X35956912Y-24432168D01*
X36254463Y-24308918D01*
X36522252Y-24129987D01*
X36749987Y-23902252D01*
X36928918Y-23634463D01*
X37052168Y-23336912D01*
X37115000Y-23021033D01*
X37115000Y-22698967D01*
X37052168Y-22383088D01*
X36928918Y-22085537D01*
X36749987Y-21817748D01*
X36522252Y-21590013D01*
X36254463Y-21411082D01*
X35956912Y-21287832D01*
X35641033Y-21225000D01*
X35318967Y-21225000D01*
X35003088Y-21287832D01*
X34705537Y-21411082D01*
X34437748Y-21590013D01*
X34210013Y-21817748D01*
X34031082Y-22085537D01*
X33907832Y-22383088D01*
X33845000Y-22698967D01*
X32118072Y-22698967D01*
X32118072Y-21860000D01*
X32105812Y-21735518D01*
X32069502Y-21615820D01*
X32010537Y-21505506D01*
X31931185Y-21408815D01*
X31834494Y-21329463D01*
X31724180Y-21270498D01*
X31604482Y-21234188D01*
X31480000Y-21221928D01*
X29480000Y-21221928D01*
X29355518Y-21234188D01*
X29235820Y-21270498D01*
X29125506Y-21329463D01*
X29028815Y-21408815D01*
X28949463Y-21505506D01*
X28890498Y-21615820D01*
X28854188Y-21735518D01*
X28841928Y-21860000D01*
X26289000Y-21860000D01*
X26289000Y-18200000D01*
X64551928Y-18200000D01*
X64551928Y-19900000D01*
X64564188Y-20024482D01*
X64600498Y-20144180D01*
X64659463Y-20254494D01*
X64738815Y-20351185D01*
X64835506Y-20430537D01*
X64945820Y-20489502D01*
X65018380Y-20511513D01*
X64886525Y-20643368D01*
X64724010Y-20886589D01*
X64612068Y-21156842D01*
X64555000Y-21443740D01*
X64555000Y-21736260D01*
X64612068Y-22023158D01*
X64724010Y-22293411D01*
X64886525Y-22536632D01*
X65093368Y-22743475D01*
X65336589Y-22905990D01*
X65606842Y-23017932D01*
X65893740Y-23075000D01*
X66186260Y-23075000D01*
X66473158Y-23017932D01*
X66743411Y-22905990D01*
X66986632Y-22743475D01*
X67193475Y-22536632D01*
X67355990Y-22293411D01*
X67467932Y-22023158D01*
X67525000Y-21736260D01*
X67525000Y-21443740D01*
X67467932Y-21156842D01*
X67355990Y-20886589D01*
X67193475Y-20643368D01*
X67061620Y-20511513D01*
X67134180Y-20489502D01*
X67244494Y-20430537D01*
X67341185Y-20351185D01*
X67420537Y-20254494D01*
X67479502Y-20144180D01*
X67515812Y-20024482D01*
X67528072Y-19900000D01*
X67528072Y-18200000D01*
X67515812Y-18075518D01*
X67479502Y-17955820D01*
X67420537Y-17845506D01*
X67341185Y-17748815D01*
X67244494Y-17669463D01*
X67134180Y-17610498D01*
X67014482Y-17574188D01*
X66890000Y-17561928D01*
X65190000Y-17561928D01*
X65065518Y-17574188D01*
X64945820Y-17610498D01*
X64835506Y-17669463D01*
X64738815Y-17748815D01*
X64659463Y-17845506D01*
X64600498Y-17955820D01*
X64564188Y-18075518D01*
X64551928Y-18200000D01*
X26289000Y-18200000D01*
X26289000Y-13588584D01*
X27527336Y-13584524D01*
X27254837Y-13857023D01*
X27017412Y-14212355D01*
X26853870Y-14607179D01*
X26770497Y-15026323D01*
X26770497Y-15453677D01*
X26853870Y-15872821D01*
X27017412Y-16267645D01*
X27254837Y-16622977D01*
X27557023Y-16925163D01*
X27912355Y-17162588D01*
X28307179Y-17326130D01*
X28726323Y-17409503D01*
X29153677Y-17409503D01*
X29572821Y-17326130D01*
X29967645Y-17162588D01*
X30322977Y-16925163D01*
X30625163Y-16622977D01*
X30862588Y-16267645D01*
X31026130Y-15872821D01*
X31109503Y-15453677D01*
X31109503Y-15026323D01*
X31026130Y-14607179D01*
X30862588Y-14212355D01*
X30625163Y-13857023D01*
X30343431Y-13575291D01*
X96007179Y-13360000D01*
X99508617Y-13360000D01*
X99217023Y-13554837D01*
G37*
X99217023Y-13554837D02*
X98914837Y-13857023D01*
X98677412Y-14212355D01*
X98513870Y-14607179D01*
X98430497Y-15026323D01*
X98430497Y-15453677D01*
X98513870Y-15872821D01*
X98677412Y-16267645D01*
X98914837Y-16622977D01*
X99217023Y-16925163D01*
X99572355Y-17162588D01*
X99967179Y-17326130D01*
X100386323Y-17409503D01*
X100813677Y-17409503D01*
X101232821Y-17326130D01*
X101627645Y-17162588D01*
X101982977Y-16925163D01*
X102285163Y-16622977D01*
X102522588Y-16267645D01*
X102686130Y-15872821D01*
X102769503Y-15453677D01*
X102769503Y-15026323D01*
X102686130Y-14607179D01*
X102522588Y-14212355D01*
X102285163Y-13857023D01*
X101982977Y-13554837D01*
X101691383Y-13360000D01*
X103480000Y-13360000D01*
X103480000Y-55499000D01*
X86106000Y-55499000D01*
X86081224Y-55501440D01*
X86057399Y-55508667D01*
X86035443Y-55520403D01*
X86016197Y-55536197D01*
X86000403Y-55555443D01*
X85988667Y-55577399D01*
X85981440Y-55601224D01*
X85979000Y-55626000D01*
X85979000Y-66421000D01*
X60475000Y-66421000D01*
X60475000Y-54173157D01*
X64444157Y-50204000D01*
X71663928Y-50204000D01*
X71663928Y-51904000D01*
X71676188Y-52028482D01*
X71712498Y-52148180D01*
X71771463Y-52258494D01*
X71850815Y-52355185D01*
X71947506Y-52434537D01*
X72057820Y-52493502D01*
X72130380Y-52515513D01*
X71998525Y-52647368D01*
X71836010Y-52890589D01*
X71724068Y-53160842D01*
X71667000Y-53447740D01*
X71667000Y-53740260D01*
X71724068Y-54027158D01*
X71836010Y-54297411D01*
X71998525Y-54540632D01*
X72205368Y-54747475D01*
X72448589Y-54909990D01*
X72718842Y-55021932D01*
X73005740Y-55079000D01*
X73298260Y-55079000D01*
X73585158Y-55021932D01*
X73855411Y-54909990D01*
X74098632Y-54747475D01*
X74305475Y-54540632D01*
X74467990Y-54297411D01*
X74579932Y-54027158D01*
X74637000Y-53740260D01*
X74637000Y-53447740D01*
X74579932Y-53160842D01*
X74467990Y-52890589D01*
X74305475Y-52647368D01*
X74173620Y-52515513D01*
X74246180Y-52493502D01*
X74356494Y-52434537D01*
X74453185Y-52355185D01*
X74532537Y-52258494D01*
X74591502Y-52148180D01*
X74627812Y-52028482D01*
X74640072Y-51904000D01*
X74640072Y-50820000D01*
X80661928Y-50820000D01*
X80661928Y-53320000D01*
X80674188Y-53444482D01*
X80710498Y-53564180D01*
X80769463Y-53674494D01*
X80848815Y-53771185D01*
X80945506Y-53850537D01*
X81055820Y-53909502D01*
X81175518Y-53945812D01*
X81300000Y-53958072D01*
X83800000Y-53958072D01*
X83924482Y-53945812D01*
X84044180Y-53909502D01*
X84154494Y-53850537D01*
X84251185Y-53771185D01*
X84330537Y-53674494D01*
X84389502Y-53564180D01*
X84425812Y-53444482D01*
X84438072Y-53320000D01*
X84438072Y-50820000D01*
X84425812Y-50695518D01*
X84389502Y-50575820D01*
X84330537Y-50465506D01*
X84251185Y-50368815D01*
X84154494Y-50289463D01*
X84044180Y-50230498D01*
X83924482Y-50194188D01*
X83800000Y-50181928D01*
X81300000Y-50181928D01*
X81175518Y-50194188D01*
X81055820Y-50230498D01*
X80945506Y-50289463D01*
X80848815Y-50368815D01*
X80769463Y-50465506D01*
X80710498Y-50575820D01*
X80674188Y-50695518D01*
X80661928Y-50820000D01*
X74640072Y-50820000D01*
X74640072Y-50204000D01*
X74627812Y-50079518D01*
X74591502Y-49959820D01*
X74532537Y-49849506D01*
X74453185Y-49752815D01*
X74356494Y-49673463D01*
X74246180Y-49614498D01*
X74126482Y-49578188D01*
X74002000Y-49565928D01*
X72302000Y-49565928D01*
X72177518Y-49578188D01*
X72057820Y-49614498D01*
X71947506Y-49673463D01*
X71850815Y-49752815D01*
X71771463Y-49849506D01*
X71712498Y-49959820D01*
X71676188Y-50079518D01*
X71663928Y-50204000D01*
X64444157Y-50204000D01*
X67763813Y-46884344D01*
X80665000Y-46884344D01*
X80665000Y-47255656D01*
X80737439Y-47619834D01*
X80879534Y-47962882D01*
X81085825Y-48271618D01*
X81348382Y-48534175D01*
X81657118Y-48740466D01*
X82000166Y-48882561D01*
X82364344Y-48955000D01*
X82735656Y-48955000D01*
X83099834Y-48882561D01*
X83442882Y-48740466D01*
X83751618Y-48534175D01*
X84014175Y-48271618D01*
X84220466Y-47962882D01*
X84362561Y-47619834D01*
X84435000Y-47255656D01*
X84435000Y-46884344D01*
X84362561Y-46520166D01*
X84220466Y-46177118D01*
X84014175Y-45868382D01*
X83751618Y-45605825D01*
X83442882Y-45399534D01*
X83099834Y-45257439D01*
X82735656Y-45185000D01*
X82364344Y-45185000D01*
X82000166Y-45257439D01*
X81657118Y-45399534D01*
X81348382Y-45605825D01*
X81085825Y-45868382D01*
X80879534Y-46177118D01*
X80737439Y-46520166D01*
X80665000Y-46884344D01*
X67763813Y-46884344D01*
X69925157Y-44723000D01*
X69951939Y-44723000D01*
X70151898Y-44683226D01*
X70340256Y-44605205D01*
X70509774Y-44491937D01*
X70528711Y-44473000D01*
X76238561Y-44473000D01*
X76353887Y-44461641D01*
X76398855Y-44448000D01*
X76416678Y-44448000D01*
X76454000Y-44451676D01*
X76491322Y-44448000D01*
X76491333Y-44448000D01*
X76602986Y-44437003D01*
X76746247Y-44393546D01*
X76878276Y-44322974D01*
X76994001Y-44228001D01*
X77017804Y-44198997D01*
X78506801Y-42710000D01*
X97875928Y-42710000D01*
X97888188Y-42834482D01*
X97924498Y-42954180D01*
X97983463Y-43064494D01*
X98062815Y-43161185D01*
X98159506Y-43240537D01*
X98269820Y-43299502D01*
X98389518Y-43335812D01*
X98514000Y-43348072D01*
X99028250Y-43345000D01*
X99187000Y-43186250D01*
X99187000Y-42037000D01*
X98037750Y-42037000D01*
X97879000Y-42195750D01*
X97875928Y-42710000D01*
X78506801Y-42710000D01*
X80106801Y-41110000D01*
X97875928Y-41110000D01*
X97879000Y-41624250D01*
X98037750Y-41783000D01*
X99187000Y-41783000D01*
X99187000Y-40633750D01*
X99441000Y-40633750D01*
X99441000Y-41783000D01*
X99461000Y-41783000D01*
X99461000Y-42037000D01*
X99441000Y-42037000D01*
X99441000Y-43186250D01*
X99599750Y-43345000D01*
X100114000Y-43348072D01*
X100238482Y-43335812D01*
X100358180Y-43299502D01*
X100468494Y-43240537D01*
X100565185Y-43161185D01*
X100578790Y-43144607D01*
X100634273Y-43181680D01*
X100895426Y-43289853D01*
X101172665Y-43345000D01*
X101455335Y-43345000D01*
X101732574Y-43289853D01*
X101993727Y-43181680D01*
X102228759Y-43024637D01*
X102428637Y-42824759D01*
X102585680Y-42589727D01*
X102693853Y-42328574D01*
X102749000Y-42051335D01*
X102749000Y-41768665D01*
X102693853Y-41491426D01*
X102585680Y-41230273D01*
X102428637Y-40995241D01*
X102228759Y-40795363D01*
X101993727Y-40638320D01*
X101732574Y-40530147D01*
X101455335Y-40475000D01*
X101172665Y-40475000D01*
X100895426Y-40530147D01*
X100634273Y-40638320D01*
X100578790Y-40675393D01*
X100565185Y-40658815D01*
X100468494Y-40579463D01*
X100358180Y-40520498D01*
X100238482Y-40484188D01*
X100114000Y-40471928D01*
X99599750Y-40475000D01*
X99441000Y-40633750D01*
X99187000Y-40633750D01*
X99028250Y-40475000D01*
X98514000Y-40471928D01*
X98389518Y-40484188D01*
X98269820Y-40520498D01*
X98159506Y-40579463D01*
X98062815Y-40658815D01*
X97983463Y-40755506D01*
X97924498Y-40865820D01*
X97888188Y-40985518D01*
X97875928Y-41110000D01*
X80106801Y-41110000D01*
X85347004Y-35869798D01*
X85376001Y-35846001D01*
X85402332Y-35813917D01*
X85470974Y-35730277D01*
X85541546Y-35598247D01*
X85541546Y-35598246D01*
X85585003Y-35454986D01*
X85596000Y-35343333D01*
X85596000Y-35343324D01*
X85599676Y-35306001D01*
X85596000Y-35268678D01*
X85596000Y-32220000D01*
X86953928Y-32220000D01*
X86953928Y-33820000D01*
X86966188Y-33944482D01*
X87002498Y-34064180D01*
X87061463Y-34174494D01*
X87140815Y-34271185D01*
X87157393Y-34284790D01*
X87120320Y-34340273D01*
X87012147Y-34601426D01*
X86957000Y-34878665D01*
X86957000Y-35161335D01*
X87012147Y-35438574D01*
X87120320Y-35699727D01*
X87277363Y-35934759D01*
X87477241Y-36134637D01*
X87712273Y-36291680D01*
X87973426Y-36399853D01*
X88250665Y-36455000D01*
X88533335Y-36455000D01*
X88810574Y-36399853D01*
X89071727Y-36291680D01*
X89306759Y-36134637D01*
X89506637Y-35934759D01*
X89663680Y-35699727D01*
X89771853Y-35438574D01*
X89827000Y-35161335D01*
X89827000Y-34878665D01*
X89771853Y-34601426D01*
X89663680Y-34340273D01*
X89626607Y-34284790D01*
X89643185Y-34271185D01*
X89722537Y-34174494D01*
X89781502Y-34064180D01*
X89817812Y-33944482D01*
X89830072Y-33820000D01*
X89830072Y-32220000D01*
X89817812Y-32095518D01*
X89781502Y-31975820D01*
X89722537Y-31865506D01*
X89643185Y-31768815D01*
X89546494Y-31689463D01*
X89436180Y-31630498D01*
X89316482Y-31594188D01*
X89192000Y-31581928D01*
X87592000Y-31581928D01*
X87467518Y-31594188D01*
X87347820Y-31630498D01*
X87237506Y-31689463D01*
X87140815Y-31768815D01*
X87061463Y-31865506D01*
X87002498Y-31975820D01*
X86966188Y-32095518D01*
X86953928Y-32220000D01*
X85596000Y-32220000D01*
X85596000Y-29778801D01*
X90880730Y-24494072D01*
X92944000Y-24494072D01*
X93068482Y-24481812D01*
X93188180Y-24445502D01*
X93298494Y-24386537D01*
X93395185Y-24307185D01*
X93474537Y-24210494D01*
X93533502Y-24100180D01*
X93569812Y-23980482D01*
X93582072Y-23856000D01*
X93582072Y-21356000D01*
X93569812Y-21231518D01*
X93533502Y-21111820D01*
X93474537Y-21001506D01*
X93395185Y-20904815D01*
X93298494Y-20825463D01*
X93188180Y-20766498D01*
X93068482Y-20730188D01*
X92944000Y-20717928D01*
X90444000Y-20717928D01*
X90319518Y-20730188D01*
X90199820Y-20766498D01*
X90089506Y-20825463D01*
X89992815Y-20904815D01*
X89913463Y-21001506D01*
X89854498Y-21111820D01*
X89818188Y-21231518D01*
X89805928Y-21356000D01*
X89805928Y-23419270D01*
X84324998Y-28900201D01*
X84296000Y-28923999D01*
X84272202Y-28952997D01*
X84272201Y-28952998D01*
X84201026Y-29039724D01*
X84130454Y-29171754D01*
X84086998Y-29315015D01*
X84072324Y-29464000D01*
X84076001Y-29501332D01*
X84076000Y-34991198D01*
X76164199Y-42903000D01*
X70528711Y-42903000D01*
X70509774Y-42884063D01*
X70340256Y-42770795D01*
X70151898Y-42692774D01*
X69951939Y-42653000D01*
X69748061Y-42653000D01*
X69548102Y-42692774D01*
X69359744Y-42770795D01*
X69190226Y-42884063D01*
X69046063Y-43028226D01*
X68932795Y-43197744D01*
X68854774Y-43386102D01*
X68815000Y-43586061D01*
X68815000Y-43612843D01*
X59205000Y-53222843D01*
X59205000Y-48430711D01*
X59223937Y-48411774D01*
X59337205Y-48242256D01*
X59415226Y-48053898D01*
X59455000Y-47853939D01*
X59455000Y-47650061D01*
X59415226Y-47450102D01*
X59337205Y-47261744D01*
X59281001Y-47177629D01*
X59281001Y-42380560D01*
X59284799Y-42341999D01*
X59281001Y-42303438D01*
X59281001Y-40378712D01*
X59299938Y-40359775D01*
X59413206Y-40190257D01*
X59491227Y-40001899D01*
X59531001Y-39801940D01*
X59531001Y-39598062D01*
X59491227Y-39398103D01*
X59413206Y-39209745D01*
X59299938Y-39040227D01*
X59281001Y-39021290D01*
X59281001Y-33426061D01*
X60433000Y-33426061D01*
X60433000Y-33629939D01*
X60472774Y-33829898D01*
X60550795Y-34018256D01*
X60664063Y-34187774D01*
X60808226Y-34331937D01*
X60977744Y-34445205D01*
X61166102Y-34523226D01*
X61366061Y-34563000D01*
X61392843Y-34563000D01*
X67291000Y-40461157D01*
X67291000Y-40487939D01*
X67330774Y-40687898D01*
X67408795Y-40876256D01*
X67522063Y-41045774D01*
X67666226Y-41189937D01*
X67835744Y-41303205D01*
X68024102Y-41381226D01*
X68224061Y-41421000D01*
X68427939Y-41421000D01*
X68627898Y-41381226D01*
X68816256Y-41303205D01*
X68985774Y-41189937D01*
X69129937Y-41045774D01*
X69243205Y-40876256D01*
X69321226Y-40687898D01*
X69361000Y-40487939D01*
X69361000Y-40284061D01*
X69321226Y-40084102D01*
X69243205Y-39895744D01*
X69129937Y-39726226D01*
X68985774Y-39582063D01*
X68816256Y-39468795D01*
X68627898Y-39390774D01*
X68427939Y-39351000D01*
X68401157Y-39351000D01*
X62870157Y-33820000D01*
X63331928Y-33820000D01*
X63344188Y-33944482D01*
X63380498Y-34064180D01*
X63439463Y-34174494D01*
X63518815Y-34271185D01*
X63615506Y-34350537D01*
X63725820Y-34409502D01*
X63845518Y-34445812D01*
X63970000Y-34458072D01*
X64484250Y-34455000D01*
X64643000Y-34296250D01*
X64643000Y-33147000D01*
X63493750Y-33147000D01*
X63335000Y-33305750D01*
X63331928Y-33820000D01*
X62870157Y-33820000D01*
X62503000Y-33452843D01*
X62503000Y-33426061D01*
X62463226Y-33226102D01*
X62385205Y-33037744D01*
X62271937Y-32868226D01*
X62127774Y-32724063D01*
X61958256Y-32610795D01*
X61769898Y-32532774D01*
X61569939Y-32493000D01*
X61366061Y-32493000D01*
X61166102Y-32532774D01*
X60977744Y-32610795D01*
X60808226Y-32724063D01*
X60664063Y-32868226D01*
X60550795Y-33037744D01*
X60472774Y-33226102D01*
X60433000Y-33426061D01*
X59281001Y-33426061D01*
X59281001Y-32220000D01*
X63331928Y-32220000D01*
X63335000Y-32734250D01*
X63493750Y-32893000D01*
X64643000Y-32893000D01*
X64643000Y-31743750D01*
X64897000Y-31743750D01*
X64897000Y-32893000D01*
X64917000Y-32893000D01*
X64917000Y-33147000D01*
X64897000Y-33147000D01*
X64897000Y-34296250D01*
X65055750Y-34455000D01*
X65570000Y-34458072D01*
X65694482Y-34445812D01*
X65814180Y-34409502D01*
X65924494Y-34350537D01*
X66021185Y-34271185D01*
X66034790Y-34254607D01*
X66090273Y-34291680D01*
X66351426Y-34399853D01*
X66628665Y-34455000D01*
X66911335Y-34455000D01*
X67188574Y-34399853D01*
X67449727Y-34291680D01*
X67684759Y-34134637D01*
X67884637Y-33934759D01*
X68041680Y-33699727D01*
X68149853Y-33438574D01*
X68205000Y-33161335D01*
X68205000Y-32878665D01*
X68149853Y-32601426D01*
X68041680Y-32340273D01*
X67884637Y-32105241D01*
X67684759Y-31905363D01*
X67449727Y-31748320D01*
X67188574Y-31640147D01*
X66911335Y-31585000D01*
X66628665Y-31585000D01*
X66351426Y-31640147D01*
X66090273Y-31748320D01*
X66034790Y-31785393D01*
X66021185Y-31768815D01*
X65924494Y-31689463D01*
X65814180Y-31630498D01*
X65694482Y-31594188D01*
X65570000Y-31581928D01*
X65055750Y-31585000D01*
X64897000Y-31743750D01*
X64643000Y-31743750D01*
X64484250Y-31585000D01*
X63970000Y-31581928D01*
X63845518Y-31594188D01*
X63725820Y-31630498D01*
X63615506Y-31689463D01*
X63518815Y-31768815D01*
X63439463Y-31865506D01*
X63380498Y-31975820D01*
X63344188Y-32095518D01*
X63331928Y-32220000D01*
X59281001Y-32220000D01*
X59281001Y-25829999D01*
X84192679Y-25829999D01*
X84230001Y-25833675D01*
X84267323Y-25829999D01*
X84267334Y-25829999D01*
X84378987Y-25819002D01*
X84522248Y-25775545D01*
X84654277Y-25704973D01*
X84770002Y-25610000D01*
X84793805Y-25580996D01*
X91011283Y-19363519D01*
X91144166Y-19418561D01*
X91508344Y-19491000D01*
X91879656Y-19491000D01*
X92243834Y-19418561D01*
X92586882Y-19276466D01*
X92895618Y-19070175D01*
X93158175Y-18807618D01*
X93364466Y-18498882D01*
X93506561Y-18155834D01*
X93579000Y-17791656D01*
X93579000Y-17420344D01*
X93506561Y-17056166D01*
X93364466Y-16713118D01*
X93158175Y-16404382D01*
X92895618Y-16141825D01*
X92586882Y-15935534D01*
X92243834Y-15793439D01*
X91879656Y-15721000D01*
X91508344Y-15721000D01*
X91144166Y-15793439D01*
X90801118Y-15935534D01*
X90492382Y-16141825D01*
X90229825Y-16404382D01*
X90023534Y-16713118D01*
X89881439Y-17056166D01*
X89809000Y-17420344D01*
X89809000Y-17791656D01*
X89881439Y-18155834D01*
X89936481Y-18288717D01*
X83915200Y-24309999D01*
X58694855Y-24309999D01*
X58649887Y-24296358D01*
X58496001Y-24281201D01*
X58342114Y-24296358D01*
X58194141Y-24341245D01*
X58057768Y-24414137D01*
X57938237Y-24512235D01*
X57840139Y-24631767D01*
X57767247Y-24768140D01*
X57722360Y-24916113D01*
X57711001Y-25031439D01*
X57711002Y-39021289D01*
X57692064Y-39040227D01*
X57578796Y-39209745D01*
X57500775Y-39398103D01*
X57461001Y-39598062D01*
X57461001Y-39801940D01*
X57500775Y-40001899D01*
X57578796Y-40190257D01*
X57692064Y-40359775D01*
X57711001Y-40378712D01*
X57711002Y-41556999D01*
X38214553Y-41556999D01*
X38176000Y-41553202D01*
X38137447Y-41556999D01*
X38137440Y-41556999D01*
X38036491Y-41566942D01*
X38022113Y-41568358D01*
X37987673Y-41578805D01*
X37874141Y-41613245D01*
X37737768Y-41686137D01*
X37677560Y-41735549D01*
X37648188Y-41759654D01*
X37648185Y-41759657D01*
X37618237Y-41784235D01*
X37593659Y-41814183D01*
X34980843Y-44427000D01*
X33713339Y-44427000D01*
X33626637Y-44297241D01*
X33426759Y-44097363D01*
X33191727Y-43940320D01*
X32930574Y-43832147D01*
X32653335Y-43777000D01*
X32370665Y-43777000D01*
X32093426Y-43832147D01*
X31832273Y-43940320D01*
X31597241Y-44097363D01*
X31397363Y-44297241D01*
X31240320Y-44532273D01*
X31132147Y-44793426D01*
X31077000Y-45070665D01*
X31077000Y-45353335D01*
X31132147Y-45630574D01*
X31240320Y-45891727D01*
X31397363Y-46126759D01*
X31597241Y-46326637D01*
X31832273Y-46483680D01*
X32093426Y-46591853D01*
X32370665Y-46647000D01*
X32653335Y-46647000D01*
X32930574Y-46591853D01*
X33191727Y-46483680D01*
X33426759Y-46326637D01*
X33626637Y-46126759D01*
X33713339Y-45997000D01*
X35267447Y-45997000D01*
X35306000Y-46000797D01*
X35344553Y-45997000D01*
X35344561Y-45997000D01*
X35459887Y-45985641D01*
X35607860Y-45940754D01*
X35744233Y-45867862D01*
X35863764Y-45769764D01*
X35888347Y-45739810D01*
X37216157Y-44412000D01*
X38693928Y-44412000D01*
X38693928Y-46012000D01*
X38706188Y-46136482D01*
X38742498Y-46256180D01*
X38801463Y-46366494D01*
X38880815Y-46463185D01*
X38977506Y-46542537D01*
X39087820Y-46601502D01*
X39207518Y-46637812D01*
X39332000Y-46650072D01*
X40932000Y-46650072D01*
X41056482Y-46637812D01*
X41176180Y-46601502D01*
X41286494Y-46542537D01*
X41383185Y-46463185D01*
X41462537Y-46366494D01*
X41521502Y-46256180D01*
X41557812Y-46136482D01*
X41570072Y-46012000D01*
X41570072Y-44412000D01*
X41557812Y-44287518D01*
X41521502Y-44167820D01*
X41462537Y-44057506D01*
X41383185Y-43960815D01*
X41286494Y-43881463D01*
X41176180Y-43822498D01*
X41056482Y-43786188D01*
X40932000Y-43773928D01*
X39332000Y-43773928D01*
X39207518Y-43786188D01*
X39087820Y-43822498D01*
X38977506Y-43881463D01*
X38880815Y-43960815D01*
X38801463Y-44057506D01*
X38742498Y-44167820D01*
X38706188Y-44287518D01*
X38693928Y-44412000D01*
X37216157Y-44412000D01*
X38501159Y-43126999D01*
X57711001Y-43126999D01*
X57711002Y-46997287D01*
X57616063Y-47092226D01*
X57502795Y-47261744D01*
X57424774Y-47450102D01*
X57385000Y-47650061D01*
X57385000Y-47853939D01*
X57424774Y-48053898D01*
X57502795Y-48242256D01*
X57616063Y-48411774D01*
X57635000Y-48430711D01*
X57635001Y-66421000D01*
X49149000Y-66421000D01*
X49149000Y-47498000D01*
X49146560Y-47473224D01*
X49139333Y-47449399D01*
X49127597Y-47427443D01*
X49111803Y-47408197D01*
X49092557Y-47392403D01*
X49070601Y-47380667D01*
X49046776Y-47373440D01*
X49022000Y-47371000D01*
X26289000Y-47371000D01*
X26289000Y-37958665D01*
X30823000Y-37958665D01*
X30823000Y-38241335D01*
X30878147Y-38518574D01*
X30986320Y-38779727D01*
X31143363Y-39014759D01*
X31343241Y-39214637D01*
X31578273Y-39371680D01*
X31839426Y-39479853D01*
X32116665Y-39535000D01*
X32399335Y-39535000D01*
X32676574Y-39479853D01*
X32937727Y-39371680D01*
X33172759Y-39214637D01*
X33372637Y-39014759D01*
X33529680Y-38779727D01*
X33637853Y-38518574D01*
X33693000Y-38241335D01*
X33693000Y-37958665D01*
X33637853Y-37681426D01*
X33529680Y-37420273D01*
X33449317Y-37300000D01*
X38439928Y-37300000D01*
X38439928Y-38900000D01*
X38452188Y-39024482D01*
X38488498Y-39144180D01*
X38547463Y-39254494D01*
X38626815Y-39351185D01*
X38723506Y-39430537D01*
X38833820Y-39489502D01*
X38953518Y-39525812D01*
X39078000Y-39538072D01*
X40678000Y-39538072D01*
X40802482Y-39525812D01*
X40922180Y-39489502D01*
X41032494Y-39430537D01*
X41129185Y-39351185D01*
X41208537Y-39254494D01*
X41267502Y-39144180D01*
X41303812Y-39024482D01*
X41316072Y-38900000D01*
X41316072Y-37300000D01*
X41303812Y-37175518D01*
X41267502Y-37055820D01*
X41208537Y-36945506D01*
X41129185Y-36848815D01*
X41032494Y-36769463D01*
X40922180Y-36710498D01*
X40802482Y-36674188D01*
X40678000Y-36661928D01*
X39078000Y-36661928D01*
X38953518Y-36674188D01*
X38833820Y-36710498D01*
X38723506Y-36769463D01*
X38626815Y-36848815D01*
X38547463Y-36945506D01*
X38488498Y-37055820D01*
X38452188Y-37175518D01*
X38439928Y-37300000D01*
X33449317Y-37300000D01*
X33372637Y-37185241D01*
X33172759Y-36985363D01*
X32937727Y-36828320D01*
X32676574Y-36720147D01*
X32399335Y-36665000D01*
X32116665Y-36665000D01*
X31839426Y-36720147D01*
X31578273Y-36828320D01*
X31343241Y-36985363D01*
X31143363Y-37185241D01*
X30986320Y-37420273D01*
X30878147Y-37681426D01*
X30823000Y-37958665D01*
X26289000Y-37958665D01*
X26289000Y-21860000D01*
X28841928Y-21860000D01*
X28841928Y-23860000D01*
X28854188Y-23984482D01*
X28890498Y-24104180D01*
X28949463Y-24214494D01*
X29028815Y-24311185D01*
X29125506Y-24390537D01*
X29235820Y-24449502D01*
X29355518Y-24485812D01*
X29480000Y-24498072D01*
X31007915Y-24498072D01*
X45137653Y-38627810D01*
X45162236Y-38657764D01*
X45281767Y-38755862D01*
X45418140Y-38828754D01*
X45566113Y-38873642D01*
X45641026Y-38881020D01*
X45681439Y-38885000D01*
X45681444Y-38885000D01*
X45720000Y-38888797D01*
X45758556Y-38885000D01*
X53931289Y-38885000D01*
X53950226Y-38903937D01*
X54119744Y-39017205D01*
X54308102Y-39095226D01*
X54508061Y-39135000D01*
X54711939Y-39135000D01*
X54911898Y-39095226D01*
X55100256Y-39017205D01*
X55269774Y-38903937D01*
X55413937Y-38759774D01*
X55527205Y-38590256D01*
X55605226Y-38401898D01*
X55645000Y-38201939D01*
X55645000Y-37998061D01*
X55605226Y-37798102D01*
X55527205Y-37609744D01*
X55413937Y-37440226D01*
X55269774Y-37296063D01*
X55100256Y-37182795D01*
X54911898Y-37104774D01*
X54711939Y-37065000D01*
X54508061Y-37065000D01*
X54308102Y-37104774D01*
X54119744Y-37182795D01*
X53950226Y-37296063D01*
X53931289Y-37315000D01*
X47745328Y-37315000D01*
X47771000Y-37185939D01*
X47771000Y-36982061D01*
X47731226Y-36782102D01*
X47653205Y-36593744D01*
X47539937Y-36424226D01*
X47521000Y-36405289D01*
X47521000Y-34460711D01*
X47539937Y-34441774D01*
X47653205Y-34272256D01*
X47731226Y-34083898D01*
X47771000Y-33883939D01*
X47771000Y-33680061D01*
X47731226Y-33480102D01*
X47653205Y-33291744D01*
X47539937Y-33122226D01*
X47395774Y-32978063D01*
X47226256Y-32864795D01*
X47037898Y-32786774D01*
X46837939Y-32747000D01*
X46634061Y-32747000D01*
X46434102Y-32786774D01*
X46245744Y-32864795D01*
X46076226Y-32978063D01*
X45932063Y-33122226D01*
X45818795Y-33291744D01*
X45740774Y-33480102D01*
X45701000Y-33680061D01*
X45701000Y-33883939D01*
X45740774Y-34083898D01*
X45818795Y-34272256D01*
X45932063Y-34441774D01*
X45951001Y-34460712D01*
X45951000Y-36405289D01*
X45932063Y-36424226D01*
X45818795Y-36593744D01*
X45740774Y-36782102D01*
X45702861Y-36972704D01*
X32118072Y-23387915D01*
X32118072Y-22698967D01*
X33845000Y-22698967D01*
X33845000Y-23021033D01*
X33907832Y-23336912D01*
X34031082Y-23634463D01*
X34210013Y-23902252D01*
X34437748Y-24129987D01*
X34705537Y-24308918D01*
X35003088Y-24432168D01*
X35318967Y-24495000D01*
X35641033Y-24495000D01*
X35956912Y-24432168D01*
X36254463Y-24308918D01*
X36522252Y-24129987D01*
X36749987Y-23902252D01*
X36928918Y-23634463D01*
X37052168Y-23336912D01*
X37115000Y-23021033D01*
X37115000Y-22698967D01*
X37052168Y-22383088D01*
X36928918Y-22085537D01*
X36749987Y-21817748D01*
X36522252Y-21590013D01*
X36254463Y-21411082D01*
X35956912Y-21287832D01*
X35641033Y-21225000D01*
X35318967Y-21225000D01*
X35003088Y-21287832D01*
X34705537Y-21411082D01*
X34437748Y-21590013D01*
X34210013Y-21817748D01*
X34031082Y-22085537D01*
X33907832Y-22383088D01*
X33845000Y-22698967D01*
X32118072Y-22698967D01*
X32118072Y-21860000D01*
X32105812Y-21735518D01*
X32069502Y-21615820D01*
X32010537Y-21505506D01*
X31931185Y-21408815D01*
X31834494Y-21329463D01*
X31724180Y-21270498D01*
X31604482Y-21234188D01*
X31480000Y-21221928D01*
X29480000Y-21221928D01*
X29355518Y-21234188D01*
X29235820Y-21270498D01*
X29125506Y-21329463D01*
X29028815Y-21408815D01*
X28949463Y-21505506D01*
X28890498Y-21615820D01*
X28854188Y-21735518D01*
X28841928Y-21860000D01*
X26289000Y-21860000D01*
X26289000Y-18200000D01*
X64551928Y-18200000D01*
X64551928Y-19900000D01*
X64564188Y-20024482D01*
X64600498Y-20144180D01*
X64659463Y-20254494D01*
X64738815Y-20351185D01*
X64835506Y-20430537D01*
X64945820Y-20489502D01*
X65018380Y-20511513D01*
X64886525Y-20643368D01*
X64724010Y-20886589D01*
X64612068Y-21156842D01*
X64555000Y-21443740D01*
X64555000Y-21736260D01*
X64612068Y-22023158D01*
X64724010Y-22293411D01*
X64886525Y-22536632D01*
X65093368Y-22743475D01*
X65336589Y-22905990D01*
X65606842Y-23017932D01*
X65893740Y-23075000D01*
X66186260Y-23075000D01*
X66473158Y-23017932D01*
X66743411Y-22905990D01*
X66986632Y-22743475D01*
X67193475Y-22536632D01*
X67355990Y-22293411D01*
X67467932Y-22023158D01*
X67525000Y-21736260D01*
X67525000Y-21443740D01*
X67467932Y-21156842D01*
X67355990Y-20886589D01*
X67193475Y-20643368D01*
X67061620Y-20511513D01*
X67134180Y-20489502D01*
X67244494Y-20430537D01*
X67341185Y-20351185D01*
X67420537Y-20254494D01*
X67479502Y-20144180D01*
X67515812Y-20024482D01*
X67528072Y-19900000D01*
X67528072Y-18200000D01*
X67515812Y-18075518D01*
X67479502Y-17955820D01*
X67420537Y-17845506D01*
X67341185Y-17748815D01*
X67244494Y-17669463D01*
X67134180Y-17610498D01*
X67014482Y-17574188D01*
X66890000Y-17561928D01*
X65190000Y-17561928D01*
X65065518Y-17574188D01*
X64945820Y-17610498D01*
X64835506Y-17669463D01*
X64738815Y-17748815D01*
X64659463Y-17845506D01*
X64600498Y-17955820D01*
X64564188Y-18075518D01*
X64551928Y-18200000D01*
X26289000Y-18200000D01*
X26289000Y-13588584D01*
X27527336Y-13584524D01*
X27254837Y-13857023D01*
X27017412Y-14212355D01*
X26853870Y-14607179D01*
X26770497Y-15026323D01*
X26770497Y-15453677D01*
X26853870Y-15872821D01*
X27017412Y-16267645D01*
X27254837Y-16622977D01*
X27557023Y-16925163D01*
X27912355Y-17162588D01*
X28307179Y-17326130D01*
X28726323Y-17409503D01*
X29153677Y-17409503D01*
X29572821Y-17326130D01*
X29967645Y-17162588D01*
X30322977Y-16925163D01*
X30625163Y-16622977D01*
X30862588Y-16267645D01*
X31026130Y-15872821D01*
X31109503Y-15453677D01*
X31109503Y-15026323D01*
X31026130Y-14607179D01*
X30862588Y-14212355D01*
X30625163Y-13857023D01*
X30343431Y-13575291D01*
X96007179Y-13360000D01*
X99508617Y-13360000D01*
X99217023Y-13554837D01*
%TO.N,GND3*%
G36*
X29083814Y-78095669D02*
G01*
X29337003Y-114554882D01*
X29339615Y-114579641D01*
X29347008Y-114603414D01*
X29358896Y-114625289D01*
X29374823Y-114644424D01*
X29394178Y-114660084D01*
X29416215Y-114671667D01*
X29440089Y-114678729D01*
X29463543Y-114680999D01*
X41818402Y-114725441D01*
X36706483Y-119837360D01*
X36403033Y-119777000D01*
X36080967Y-119777000D01*
X35765088Y-119839832D01*
X35467537Y-119963082D01*
X35199748Y-120142013D01*
X34972013Y-120369748D01*
X34793082Y-120637537D01*
X34669832Y-120935088D01*
X34607000Y-121250967D01*
X34607000Y-121573033D01*
X34669832Y-121888912D01*
X34793082Y-122186463D01*
X34972013Y-122454252D01*
X35199748Y-122681987D01*
X35467537Y-122860918D01*
X35765088Y-122984168D01*
X36080967Y-123047000D01*
X36403033Y-123047000D01*
X36718912Y-122984168D01*
X37016463Y-122860918D01*
X37284252Y-122681987D01*
X37511987Y-122454252D01*
X37690918Y-122186463D01*
X37814168Y-121888912D01*
X37877000Y-121573033D01*
X37877000Y-121250967D01*
X37816640Y-120947517D01*
X44030758Y-114733399D01*
X60120567Y-114791276D01*
X59670190Y-115241653D01*
X59640236Y-115266236D01*
X59542138Y-115385768D01*
X59469246Y-115522141D01*
X59424359Y-115670114D01*
X59413000Y-115785440D01*
X59413000Y-115785447D01*
X59409203Y-115824000D01*
X59413000Y-115862553D01*
X59413001Y-124543288D01*
X59394063Y-124562226D01*
X59280795Y-124731744D01*
X59202774Y-124920102D01*
X59163000Y-125120061D01*
X59163000Y-125323939D01*
X59202774Y-125523898D01*
X59280795Y-125712256D01*
X59394063Y-125881774D01*
X59413000Y-125900711D01*
X59413001Y-132925288D01*
X59394063Y-132944226D01*
X59280795Y-133113744D01*
X59202774Y-133302102D01*
X59163000Y-133502061D01*
X59163000Y-133705939D01*
X59202774Y-133905898D01*
X59280795Y-134094256D01*
X59394063Y-134263774D01*
X59538226Y-134407937D01*
X59707744Y-134521205D01*
X59896102Y-134599226D01*
X60096061Y-134639000D01*
X60299939Y-134639000D01*
X60499898Y-134599226D01*
X60688256Y-134521205D01*
X60857774Y-134407937D01*
X61001937Y-134263774D01*
X61115205Y-134094256D01*
X61193226Y-133905898D01*
X61233000Y-133705939D01*
X61233000Y-133502061D01*
X61193226Y-133302102D01*
X61115205Y-133113744D01*
X61001937Y-132944226D01*
X60983000Y-132925289D01*
X60983000Y-132626000D01*
X66125928Y-132626000D01*
X66138188Y-132750482D01*
X66174498Y-132870180D01*
X66233463Y-132980494D01*
X66312815Y-133077185D01*
X66409506Y-133156537D01*
X66519820Y-133215502D01*
X66639518Y-133251812D01*
X66764000Y-133264072D01*
X67278250Y-133261000D01*
X67437000Y-133102250D01*
X67437000Y-131953000D01*
X66287750Y-131953000D01*
X66129000Y-132111750D01*
X66125928Y-132626000D01*
X60983000Y-132626000D01*
X60983000Y-131026000D01*
X66125928Y-131026000D01*
X66129000Y-131540250D01*
X66287750Y-131699000D01*
X67437000Y-131699000D01*
X67437000Y-130549750D01*
X67691000Y-130549750D01*
X67691000Y-131699000D01*
X67711000Y-131699000D01*
X67711000Y-131953000D01*
X67691000Y-131953000D01*
X67691000Y-133102250D01*
X67849750Y-133261000D01*
X68364000Y-133264072D01*
X68488482Y-133251812D01*
X68608180Y-133215502D01*
X68718494Y-133156537D01*
X68815185Y-133077185D01*
X68828790Y-133060607D01*
X68884273Y-133097680D01*
X69145426Y-133205853D01*
X69422665Y-133261000D01*
X69705335Y-133261000D01*
X69982574Y-133205853D01*
X70243727Y-133097680D01*
X70478759Y-132940637D01*
X70678637Y-132740759D01*
X70835680Y-132505727D01*
X70943853Y-132244574D01*
X70999000Y-131967335D01*
X70999000Y-131684665D01*
X70943853Y-131407426D01*
X70835680Y-131146273D01*
X70678637Y-130911241D01*
X70478759Y-130711363D01*
X70243727Y-130554320D01*
X69982574Y-130446147D01*
X69705335Y-130391000D01*
X69422665Y-130391000D01*
X69145426Y-130446147D01*
X68884273Y-130554320D01*
X68828790Y-130591393D01*
X68815185Y-130574815D01*
X68718494Y-130495463D01*
X68608180Y-130436498D01*
X68488482Y-130400188D01*
X68364000Y-130387928D01*
X67849750Y-130391000D01*
X67691000Y-130549750D01*
X67437000Y-130549750D01*
X67278250Y-130391000D01*
X66764000Y-130387928D01*
X66639518Y-130400188D01*
X66519820Y-130436498D01*
X66409506Y-130495463D01*
X66312815Y-130574815D01*
X66233463Y-130671506D01*
X66174498Y-130781820D01*
X66138188Y-130901518D01*
X66125928Y-131026000D01*
X60983000Y-131026000D01*
X60983000Y-125900711D01*
X61001937Y-125881774D01*
X61115205Y-125712256D01*
X61193226Y-125523898D01*
X61233000Y-125323939D01*
X61233000Y-125120061D01*
X61193226Y-124920102D01*
X61115205Y-124731744D01*
X61001937Y-124562226D01*
X60983000Y-124543289D01*
X60983000Y-123990000D01*
X96859928Y-123990000D01*
X96872188Y-124114482D01*
X96908498Y-124234180D01*
X96967463Y-124344494D01*
X97046815Y-124441185D01*
X97143506Y-124520537D01*
X97253820Y-124579502D01*
X97373518Y-124615812D01*
X97498000Y-124628072D01*
X98012250Y-124625000D01*
X98171000Y-124466250D01*
X98171000Y-123317000D01*
X97021750Y-123317000D01*
X96863000Y-123475750D01*
X96859928Y-123990000D01*
X60983000Y-123990000D01*
X60983000Y-117768000D01*
X68361928Y-117768000D01*
X68361928Y-119468000D01*
X68374188Y-119592482D01*
X68410498Y-119712180D01*
X68469463Y-119822494D01*
X68548815Y-119919185D01*
X68645506Y-119998537D01*
X68755820Y-120057502D01*
X68828380Y-120079513D01*
X68696525Y-120211368D01*
X68534010Y-120454589D01*
X68422068Y-120724842D01*
X68365000Y-121011740D01*
X68365000Y-121304260D01*
X68422068Y-121591158D01*
X68534010Y-121861411D01*
X68696525Y-122104632D01*
X68903368Y-122311475D01*
X69146589Y-122473990D01*
X69416842Y-122585932D01*
X69703740Y-122643000D01*
X69996260Y-122643000D01*
X70283158Y-122585932D01*
X70553411Y-122473990D01*
X70679110Y-122390000D01*
X96859928Y-122390000D01*
X96863000Y-122904250D01*
X97021750Y-123063000D01*
X98171000Y-123063000D01*
X98171000Y-121913750D01*
X98425000Y-121913750D01*
X98425000Y-123063000D01*
X98445000Y-123063000D01*
X98445000Y-123317000D01*
X98425000Y-123317000D01*
X98425000Y-124466250D01*
X98583750Y-124625000D01*
X99098000Y-124628072D01*
X99222482Y-124615812D01*
X99342180Y-124579502D01*
X99452494Y-124520537D01*
X99549185Y-124441185D01*
X99562790Y-124424607D01*
X99618273Y-124461680D01*
X99879426Y-124569853D01*
X100156665Y-124625000D01*
X100439335Y-124625000D01*
X100716574Y-124569853D01*
X100977727Y-124461680D01*
X101212759Y-124304637D01*
X101412637Y-124104759D01*
X101569680Y-123869727D01*
X101677853Y-123608574D01*
X101733000Y-123331335D01*
X101733000Y-123048665D01*
X101677853Y-122771426D01*
X101569680Y-122510273D01*
X101412637Y-122275241D01*
X101212759Y-122075363D01*
X100977727Y-121918320D01*
X100716574Y-121810147D01*
X100439335Y-121755000D01*
X100156665Y-121755000D01*
X99879426Y-121810147D01*
X99618273Y-121918320D01*
X99562790Y-121955393D01*
X99549185Y-121938815D01*
X99452494Y-121859463D01*
X99342180Y-121800498D01*
X99222482Y-121764188D01*
X99098000Y-121751928D01*
X98583750Y-121755000D01*
X98425000Y-121913750D01*
X98171000Y-121913750D01*
X98012250Y-121755000D01*
X97498000Y-121751928D01*
X97373518Y-121764188D01*
X97253820Y-121800498D01*
X97143506Y-121859463D01*
X97046815Y-121938815D01*
X96967463Y-122035506D01*
X96908498Y-122145820D01*
X96872188Y-122265518D01*
X96859928Y-122390000D01*
X70679110Y-122390000D01*
X70796632Y-122311475D01*
X71003475Y-122104632D01*
X71165990Y-121861411D01*
X71277932Y-121591158D01*
X71335000Y-121304260D01*
X71335000Y-121011740D01*
X71277932Y-120724842D01*
X71165990Y-120454589D01*
X71003475Y-120211368D01*
X70871620Y-120079513D01*
X70944180Y-120057502D01*
X71054494Y-119998537D01*
X71151185Y-119919185D01*
X71230537Y-119822494D01*
X71289502Y-119712180D01*
X71325812Y-119592482D01*
X71338072Y-119468000D01*
X71338072Y-117768000D01*
X71325812Y-117643518D01*
X71289502Y-117523820D01*
X71230537Y-117413506D01*
X71151185Y-117316815D01*
X71054494Y-117237463D01*
X70944180Y-117178498D01*
X70824482Y-117142188D01*
X70700000Y-117129928D01*
X69000000Y-117129928D01*
X68875518Y-117142188D01*
X68755820Y-117178498D01*
X68645506Y-117237463D01*
X68548815Y-117316815D01*
X68469463Y-117413506D01*
X68410498Y-117523820D01*
X68374188Y-117643518D01*
X68361928Y-117768000D01*
X60983000Y-117768000D01*
X60983000Y-116149157D01*
X62332923Y-114799234D01*
X86191928Y-114885058D01*
X86191928Y-115100000D01*
X86204188Y-115224482D01*
X86240498Y-115344180D01*
X86299463Y-115454494D01*
X86378815Y-115551185D01*
X86395393Y-115564790D01*
X86358320Y-115620273D01*
X86250147Y-115881426D01*
X86195000Y-116158665D01*
X86195000Y-116441335D01*
X86250147Y-116718574D01*
X86358320Y-116979727D01*
X86515363Y-117214759D01*
X86715241Y-117414637D01*
X86950273Y-117571680D01*
X87211426Y-117679853D01*
X87488665Y-117735000D01*
X87771335Y-117735000D01*
X88048574Y-117679853D01*
X88309727Y-117571680D01*
X88544759Y-117414637D01*
X88744637Y-117214759D01*
X88901680Y-116979727D01*
X89009853Y-116718574D01*
X89065000Y-116441335D01*
X89065000Y-116158665D01*
X89009853Y-115881426D01*
X88901680Y-115620273D01*
X88864607Y-115564790D01*
X88881185Y-115551185D01*
X88960537Y-115454494D01*
X89019502Y-115344180D01*
X89055812Y-115224482D01*
X89068072Y-115100000D01*
X89068072Y-114895404D01*
X100075543Y-114934999D01*
X100100328Y-114932648D01*
X100124178Y-114925507D01*
X100146177Y-114913850D01*
X100165479Y-114898125D01*
X100181342Y-114878937D01*
X100193157Y-114857023D01*
X100200470Y-114833224D01*
X100203000Y-114808000D01*
X100203000Y-78105000D01*
X103480000Y-78105000D01*
X103480001Y-146939000D01*
X26060000Y-146939000D01*
X26060000Y-141336665D01*
X29553000Y-141336665D01*
X29553000Y-141619335D01*
X29608147Y-141896574D01*
X29716320Y-142157727D01*
X29873363Y-142392759D01*
X30073241Y-142592637D01*
X30308273Y-142749680D01*
X30569426Y-142857853D01*
X30846665Y-142913000D01*
X31129335Y-142913000D01*
X31406574Y-142857853D01*
X31667727Y-142749680D01*
X31902759Y-142592637D01*
X32102637Y-142392759D01*
X32259680Y-142157727D01*
X32367853Y-141896574D01*
X32423000Y-141619335D01*
X32423000Y-141336665D01*
X32392554Y-141183603D01*
X32898157Y-140678000D01*
X37169928Y-140678000D01*
X37169928Y-142278000D01*
X37182188Y-142402482D01*
X37218498Y-142522180D01*
X37277463Y-142632494D01*
X37356815Y-142729185D01*
X37453506Y-142808537D01*
X37563820Y-142867502D01*
X37683518Y-142903812D01*
X37808000Y-142916072D01*
X39408000Y-142916072D01*
X39532482Y-142903812D01*
X39652180Y-142867502D01*
X39762494Y-142808537D01*
X39859185Y-142729185D01*
X39938537Y-142632494D01*
X39997502Y-142522180D01*
X40033812Y-142402482D01*
X40046072Y-142278000D01*
X40046072Y-140678000D01*
X40033812Y-140553518D01*
X39997502Y-140433820D01*
X39938537Y-140323506D01*
X39859185Y-140226815D01*
X39762494Y-140147463D01*
X39652180Y-140088498D01*
X39532482Y-140052188D01*
X39408000Y-140039928D01*
X37808000Y-140039928D01*
X37683518Y-140052188D01*
X37563820Y-140088498D01*
X37453506Y-140147463D01*
X37356815Y-140226815D01*
X37277463Y-140323506D01*
X37218498Y-140433820D01*
X37182188Y-140553518D01*
X37169928Y-140678000D01*
X32898157Y-140678000D01*
X38799157Y-134777001D01*
X46055446Y-134777001D01*
X46093999Y-134780798D01*
X46132552Y-134777001D01*
X46132560Y-134777001D01*
X46247886Y-134765642D01*
X46395859Y-134720755D01*
X46532232Y-134647863D01*
X46651763Y-134549765D01*
X46676346Y-134519811D01*
X47117000Y-134079157D01*
X51539001Y-138501159D01*
X51539000Y-143725447D01*
X51535203Y-143764000D01*
X51539000Y-143802553D01*
X51539000Y-143802560D01*
X51550359Y-143917886D01*
X51595246Y-144065859D01*
X51668138Y-144202232D01*
X51766236Y-144321764D01*
X51796190Y-144346347D01*
X52813000Y-145363158D01*
X52813000Y-145389939D01*
X52852774Y-145589898D01*
X52930795Y-145778256D01*
X53044063Y-145947774D01*
X53188226Y-146091937D01*
X53357744Y-146205205D01*
X53546102Y-146283226D01*
X53746061Y-146323000D01*
X53949939Y-146323000D01*
X54149898Y-146283226D01*
X54338256Y-146205205D01*
X54507774Y-146091937D01*
X54651937Y-145947774D01*
X54765205Y-145778256D01*
X54843226Y-145589898D01*
X54883000Y-145389939D01*
X54883000Y-145186061D01*
X54843226Y-144986102D01*
X54765205Y-144797744D01*
X54651937Y-144628226D01*
X54507774Y-144484063D01*
X54338256Y-144370795D01*
X54149898Y-144292774D01*
X53949939Y-144253000D01*
X53923158Y-144253000D01*
X53109000Y-143438843D01*
X53109000Y-138214552D01*
X53112797Y-138175999D01*
X53109000Y-138137446D01*
X53109000Y-138137439D01*
X53097641Y-138022113D01*
X53052754Y-137874140D01*
X52979862Y-137737767D01*
X52881764Y-137618236D01*
X52851816Y-137593658D01*
X52824219Y-137566061D01*
X71101000Y-137566061D01*
X71101000Y-137769939D01*
X71140774Y-137969898D01*
X71218795Y-138158256D01*
X71332063Y-138327774D01*
X71351000Y-138346711D01*
X71351001Y-140799288D01*
X71332063Y-140818226D01*
X71218795Y-140987744D01*
X71140774Y-141176102D01*
X71101000Y-141376061D01*
X71101000Y-141579939D01*
X71140774Y-141779898D01*
X71218795Y-141968256D01*
X71332063Y-142137774D01*
X71476226Y-142281937D01*
X71645744Y-142395205D01*
X71834102Y-142473226D01*
X72034061Y-142513000D01*
X72237939Y-142513000D01*
X72437898Y-142473226D01*
X72626256Y-142395205D01*
X72795774Y-142281937D01*
X72939937Y-142137774D01*
X73053205Y-141968256D01*
X73131226Y-141779898D01*
X73171000Y-141579939D01*
X73171000Y-141376061D01*
X73131226Y-141176102D01*
X73053205Y-140987744D01*
X72939937Y-140818226D01*
X72921000Y-140799289D01*
X72921000Y-138346711D01*
X72939937Y-138327774D01*
X73053205Y-138158256D01*
X73131226Y-137969898D01*
X73171000Y-137769939D01*
X73171000Y-137566061D01*
X73131226Y-137366102D01*
X73053205Y-137177744D01*
X72939937Y-137008226D01*
X72795774Y-136864063D01*
X72626256Y-136750795D01*
X72437898Y-136672774D01*
X72237939Y-136633000D01*
X72034061Y-136633000D01*
X71834102Y-136672774D01*
X71645744Y-136750795D01*
X71476226Y-136864063D01*
X71332063Y-137008226D01*
X71218795Y-137177744D01*
X71140774Y-137366102D01*
X71101000Y-137566061D01*
X52824219Y-137566061D01*
X47902000Y-132643843D01*
X47902000Y-128313711D01*
X47920937Y-128294774D01*
X48034205Y-128125256D01*
X48112226Y-127936898D01*
X48152000Y-127736939D01*
X48152000Y-127533061D01*
X48112226Y-127333102D01*
X48034205Y-127144744D01*
X47920937Y-126975226D01*
X47776774Y-126831063D01*
X47607256Y-126717795D01*
X47418898Y-126639774D01*
X47218939Y-126600000D01*
X47015061Y-126600000D01*
X46815102Y-126639774D01*
X46626744Y-126717795D01*
X46457226Y-126831063D01*
X46313063Y-126975226D01*
X46199795Y-127144744D01*
X46121774Y-127333102D01*
X46082000Y-127533061D01*
X46082000Y-127736939D01*
X46121774Y-127936898D01*
X46199795Y-128125256D01*
X46313063Y-128294774D01*
X46332001Y-128313712D01*
X46332000Y-132643843D01*
X45768842Y-133207001D01*
X45673088Y-133207001D01*
X45699226Y-133143898D01*
X45739000Y-132943939D01*
X45739000Y-132740061D01*
X45699226Y-132540102D01*
X45621205Y-132351744D01*
X45507937Y-132182226D01*
X45489000Y-132163289D01*
X45489000Y-125900711D01*
X45507937Y-125881774D01*
X45621205Y-125712256D01*
X45699226Y-125523898D01*
X45739000Y-125323939D01*
X45739000Y-125120061D01*
X45699226Y-124920102D01*
X45621205Y-124731744D01*
X45507937Y-124562226D01*
X45363774Y-124418063D01*
X45194256Y-124304795D01*
X45005898Y-124226774D01*
X44805939Y-124187000D01*
X44602061Y-124187000D01*
X44402102Y-124226774D01*
X44213744Y-124304795D01*
X44044226Y-124418063D01*
X43900063Y-124562226D01*
X43786795Y-124731744D01*
X43708774Y-124920102D01*
X43669000Y-125120061D01*
X43669000Y-125323939D01*
X43708774Y-125523898D01*
X43786795Y-125712256D01*
X43900063Y-125881774D01*
X43919001Y-125900712D01*
X43919000Y-132163289D01*
X43900063Y-132182226D01*
X43786795Y-132351744D01*
X43708774Y-132540102D01*
X43669000Y-132740061D01*
X43669000Y-132943939D01*
X43708774Y-133143898D01*
X43734912Y-133207001D01*
X40046072Y-133207001D01*
X40046072Y-132042000D01*
X40033812Y-131917518D01*
X39997502Y-131797820D01*
X39938537Y-131687506D01*
X39859185Y-131590815D01*
X39762494Y-131511463D01*
X39652180Y-131452498D01*
X39532482Y-131416188D01*
X39408000Y-131403928D01*
X37808000Y-131403928D01*
X37683518Y-131416188D01*
X37563820Y-131452498D01*
X37453506Y-131511463D01*
X37356815Y-131590815D01*
X37277463Y-131687506D01*
X37218498Y-131797820D01*
X37182188Y-131917518D01*
X37169928Y-132042000D01*
X37169928Y-133642000D01*
X37182188Y-133766482D01*
X37218498Y-133886180D01*
X37277463Y-133996494D01*
X37314373Y-134041469D01*
X31282397Y-140073446D01*
X31129335Y-140043000D01*
X30846665Y-140043000D01*
X30569426Y-140098147D01*
X30308273Y-140206320D01*
X30073241Y-140363363D01*
X29873363Y-140563241D01*
X29716320Y-140798273D01*
X29608147Y-141059426D01*
X29553000Y-141336665D01*
X26060000Y-141336665D01*
X26060000Y-132700665D01*
X29553000Y-132700665D01*
X29553000Y-132983335D01*
X29608147Y-133260574D01*
X29716320Y-133521727D01*
X29873363Y-133756759D01*
X30073241Y-133956637D01*
X30308273Y-134113680D01*
X30569426Y-134221853D01*
X30846665Y-134277000D01*
X31129335Y-134277000D01*
X31406574Y-134221853D01*
X31667727Y-134113680D01*
X31902759Y-133956637D01*
X32102637Y-133756759D01*
X32259680Y-133521727D01*
X32367853Y-133260574D01*
X32423000Y-132983335D01*
X32423000Y-132700665D01*
X32367853Y-132423426D01*
X32259680Y-132162273D01*
X32102637Y-131927241D01*
X31902759Y-131727363D01*
X31667727Y-131570320D01*
X31406574Y-131462147D01*
X31129335Y-131407000D01*
X30846665Y-131407000D01*
X30569426Y-131462147D01*
X30308273Y-131570320D01*
X30073241Y-131727363D01*
X29873363Y-131927241D01*
X29716320Y-132162273D01*
X29608147Y-132423426D01*
X29553000Y-132700665D01*
X26060000Y-132700665D01*
X26060000Y-120412000D01*
X29603928Y-120412000D01*
X29603928Y-122412000D01*
X29616188Y-122536482D01*
X29652498Y-122656180D01*
X29711463Y-122766494D01*
X29790815Y-122863185D01*
X29887506Y-122942537D01*
X29997820Y-123001502D01*
X30117518Y-123037812D01*
X30242000Y-123050072D01*
X32242000Y-123050072D01*
X32366482Y-123037812D01*
X32486180Y-123001502D01*
X32596494Y-122942537D01*
X32693185Y-122863185D01*
X32772537Y-122766494D01*
X32831502Y-122656180D01*
X32867812Y-122536482D01*
X32880072Y-122412000D01*
X32880072Y-120412000D01*
X32867812Y-120287518D01*
X32831502Y-120167820D01*
X32772537Y-120057506D01*
X32693185Y-119960815D01*
X32596494Y-119881463D01*
X32486180Y-119822498D01*
X32366482Y-119786188D01*
X32242000Y-119773928D01*
X30242000Y-119773928D01*
X30117518Y-119786188D01*
X29997820Y-119822498D01*
X29887506Y-119881463D01*
X29790815Y-119960815D01*
X29711463Y-120057506D01*
X29652498Y-120167820D01*
X29616188Y-120287518D01*
X29603928Y-120412000D01*
X26060000Y-120412000D01*
X26060000Y-77863068D01*
X29083814Y-78095669D01*
G37*
X29083814Y-78095669D02*
X29337003Y-114554882D01*
X29339615Y-114579641D01*
X29347008Y-114603414D01*
X29358896Y-114625289D01*
X29374823Y-114644424D01*
X29394178Y-114660084D01*
X29416215Y-114671667D01*
X29440089Y-114678729D01*
X29463543Y-114680999D01*
X41818402Y-114725441D01*
X36706483Y-119837360D01*
X36403033Y-119777000D01*
X36080967Y-119777000D01*
X35765088Y-119839832D01*
X35467537Y-119963082D01*
X35199748Y-120142013D01*
X34972013Y-120369748D01*
X34793082Y-120637537D01*
X34669832Y-120935088D01*
X34607000Y-121250967D01*
X34607000Y-121573033D01*
X34669832Y-121888912D01*
X34793082Y-122186463D01*
X34972013Y-122454252D01*
X35199748Y-122681987D01*
X35467537Y-122860918D01*
X35765088Y-122984168D01*
X36080967Y-123047000D01*
X36403033Y-123047000D01*
X36718912Y-122984168D01*
X37016463Y-122860918D01*
X37284252Y-122681987D01*
X37511987Y-122454252D01*
X37690918Y-122186463D01*
X37814168Y-121888912D01*
X37877000Y-121573033D01*
X37877000Y-121250967D01*
X37816640Y-120947517D01*
X44030758Y-114733399D01*
X60120567Y-114791276D01*
X59670190Y-115241653D01*
X59640236Y-115266236D01*
X59542138Y-115385768D01*
X59469246Y-115522141D01*
X59424359Y-115670114D01*
X59413000Y-115785440D01*
X59413000Y-115785447D01*
X59409203Y-115824000D01*
X59413000Y-115862553D01*
X59413001Y-124543288D01*
X59394063Y-124562226D01*
X59280795Y-124731744D01*
X59202774Y-124920102D01*
X59163000Y-125120061D01*
X59163000Y-125323939D01*
X59202774Y-125523898D01*
X59280795Y-125712256D01*
X59394063Y-125881774D01*
X59413000Y-125900711D01*
X59413001Y-132925288D01*
X59394063Y-132944226D01*
X59280795Y-133113744D01*
X59202774Y-133302102D01*
X59163000Y-133502061D01*
X59163000Y-133705939D01*
X59202774Y-133905898D01*
X59280795Y-134094256D01*
X59394063Y-134263774D01*
X59538226Y-134407937D01*
X59707744Y-134521205D01*
X59896102Y-134599226D01*
X60096061Y-134639000D01*
X60299939Y-134639000D01*
X60499898Y-134599226D01*
X60688256Y-134521205D01*
X60857774Y-134407937D01*
X61001937Y-134263774D01*
X61115205Y-134094256D01*
X61193226Y-133905898D01*
X61233000Y-133705939D01*
X61233000Y-133502061D01*
X61193226Y-133302102D01*
X61115205Y-133113744D01*
X61001937Y-132944226D01*
X60983000Y-132925289D01*
X60983000Y-132626000D01*
X66125928Y-132626000D01*
X66138188Y-132750482D01*
X66174498Y-132870180D01*
X66233463Y-132980494D01*
X66312815Y-133077185D01*
X66409506Y-133156537D01*
X66519820Y-133215502D01*
X66639518Y-133251812D01*
X66764000Y-133264072D01*
X67278250Y-133261000D01*
X67437000Y-133102250D01*
X67437000Y-131953000D01*
X66287750Y-131953000D01*
X66129000Y-132111750D01*
X66125928Y-132626000D01*
X60983000Y-132626000D01*
X60983000Y-131026000D01*
X66125928Y-131026000D01*
X66129000Y-131540250D01*
X66287750Y-131699000D01*
X67437000Y-131699000D01*
X67437000Y-130549750D01*
X67691000Y-130549750D01*
X67691000Y-131699000D01*
X67711000Y-131699000D01*
X67711000Y-131953000D01*
X67691000Y-131953000D01*
X67691000Y-133102250D01*
X67849750Y-133261000D01*
X68364000Y-133264072D01*
X68488482Y-133251812D01*
X68608180Y-133215502D01*
X68718494Y-133156537D01*
X68815185Y-133077185D01*
X68828790Y-133060607D01*
X68884273Y-133097680D01*
X69145426Y-133205853D01*
X69422665Y-133261000D01*
X69705335Y-133261000D01*
X69982574Y-133205853D01*
X70243727Y-133097680D01*
X70478759Y-132940637D01*
X70678637Y-132740759D01*
X70835680Y-132505727D01*
X70943853Y-132244574D01*
X70999000Y-131967335D01*
X70999000Y-131684665D01*
X70943853Y-131407426D01*
X70835680Y-131146273D01*
X70678637Y-130911241D01*
X70478759Y-130711363D01*
X70243727Y-130554320D01*
X69982574Y-130446147D01*
X69705335Y-130391000D01*
X69422665Y-130391000D01*
X69145426Y-130446147D01*
X68884273Y-130554320D01*
X68828790Y-130591393D01*
X68815185Y-130574815D01*
X68718494Y-130495463D01*
X68608180Y-130436498D01*
X68488482Y-130400188D01*
X68364000Y-130387928D01*
X67849750Y-130391000D01*
X67691000Y-130549750D01*
X67437000Y-130549750D01*
X67278250Y-130391000D01*
X66764000Y-130387928D01*
X66639518Y-130400188D01*
X66519820Y-130436498D01*
X66409506Y-130495463D01*
X66312815Y-130574815D01*
X66233463Y-130671506D01*
X66174498Y-130781820D01*
X66138188Y-130901518D01*
X66125928Y-131026000D01*
X60983000Y-131026000D01*
X60983000Y-125900711D01*
X61001937Y-125881774D01*
X61115205Y-125712256D01*
X61193226Y-125523898D01*
X61233000Y-125323939D01*
X61233000Y-125120061D01*
X61193226Y-124920102D01*
X61115205Y-124731744D01*
X61001937Y-124562226D01*
X60983000Y-124543289D01*
X60983000Y-123990000D01*
X96859928Y-123990000D01*
X96872188Y-124114482D01*
X96908498Y-124234180D01*
X96967463Y-124344494D01*
X97046815Y-124441185D01*
X97143506Y-124520537D01*
X97253820Y-124579502D01*
X97373518Y-124615812D01*
X97498000Y-124628072D01*
X98012250Y-124625000D01*
X98171000Y-124466250D01*
X98171000Y-123317000D01*
X97021750Y-123317000D01*
X96863000Y-123475750D01*
X96859928Y-123990000D01*
X60983000Y-123990000D01*
X60983000Y-117768000D01*
X68361928Y-117768000D01*
X68361928Y-119468000D01*
X68374188Y-119592482D01*
X68410498Y-119712180D01*
X68469463Y-119822494D01*
X68548815Y-119919185D01*
X68645506Y-119998537D01*
X68755820Y-120057502D01*
X68828380Y-120079513D01*
X68696525Y-120211368D01*
X68534010Y-120454589D01*
X68422068Y-120724842D01*
X68365000Y-121011740D01*
X68365000Y-121304260D01*
X68422068Y-121591158D01*
X68534010Y-121861411D01*
X68696525Y-122104632D01*
X68903368Y-122311475D01*
X69146589Y-122473990D01*
X69416842Y-122585932D01*
X69703740Y-122643000D01*
X69996260Y-122643000D01*
X70283158Y-122585932D01*
X70553411Y-122473990D01*
X70679110Y-122390000D01*
X96859928Y-122390000D01*
X96863000Y-122904250D01*
X97021750Y-123063000D01*
X98171000Y-123063000D01*
X98171000Y-121913750D01*
X98425000Y-121913750D01*
X98425000Y-123063000D01*
X98445000Y-123063000D01*
X98445000Y-123317000D01*
X98425000Y-123317000D01*
X98425000Y-124466250D01*
X98583750Y-124625000D01*
X99098000Y-124628072D01*
X99222482Y-124615812D01*
X99342180Y-124579502D01*
X99452494Y-124520537D01*
X99549185Y-124441185D01*
X99562790Y-124424607D01*
X99618273Y-124461680D01*
X99879426Y-124569853D01*
X100156665Y-124625000D01*
X100439335Y-124625000D01*
X100716574Y-124569853D01*
X100977727Y-124461680D01*
X101212759Y-124304637D01*
X101412637Y-124104759D01*
X101569680Y-123869727D01*
X101677853Y-123608574D01*
X101733000Y-123331335D01*
X101733000Y-123048665D01*
X101677853Y-122771426D01*
X101569680Y-122510273D01*
X101412637Y-122275241D01*
X101212759Y-122075363D01*
X100977727Y-121918320D01*
X100716574Y-121810147D01*
X100439335Y-121755000D01*
X100156665Y-121755000D01*
X99879426Y-121810147D01*
X99618273Y-121918320D01*
X99562790Y-121955393D01*
X99549185Y-121938815D01*
X99452494Y-121859463D01*
X99342180Y-121800498D01*
X99222482Y-121764188D01*
X99098000Y-121751928D01*
X98583750Y-121755000D01*
X98425000Y-121913750D01*
X98171000Y-121913750D01*
X98012250Y-121755000D01*
X97498000Y-121751928D01*
X97373518Y-121764188D01*
X97253820Y-121800498D01*
X97143506Y-121859463D01*
X97046815Y-121938815D01*
X96967463Y-122035506D01*
X96908498Y-122145820D01*
X96872188Y-122265518D01*
X96859928Y-122390000D01*
X70679110Y-122390000D01*
X70796632Y-122311475D01*
X71003475Y-122104632D01*
X71165990Y-121861411D01*
X71277932Y-121591158D01*
X71335000Y-121304260D01*
X71335000Y-121011740D01*
X71277932Y-120724842D01*
X71165990Y-120454589D01*
X71003475Y-120211368D01*
X70871620Y-120079513D01*
X70944180Y-120057502D01*
X71054494Y-119998537D01*
X71151185Y-119919185D01*
X71230537Y-119822494D01*
X71289502Y-119712180D01*
X71325812Y-119592482D01*
X71338072Y-119468000D01*
X71338072Y-117768000D01*
X71325812Y-117643518D01*
X71289502Y-117523820D01*
X71230537Y-117413506D01*
X71151185Y-117316815D01*
X71054494Y-117237463D01*
X70944180Y-117178498D01*
X70824482Y-117142188D01*
X70700000Y-117129928D01*
X69000000Y-117129928D01*
X68875518Y-117142188D01*
X68755820Y-117178498D01*
X68645506Y-117237463D01*
X68548815Y-117316815D01*
X68469463Y-117413506D01*
X68410498Y-117523820D01*
X68374188Y-117643518D01*
X68361928Y-117768000D01*
X60983000Y-117768000D01*
X60983000Y-116149157D01*
X62332923Y-114799234D01*
X86191928Y-114885058D01*
X86191928Y-115100000D01*
X86204188Y-115224482D01*
X86240498Y-115344180D01*
X86299463Y-115454494D01*
X86378815Y-115551185D01*
X86395393Y-115564790D01*
X86358320Y-115620273D01*
X86250147Y-115881426D01*
X86195000Y-116158665D01*
X86195000Y-116441335D01*
X86250147Y-116718574D01*
X86358320Y-116979727D01*
X86515363Y-117214759D01*
X86715241Y-117414637D01*
X86950273Y-117571680D01*
X87211426Y-117679853D01*
X87488665Y-117735000D01*
X87771335Y-117735000D01*
X88048574Y-117679853D01*
X88309727Y-117571680D01*
X88544759Y-117414637D01*
X88744637Y-117214759D01*
X88901680Y-116979727D01*
X89009853Y-116718574D01*
X89065000Y-116441335D01*
X89065000Y-116158665D01*
X89009853Y-115881426D01*
X88901680Y-115620273D01*
X88864607Y-115564790D01*
X88881185Y-115551185D01*
X88960537Y-115454494D01*
X89019502Y-115344180D01*
X89055812Y-115224482D01*
X89068072Y-115100000D01*
X89068072Y-114895404D01*
X100075543Y-114934999D01*
X100100328Y-114932648D01*
X100124178Y-114925507D01*
X100146177Y-114913850D01*
X100165479Y-114898125D01*
X100181342Y-114878937D01*
X100193157Y-114857023D01*
X100200470Y-114833224D01*
X100203000Y-114808000D01*
X100203000Y-78105000D01*
X103480000Y-78105000D01*
X103480001Y-146939000D01*
X26060000Y-146939000D01*
X26060000Y-141336665D01*
X29553000Y-141336665D01*
X29553000Y-141619335D01*
X29608147Y-141896574D01*
X29716320Y-142157727D01*
X29873363Y-142392759D01*
X30073241Y-142592637D01*
X30308273Y-142749680D01*
X30569426Y-142857853D01*
X30846665Y-142913000D01*
X31129335Y-142913000D01*
X31406574Y-142857853D01*
X31667727Y-142749680D01*
X31902759Y-142592637D01*
X32102637Y-142392759D01*
X32259680Y-142157727D01*
X32367853Y-141896574D01*
X32423000Y-141619335D01*
X32423000Y-141336665D01*
X32392554Y-141183603D01*
X32898157Y-140678000D01*
X37169928Y-140678000D01*
X37169928Y-142278000D01*
X37182188Y-142402482D01*
X37218498Y-142522180D01*
X37277463Y-142632494D01*
X37356815Y-142729185D01*
X37453506Y-142808537D01*
X37563820Y-142867502D01*
X37683518Y-142903812D01*
X37808000Y-142916072D01*
X39408000Y-142916072D01*
X39532482Y-142903812D01*
X39652180Y-142867502D01*
X39762494Y-142808537D01*
X39859185Y-142729185D01*
X39938537Y-142632494D01*
X39997502Y-142522180D01*
X40033812Y-142402482D01*
X40046072Y-142278000D01*
X40046072Y-140678000D01*
X40033812Y-140553518D01*
X39997502Y-140433820D01*
X39938537Y-140323506D01*
X39859185Y-140226815D01*
X39762494Y-140147463D01*
X39652180Y-140088498D01*
X39532482Y-140052188D01*
X39408000Y-140039928D01*
X37808000Y-140039928D01*
X37683518Y-140052188D01*
X37563820Y-140088498D01*
X37453506Y-140147463D01*
X37356815Y-140226815D01*
X37277463Y-140323506D01*
X37218498Y-140433820D01*
X37182188Y-140553518D01*
X37169928Y-140678000D01*
X32898157Y-140678000D01*
X38799157Y-134777001D01*
X46055446Y-134777001D01*
X46093999Y-134780798D01*
X46132552Y-134777001D01*
X46132560Y-134777001D01*
X46247886Y-134765642D01*
X46395859Y-134720755D01*
X46532232Y-134647863D01*
X46651763Y-134549765D01*
X46676346Y-134519811D01*
X47117000Y-134079157D01*
X51539001Y-138501159D01*
X51539000Y-143725447D01*
X51535203Y-143764000D01*
X51539000Y-143802553D01*
X51539000Y-143802560D01*
X51550359Y-143917886D01*
X51595246Y-144065859D01*
X51668138Y-144202232D01*
X51766236Y-144321764D01*
X51796190Y-144346347D01*
X52813000Y-145363158D01*
X52813000Y-145389939D01*
X52852774Y-145589898D01*
X52930795Y-145778256D01*
X53044063Y-145947774D01*
X53188226Y-146091937D01*
X53357744Y-146205205D01*
X53546102Y-146283226D01*
X53746061Y-146323000D01*
X53949939Y-146323000D01*
X54149898Y-146283226D01*
X54338256Y-146205205D01*
X54507774Y-146091937D01*
X54651937Y-145947774D01*
X54765205Y-145778256D01*
X54843226Y-145589898D01*
X54883000Y-145389939D01*
X54883000Y-145186061D01*
X54843226Y-144986102D01*
X54765205Y-144797744D01*
X54651937Y-144628226D01*
X54507774Y-144484063D01*
X54338256Y-144370795D01*
X54149898Y-144292774D01*
X53949939Y-144253000D01*
X53923158Y-144253000D01*
X53109000Y-143438843D01*
X53109000Y-138214552D01*
X53112797Y-138175999D01*
X53109000Y-138137446D01*
X53109000Y-138137439D01*
X53097641Y-138022113D01*
X53052754Y-137874140D01*
X52979862Y-137737767D01*
X52881764Y-137618236D01*
X52851816Y-137593658D01*
X52824219Y-137566061D01*
X71101000Y-137566061D01*
X71101000Y-137769939D01*
X71140774Y-137969898D01*
X71218795Y-138158256D01*
X71332063Y-138327774D01*
X71351000Y-138346711D01*
X71351001Y-140799288D01*
X71332063Y-140818226D01*
X71218795Y-140987744D01*
X71140774Y-141176102D01*
X71101000Y-141376061D01*
X71101000Y-141579939D01*
X71140774Y-141779898D01*
X71218795Y-141968256D01*
X71332063Y-142137774D01*
X71476226Y-142281937D01*
X71645744Y-142395205D01*
X71834102Y-142473226D01*
X72034061Y-142513000D01*
X72237939Y-142513000D01*
X72437898Y-142473226D01*
X72626256Y-142395205D01*
X72795774Y-142281937D01*
X72939937Y-142137774D01*
X73053205Y-141968256D01*
X73131226Y-141779898D01*
X73171000Y-141579939D01*
X73171000Y-141376061D01*
X73131226Y-141176102D01*
X73053205Y-140987744D01*
X72939937Y-140818226D01*
X72921000Y-140799289D01*
X72921000Y-138346711D01*
X72939937Y-138327774D01*
X73053205Y-138158256D01*
X73131226Y-137969898D01*
X73171000Y-137769939D01*
X73171000Y-137566061D01*
X73131226Y-137366102D01*
X73053205Y-137177744D01*
X72939937Y-137008226D01*
X72795774Y-136864063D01*
X72626256Y-136750795D01*
X72437898Y-136672774D01*
X72237939Y-136633000D01*
X72034061Y-136633000D01*
X71834102Y-136672774D01*
X71645744Y-136750795D01*
X71476226Y-136864063D01*
X71332063Y-137008226D01*
X71218795Y-137177744D01*
X71140774Y-137366102D01*
X71101000Y-137566061D01*
X52824219Y-137566061D01*
X47902000Y-132643843D01*
X47902000Y-128313711D01*
X47920937Y-128294774D01*
X48034205Y-128125256D01*
X48112226Y-127936898D01*
X48152000Y-127736939D01*
X48152000Y-127533061D01*
X48112226Y-127333102D01*
X48034205Y-127144744D01*
X47920937Y-126975226D01*
X47776774Y-126831063D01*
X47607256Y-126717795D01*
X47418898Y-126639774D01*
X47218939Y-126600000D01*
X47015061Y-126600000D01*
X46815102Y-126639774D01*
X46626744Y-126717795D01*
X46457226Y-126831063D01*
X46313063Y-126975226D01*
X46199795Y-127144744D01*
X46121774Y-127333102D01*
X46082000Y-127533061D01*
X46082000Y-127736939D01*
X46121774Y-127936898D01*
X46199795Y-128125256D01*
X46313063Y-128294774D01*
X46332001Y-128313712D01*
X46332000Y-132643843D01*
X45768842Y-133207001D01*
X45673088Y-133207001D01*
X45699226Y-133143898D01*
X45739000Y-132943939D01*
X45739000Y-132740061D01*
X45699226Y-132540102D01*
X45621205Y-132351744D01*
X45507937Y-132182226D01*
X45489000Y-132163289D01*
X45489000Y-125900711D01*
X45507937Y-125881774D01*
X45621205Y-125712256D01*
X45699226Y-125523898D01*
X45739000Y-125323939D01*
X45739000Y-125120061D01*
X45699226Y-124920102D01*
X45621205Y-124731744D01*
X45507937Y-124562226D01*
X45363774Y-124418063D01*
X45194256Y-124304795D01*
X45005898Y-124226774D01*
X44805939Y-124187000D01*
X44602061Y-124187000D01*
X44402102Y-124226774D01*
X44213744Y-124304795D01*
X44044226Y-124418063D01*
X43900063Y-124562226D01*
X43786795Y-124731744D01*
X43708774Y-124920102D01*
X43669000Y-125120061D01*
X43669000Y-125323939D01*
X43708774Y-125523898D01*
X43786795Y-125712256D01*
X43900063Y-125881774D01*
X43919001Y-125900712D01*
X43919000Y-132163289D01*
X43900063Y-132182226D01*
X43786795Y-132351744D01*
X43708774Y-132540102D01*
X43669000Y-132740061D01*
X43669000Y-132943939D01*
X43708774Y-133143898D01*
X43734912Y-133207001D01*
X40046072Y-133207001D01*
X40046072Y-132042000D01*
X40033812Y-131917518D01*
X39997502Y-131797820D01*
X39938537Y-131687506D01*
X39859185Y-131590815D01*
X39762494Y-131511463D01*
X39652180Y-131452498D01*
X39532482Y-131416188D01*
X39408000Y-131403928D01*
X37808000Y-131403928D01*
X37683518Y-131416188D01*
X37563820Y-131452498D01*
X37453506Y-131511463D01*
X37356815Y-131590815D01*
X37277463Y-131687506D01*
X37218498Y-131797820D01*
X37182188Y-131917518D01*
X37169928Y-132042000D01*
X37169928Y-133642000D01*
X37182188Y-133766482D01*
X37218498Y-133886180D01*
X37277463Y-133996494D01*
X37314373Y-134041469D01*
X31282397Y-140073446D01*
X31129335Y-140043000D01*
X30846665Y-140043000D01*
X30569426Y-140098147D01*
X30308273Y-140206320D01*
X30073241Y-140363363D01*
X29873363Y-140563241D01*
X29716320Y-140798273D01*
X29608147Y-141059426D01*
X29553000Y-141336665D01*
X26060000Y-141336665D01*
X26060000Y-132700665D01*
X29553000Y-132700665D01*
X29553000Y-132983335D01*
X29608147Y-133260574D01*
X29716320Y-133521727D01*
X29873363Y-133756759D01*
X30073241Y-133956637D01*
X30308273Y-134113680D01*
X30569426Y-134221853D01*
X30846665Y-134277000D01*
X31129335Y-134277000D01*
X31406574Y-134221853D01*
X31667727Y-134113680D01*
X31902759Y-133956637D01*
X32102637Y-133756759D01*
X32259680Y-133521727D01*
X32367853Y-133260574D01*
X32423000Y-132983335D01*
X32423000Y-132700665D01*
X32367853Y-132423426D01*
X32259680Y-132162273D01*
X32102637Y-131927241D01*
X31902759Y-131727363D01*
X31667727Y-131570320D01*
X31406574Y-131462147D01*
X31129335Y-131407000D01*
X30846665Y-131407000D01*
X30569426Y-131462147D01*
X30308273Y-131570320D01*
X30073241Y-131727363D01*
X29873363Y-131927241D01*
X29716320Y-132162273D01*
X29608147Y-132423426D01*
X29553000Y-132700665D01*
X26060000Y-132700665D01*
X26060000Y-120412000D01*
X29603928Y-120412000D01*
X29603928Y-122412000D01*
X29616188Y-122536482D01*
X29652498Y-122656180D01*
X29711463Y-122766494D01*
X29790815Y-122863185D01*
X29887506Y-122942537D01*
X29997820Y-123001502D01*
X30117518Y-123037812D01*
X30242000Y-123050072D01*
X32242000Y-123050072D01*
X32366482Y-123037812D01*
X32486180Y-123001502D01*
X32596494Y-122942537D01*
X32693185Y-122863185D01*
X32772537Y-122766494D01*
X32831502Y-122656180D01*
X32867812Y-122536482D01*
X32880072Y-122412000D01*
X32880072Y-120412000D01*
X32867812Y-120287518D01*
X32831502Y-120167820D01*
X32772537Y-120057506D01*
X32693185Y-119960815D01*
X32596494Y-119881463D01*
X32486180Y-119822498D01*
X32366482Y-119786188D01*
X32242000Y-119773928D01*
X30242000Y-119773928D01*
X30117518Y-119786188D01*
X29997820Y-119822498D01*
X29887506Y-119881463D01*
X29790815Y-119960815D01*
X29711463Y-120057506D01*
X29652498Y-120167820D01*
X29616188Y-120287518D01*
X29603928Y-120412000D01*
X26060000Y-120412000D01*
X26060000Y-77863068D01*
X29083814Y-78095669D01*
G36*
X37808000Y-144917710D02*
G01*
X39408000Y-144917710D01*
X39516741Y-144907000D01*
X49786140Y-144907000D01*
X50003837Y-145314283D01*
X50263902Y-145631172D01*
X50350864Y-145737135D01*
X50456827Y-145824097D01*
X51031833Y-146399103D01*
X51165508Y-146721822D01*
X51496776Y-147217600D01*
X51918400Y-147639224D01*
X52414178Y-147970492D01*
X52965057Y-148198674D01*
X53549867Y-148315000D01*
X54146133Y-148315000D01*
X54730943Y-148198674D01*
X55281822Y-147970492D01*
X55777600Y-147639224D01*
X56199224Y-147217600D01*
X56530492Y-146721822D01*
X56758674Y-146170943D01*
X56875000Y-145586133D01*
X56875000Y-144989867D01*
X56858517Y-144907000D01*
X60833000Y-144907000D01*
X60833000Y-163528000D01*
X32849126Y-163528000D01*
X32932355Y-163327068D01*
X33091911Y-162524928D01*
X33091911Y-161707072D01*
X32932355Y-160904932D01*
X32619376Y-160149333D01*
X32165000Y-159469311D01*
X31586689Y-158891000D01*
X30906667Y-158436624D01*
X30151068Y-158123645D01*
X29348928Y-157964089D01*
X28531072Y-157964089D01*
X28052000Y-158059383D01*
X28052000Y-155722000D01*
X34718290Y-155722000D01*
X34718290Y-158222000D01*
X34769011Y-158736982D01*
X34919226Y-159232173D01*
X35163161Y-159688544D01*
X35491443Y-160088557D01*
X35891456Y-160416839D01*
X36347827Y-160660774D01*
X36843018Y-160810989D01*
X37358000Y-160861710D01*
X39858000Y-160861710D01*
X40372982Y-160810989D01*
X40868173Y-160660774D01*
X41324544Y-160416839D01*
X41724557Y-160088557D01*
X42052839Y-159688544D01*
X42296774Y-159232173D01*
X42446989Y-158736982D01*
X42497710Y-158222000D01*
X42497710Y-155722000D01*
X42446989Y-155207018D01*
X42296774Y-154711827D01*
X42052839Y-154255456D01*
X41883193Y-154048742D01*
X42043753Y-153808448D01*
X42336009Y-153102879D01*
X42485000Y-152353851D01*
X42485000Y-151590149D01*
X42336009Y-150841121D01*
X42043753Y-150135552D01*
X41619462Y-149500557D01*
X41079443Y-148960538D01*
X40444448Y-148536247D01*
X39738879Y-148243991D01*
X38989851Y-148095000D01*
X38226149Y-148095000D01*
X37477121Y-148243991D01*
X36771552Y-148536247D01*
X36136557Y-148960538D01*
X35596538Y-149500557D01*
X35172247Y-150135552D01*
X34879991Y-150841121D01*
X34731000Y-151590149D01*
X34731000Y-152353851D01*
X34879991Y-153102879D01*
X35172247Y-153808448D01*
X35332807Y-154048742D01*
X35163161Y-154255456D01*
X34919226Y-154711827D01*
X34769011Y-155207018D01*
X34718290Y-155722000D01*
X28052000Y-155722000D01*
X28052000Y-144907000D01*
X37699259Y-144907000D01*
X37808000Y-144917710D01*
G37*
X37808000Y-144917710D02*
X39408000Y-144917710D01*
X39516741Y-144907000D01*
X49786140Y-144907000D01*
X50003837Y-145314283D01*
X50263902Y-145631172D01*
X50350864Y-145737135D01*
X50456827Y-145824097D01*
X51031833Y-146399103D01*
X51165508Y-146721822D01*
X51496776Y-147217600D01*
X51918400Y-147639224D01*
X52414178Y-147970492D01*
X52965057Y-148198674D01*
X53549867Y-148315000D01*
X54146133Y-148315000D01*
X54730943Y-148198674D01*
X55281822Y-147970492D01*
X55777600Y-147639224D01*
X56199224Y-147217600D01*
X56530492Y-146721822D01*
X56758674Y-146170943D01*
X56875000Y-145586133D01*
X56875000Y-144989867D01*
X56858517Y-144907000D01*
X60833000Y-144907000D01*
X60833000Y-163528000D01*
X32849126Y-163528000D01*
X32932355Y-163327068D01*
X33091911Y-162524928D01*
X33091911Y-161707072D01*
X32932355Y-160904932D01*
X32619376Y-160149333D01*
X32165000Y-159469311D01*
X31586689Y-158891000D01*
X30906667Y-158436624D01*
X30151068Y-158123645D01*
X29348928Y-157964089D01*
X28531072Y-157964089D01*
X28052000Y-158059383D01*
X28052000Y-155722000D01*
X34718290Y-155722000D01*
X34718290Y-158222000D01*
X34769011Y-158736982D01*
X34919226Y-159232173D01*
X35163161Y-159688544D01*
X35491443Y-160088557D01*
X35891456Y-160416839D01*
X36347827Y-160660774D01*
X36843018Y-160810989D01*
X37358000Y-160861710D01*
X39858000Y-160861710D01*
X40372982Y-160810989D01*
X40868173Y-160660774D01*
X41324544Y-160416839D01*
X41724557Y-160088557D01*
X42052839Y-159688544D01*
X42296774Y-159232173D01*
X42446989Y-158736982D01*
X42497710Y-158222000D01*
X42497710Y-155722000D01*
X42446989Y-155207018D01*
X42296774Y-154711827D01*
X42052839Y-154255456D01*
X41883193Y-154048742D01*
X42043753Y-153808448D01*
X42336009Y-153102879D01*
X42485000Y-152353851D01*
X42485000Y-151590149D01*
X42336009Y-150841121D01*
X42043753Y-150135552D01*
X41619462Y-149500557D01*
X41079443Y-148960538D01*
X40444448Y-148536247D01*
X39738879Y-148243991D01*
X38989851Y-148095000D01*
X38226149Y-148095000D01*
X37477121Y-148243991D01*
X36771552Y-148536247D01*
X36136557Y-148960538D01*
X35596538Y-149500557D01*
X35172247Y-150135552D01*
X34879991Y-150841121D01*
X34731000Y-151590149D01*
X34731000Y-152353851D01*
X34879991Y-153102879D01*
X35172247Y-153808448D01*
X35332807Y-154048742D01*
X35163161Y-154255456D01*
X34919226Y-154711827D01*
X34769011Y-155207018D01*
X34718290Y-155722000D01*
X28052000Y-155722000D01*
X28052000Y-144907000D01*
X37699259Y-144907000D01*
X37808000Y-144917710D01*
G36*
X103480001Y-146930829D02*
G01*
X103480001Y-165520000D01*
X61058747Y-165520000D01*
X61015680Y-161902323D01*
X98430497Y-161902323D01*
X98430497Y-162329677D01*
X98513870Y-162748821D01*
X98677412Y-163143645D01*
X98914837Y-163498977D01*
X99217023Y-163801163D01*
X99572355Y-164038588D01*
X99967179Y-164202130D01*
X100386323Y-164285503D01*
X100813677Y-164285503D01*
X101232821Y-164202130D01*
X101627645Y-164038588D01*
X101982977Y-163801163D01*
X102285163Y-163498977D01*
X102522588Y-163143645D01*
X102686130Y-162748821D01*
X102769503Y-162329677D01*
X102769503Y-161902323D01*
X102686130Y-161483179D01*
X102522588Y-161088355D01*
X102285163Y-160733023D01*
X101982977Y-160430837D01*
X101627645Y-160193412D01*
X101232821Y-160029870D01*
X100813677Y-159946497D01*
X100386323Y-159946497D01*
X99967179Y-160029870D01*
X99572355Y-160193412D01*
X99217023Y-160430837D01*
X98914837Y-160733023D01*
X98677412Y-161088355D01*
X98513870Y-161483179D01*
X98430497Y-161902323D01*
X61015680Y-161902323D01*
X60928724Y-154598000D01*
X79791928Y-154598000D01*
X79791928Y-156298000D01*
X79804188Y-156422482D01*
X79840498Y-156542180D01*
X79899463Y-156652494D01*
X79978815Y-156749185D01*
X80075506Y-156828537D01*
X80185820Y-156887502D01*
X80258380Y-156909513D01*
X80126525Y-157041368D01*
X79964010Y-157284589D01*
X79852068Y-157554842D01*
X79795000Y-157841740D01*
X79795000Y-158134260D01*
X79852068Y-158421158D01*
X79964010Y-158691411D01*
X80126525Y-158934632D01*
X80333368Y-159141475D01*
X80576589Y-159303990D01*
X80846842Y-159415932D01*
X81133740Y-159473000D01*
X81426260Y-159473000D01*
X81713158Y-159415932D01*
X81983411Y-159303990D01*
X82226632Y-159141475D01*
X82433475Y-158934632D01*
X82595990Y-158691411D01*
X82707932Y-158421158D01*
X82739590Y-158262000D01*
X88789928Y-158262000D01*
X88789928Y-160762000D01*
X88802188Y-160886482D01*
X88838498Y-161006180D01*
X88897463Y-161116494D01*
X88976815Y-161213185D01*
X89073506Y-161292537D01*
X89183820Y-161351502D01*
X89303518Y-161387812D01*
X89428000Y-161400072D01*
X91928000Y-161400072D01*
X92052482Y-161387812D01*
X92172180Y-161351502D01*
X92282494Y-161292537D01*
X92379185Y-161213185D01*
X92458537Y-161116494D01*
X92517502Y-161006180D01*
X92553812Y-160886482D01*
X92566072Y-160762000D01*
X92566072Y-158262000D01*
X92553812Y-158137518D01*
X92517502Y-158017820D01*
X92458537Y-157907506D01*
X92379185Y-157810815D01*
X92282494Y-157731463D01*
X92172180Y-157672498D01*
X92052482Y-157636188D01*
X91928000Y-157623928D01*
X89428000Y-157623928D01*
X89303518Y-157636188D01*
X89183820Y-157672498D01*
X89073506Y-157731463D01*
X88976815Y-157810815D01*
X88897463Y-157907506D01*
X88838498Y-158017820D01*
X88802188Y-158137518D01*
X88789928Y-158262000D01*
X82739590Y-158262000D01*
X82765000Y-158134260D01*
X82765000Y-157841740D01*
X82707932Y-157554842D01*
X82595990Y-157284589D01*
X82433475Y-157041368D01*
X82301620Y-156909513D01*
X82374180Y-156887502D01*
X82484494Y-156828537D01*
X82581185Y-156749185D01*
X82660537Y-156652494D01*
X82719502Y-156542180D01*
X82755812Y-156422482D01*
X82768072Y-156298000D01*
X82768072Y-154598000D01*
X82755812Y-154473518D01*
X82719502Y-154353820D01*
X82704816Y-154326344D01*
X88793000Y-154326344D01*
X88793000Y-154697656D01*
X88865439Y-155061834D01*
X89007534Y-155404882D01*
X89213825Y-155713618D01*
X89476382Y-155976175D01*
X89785118Y-156182466D01*
X90128166Y-156324561D01*
X90492344Y-156397000D01*
X90863656Y-156397000D01*
X91227834Y-156324561D01*
X91570882Y-156182466D01*
X91879618Y-155976175D01*
X92142175Y-155713618D01*
X92348466Y-155404882D01*
X92490561Y-155061834D01*
X92563000Y-154697656D01*
X92563000Y-154326344D01*
X92490561Y-153962166D01*
X92348466Y-153619118D01*
X92142175Y-153310382D01*
X91879618Y-153047825D01*
X91570882Y-152841534D01*
X91227834Y-152699439D01*
X90863656Y-152627000D01*
X90492344Y-152627000D01*
X90128166Y-152699439D01*
X89785118Y-152841534D01*
X89476382Y-153047825D01*
X89213825Y-153310382D01*
X89007534Y-153619118D01*
X88865439Y-153962166D01*
X88793000Y-154326344D01*
X82704816Y-154326344D01*
X82660537Y-154243506D01*
X82581185Y-154146815D01*
X82484494Y-154067463D01*
X82374180Y-154008498D01*
X82254482Y-153972188D01*
X82130000Y-153959928D01*
X80430000Y-153959928D01*
X80305518Y-153972188D01*
X80185820Y-154008498D01*
X80075506Y-154067463D01*
X79978815Y-154146815D01*
X79899463Y-154243506D01*
X79840498Y-154353820D01*
X79804188Y-154473518D01*
X79791928Y-154598000D01*
X60928724Y-154598000D01*
X60834530Y-146685741D01*
X103480001Y-146930829D01*
G37*
X103480001Y-146930829D02*
X103480001Y-165520000D01*
X61058747Y-165520000D01*
X61015680Y-161902323D01*
X98430497Y-161902323D01*
X98430497Y-162329677D01*
X98513870Y-162748821D01*
X98677412Y-163143645D01*
X98914837Y-163498977D01*
X99217023Y-163801163D01*
X99572355Y-164038588D01*
X99967179Y-164202130D01*
X100386323Y-164285503D01*
X100813677Y-164285503D01*
X101232821Y-164202130D01*
X101627645Y-164038588D01*
X101982977Y-163801163D01*
X102285163Y-163498977D01*
X102522588Y-163143645D01*
X102686130Y-162748821D01*
X102769503Y-162329677D01*
X102769503Y-161902323D01*
X102686130Y-161483179D01*
X102522588Y-161088355D01*
X102285163Y-160733023D01*
X101982977Y-160430837D01*
X101627645Y-160193412D01*
X101232821Y-160029870D01*
X100813677Y-159946497D01*
X100386323Y-159946497D01*
X99967179Y-160029870D01*
X99572355Y-160193412D01*
X99217023Y-160430837D01*
X98914837Y-160733023D01*
X98677412Y-161088355D01*
X98513870Y-161483179D01*
X98430497Y-161902323D01*
X61015680Y-161902323D01*
X60928724Y-154598000D01*
X79791928Y-154598000D01*
X79791928Y-156298000D01*
X79804188Y-156422482D01*
X79840498Y-156542180D01*
X79899463Y-156652494D01*
X79978815Y-156749185D01*
X80075506Y-156828537D01*
X80185820Y-156887502D01*
X80258380Y-156909513D01*
X80126525Y-157041368D01*
X79964010Y-157284589D01*
X79852068Y-157554842D01*
X79795000Y-157841740D01*
X79795000Y-158134260D01*
X79852068Y-158421158D01*
X79964010Y-158691411D01*
X80126525Y-158934632D01*
X80333368Y-159141475D01*
X80576589Y-159303990D01*
X80846842Y-159415932D01*
X81133740Y-159473000D01*
X81426260Y-159473000D01*
X81713158Y-159415932D01*
X81983411Y-159303990D01*
X82226632Y-159141475D01*
X82433475Y-158934632D01*
X82595990Y-158691411D01*
X82707932Y-158421158D01*
X82739590Y-158262000D01*
X88789928Y-158262000D01*
X88789928Y-160762000D01*
X88802188Y-160886482D01*
X88838498Y-161006180D01*
X88897463Y-161116494D01*
X88976815Y-161213185D01*
X89073506Y-161292537D01*
X89183820Y-161351502D01*
X89303518Y-161387812D01*
X89428000Y-161400072D01*
X91928000Y-161400072D01*
X92052482Y-161387812D01*
X92172180Y-161351502D01*
X92282494Y-161292537D01*
X92379185Y-161213185D01*
X92458537Y-161116494D01*
X92517502Y-161006180D01*
X92553812Y-160886482D01*
X92566072Y-160762000D01*
X92566072Y-158262000D01*
X92553812Y-158137518D01*
X92517502Y-158017820D01*
X92458537Y-157907506D01*
X92379185Y-157810815D01*
X92282494Y-157731463D01*
X92172180Y-157672498D01*
X92052482Y-157636188D01*
X91928000Y-157623928D01*
X89428000Y-157623928D01*
X89303518Y-157636188D01*
X89183820Y-157672498D01*
X89073506Y-157731463D01*
X88976815Y-157810815D01*
X88897463Y-157907506D01*
X88838498Y-158017820D01*
X88802188Y-158137518D01*
X88789928Y-158262000D01*
X82739590Y-158262000D01*
X82765000Y-158134260D01*
X82765000Y-157841740D01*
X82707932Y-157554842D01*
X82595990Y-157284589D01*
X82433475Y-157041368D01*
X82301620Y-156909513D01*
X82374180Y-156887502D01*
X82484494Y-156828537D01*
X82581185Y-156749185D01*
X82660537Y-156652494D01*
X82719502Y-156542180D01*
X82755812Y-156422482D01*
X82768072Y-156298000D01*
X82768072Y-154598000D01*
X82755812Y-154473518D01*
X82719502Y-154353820D01*
X82704816Y-154326344D01*
X88793000Y-154326344D01*
X88793000Y-154697656D01*
X88865439Y-155061834D01*
X89007534Y-155404882D01*
X89213825Y-155713618D01*
X89476382Y-155976175D01*
X89785118Y-156182466D01*
X90128166Y-156324561D01*
X90492344Y-156397000D01*
X90863656Y-156397000D01*
X91227834Y-156324561D01*
X91570882Y-156182466D01*
X91879618Y-155976175D01*
X92142175Y-155713618D01*
X92348466Y-155404882D01*
X92490561Y-155061834D01*
X92563000Y-154697656D01*
X92563000Y-154326344D01*
X92490561Y-153962166D01*
X92348466Y-153619118D01*
X92142175Y-153310382D01*
X91879618Y-153047825D01*
X91570882Y-152841534D01*
X91227834Y-152699439D01*
X90863656Y-152627000D01*
X90492344Y-152627000D01*
X90128166Y-152699439D01*
X89785118Y-152841534D01*
X89476382Y-153047825D01*
X89213825Y-153310382D01*
X89007534Y-153619118D01*
X88865439Y-153962166D01*
X88793000Y-154326344D01*
X82704816Y-154326344D01*
X82660537Y-154243506D01*
X82581185Y-154146815D01*
X82484494Y-154067463D01*
X82374180Y-154008498D01*
X82254482Y-153972188D01*
X82130000Y-153959928D01*
X80430000Y-153959928D01*
X80305518Y-153972188D01*
X80185820Y-154008498D01*
X80075506Y-154067463D01*
X79978815Y-154146815D01*
X79899463Y-154243506D01*
X79840498Y-154353820D01*
X79804188Y-154473518D01*
X79791928Y-154598000D01*
X60928724Y-154598000D01*
X60834530Y-146685741D01*
X103480001Y-146930829D01*
%TO.N,GND2*%
G36*
X86233000Y-74676000D02*
G01*
X86235440Y-74700776D01*
X86242667Y-74724601D01*
X86254403Y-74746557D01*
X86270197Y-74765803D01*
X86289443Y-74781597D01*
X86311399Y-74793333D01*
X86335224Y-74800560D01*
X86360000Y-74803000D01*
X99187000Y-74803000D01*
X99187000Y-113157000D01*
X88966681Y-113157000D01*
X88960537Y-113145506D01*
X88881185Y-113048815D01*
X88784494Y-112969463D01*
X88674180Y-112910498D01*
X88554482Y-112874188D01*
X88430000Y-112861928D01*
X86830000Y-112861928D01*
X86705518Y-112874188D01*
X86585820Y-112910498D01*
X86475506Y-112969463D01*
X86378815Y-113048815D01*
X86299463Y-113145506D01*
X86293319Y-113157000D01*
X63975157Y-113157000D01*
X69869810Y-107262347D01*
X69899764Y-107237764D01*
X69997862Y-107118233D01*
X70070754Y-106981860D01*
X70115642Y-106833887D01*
X70123020Y-106758974D01*
X70127000Y-106718561D01*
X70127000Y-106718556D01*
X70130797Y-106680000D01*
X70127000Y-106641444D01*
X70127000Y-99988000D01*
X71663928Y-99988000D01*
X71663928Y-101688000D01*
X71676188Y-101812482D01*
X71712498Y-101932180D01*
X71771463Y-102042494D01*
X71850815Y-102139185D01*
X71947506Y-102218537D01*
X72057820Y-102277502D01*
X72130380Y-102299513D01*
X71998525Y-102431368D01*
X71836010Y-102674589D01*
X71724068Y-102944842D01*
X71667000Y-103231740D01*
X71667000Y-103524260D01*
X71724068Y-103811158D01*
X71836010Y-104081411D01*
X71998525Y-104324632D01*
X72205368Y-104531475D01*
X72448589Y-104693990D01*
X72718842Y-104805932D01*
X73005740Y-104863000D01*
X73298260Y-104863000D01*
X73585158Y-104805932D01*
X73855411Y-104693990D01*
X73894307Y-104668000D01*
X81169928Y-104668000D01*
X81169928Y-107168000D01*
X81182188Y-107292482D01*
X81218498Y-107412180D01*
X81277463Y-107522494D01*
X81356815Y-107619185D01*
X81453506Y-107698537D01*
X81563820Y-107757502D01*
X81683518Y-107793812D01*
X81808000Y-107806072D01*
X84308000Y-107806072D01*
X84432482Y-107793812D01*
X84552180Y-107757502D01*
X84662494Y-107698537D01*
X84759185Y-107619185D01*
X84838537Y-107522494D01*
X84897502Y-107412180D01*
X84933812Y-107292482D01*
X84946072Y-107168000D01*
X84946072Y-104668000D01*
X84933812Y-104543518D01*
X84897502Y-104423820D01*
X84838537Y-104313506D01*
X84759185Y-104216815D01*
X84662494Y-104137463D01*
X84552180Y-104078498D01*
X84432482Y-104042188D01*
X84308000Y-104029928D01*
X81808000Y-104029928D01*
X81683518Y-104042188D01*
X81563820Y-104078498D01*
X81453506Y-104137463D01*
X81356815Y-104216815D01*
X81277463Y-104313506D01*
X81218498Y-104423820D01*
X81182188Y-104543518D01*
X81169928Y-104668000D01*
X73894307Y-104668000D01*
X74098632Y-104531475D01*
X74305475Y-104324632D01*
X74467990Y-104081411D01*
X74579932Y-103811158D01*
X74637000Y-103524260D01*
X74637000Y-103231740D01*
X74579932Y-102944842D01*
X74467990Y-102674589D01*
X74305475Y-102431368D01*
X74173620Y-102299513D01*
X74246180Y-102277502D01*
X74356494Y-102218537D01*
X74453185Y-102139185D01*
X74532537Y-102042494D01*
X74591502Y-101932180D01*
X74627812Y-101812482D01*
X74640072Y-101688000D01*
X74640072Y-100732344D01*
X81173000Y-100732344D01*
X81173000Y-101103656D01*
X81245439Y-101467834D01*
X81387534Y-101810882D01*
X81593825Y-102119618D01*
X81856382Y-102382175D01*
X82165118Y-102588466D01*
X82508166Y-102730561D01*
X82872344Y-102803000D01*
X83243656Y-102803000D01*
X83607834Y-102730561D01*
X83950882Y-102588466D01*
X84259618Y-102382175D01*
X84522175Y-102119618D01*
X84728466Y-101810882D01*
X84870561Y-101467834D01*
X84943000Y-101103656D01*
X84943000Y-100732344D01*
X84870561Y-100368166D01*
X84728466Y-100025118D01*
X84522175Y-99716382D01*
X84259618Y-99453825D01*
X83950882Y-99247534D01*
X83607834Y-99105439D01*
X83243656Y-99033000D01*
X82872344Y-99033000D01*
X82508166Y-99105439D01*
X82165118Y-99247534D01*
X81856382Y-99453825D01*
X81593825Y-99716382D01*
X81387534Y-100025118D01*
X81245439Y-100368166D01*
X81173000Y-100732344D01*
X74640072Y-100732344D01*
X74640072Y-99988000D01*
X74627812Y-99863518D01*
X74591502Y-99743820D01*
X74532537Y-99633506D01*
X74453185Y-99536815D01*
X74356494Y-99457463D01*
X74246180Y-99398498D01*
X74126482Y-99362188D01*
X74002000Y-99349928D01*
X72302000Y-99349928D01*
X72177518Y-99362188D01*
X72057820Y-99398498D01*
X71947506Y-99457463D01*
X71850815Y-99536815D01*
X71771463Y-99633506D01*
X71712498Y-99743820D01*
X71676188Y-99863518D01*
X71663928Y-99988000D01*
X70127000Y-99988000D01*
X70127000Y-95420711D01*
X70145937Y-95401774D01*
X70259205Y-95232256D01*
X70337226Y-95043898D01*
X70339194Y-95034000D01*
X93303928Y-95034000D01*
X93316188Y-95158482D01*
X93352498Y-95278180D01*
X93411463Y-95388494D01*
X93490815Y-95485185D01*
X93587506Y-95564537D01*
X93697820Y-95623502D01*
X93817518Y-95659812D01*
X93942000Y-95672072D01*
X94456250Y-95669000D01*
X94615000Y-95510250D01*
X94615000Y-94361000D01*
X93465750Y-94361000D01*
X93307000Y-94519750D01*
X93303928Y-95034000D01*
X70339194Y-95034000D01*
X70377000Y-94843939D01*
X70377000Y-94640061D01*
X70337226Y-94440102D01*
X70259205Y-94251744D01*
X70145937Y-94082226D01*
X70127000Y-94063289D01*
X70127000Y-93434000D01*
X93303928Y-93434000D01*
X93307000Y-93948250D01*
X93465750Y-94107000D01*
X94615000Y-94107000D01*
X94615000Y-92957750D01*
X94456250Y-92799000D01*
X93942000Y-92795928D01*
X93817518Y-92808188D01*
X93697820Y-92844498D01*
X93587506Y-92903463D01*
X93490815Y-92982815D01*
X93411463Y-93079506D01*
X93352498Y-93189820D01*
X93316188Y-93309518D01*
X93303928Y-93434000D01*
X70127000Y-93434000D01*
X70127000Y-92880711D01*
X70145937Y-92861774D01*
X70259205Y-92692256D01*
X70337226Y-92503898D01*
X70377000Y-92303939D01*
X70377000Y-92100061D01*
X70337226Y-91900102D01*
X70261382Y-91717000D01*
X94246213Y-91717000D01*
X95326428Y-92797216D01*
X95027750Y-92799000D01*
X94869000Y-92957750D01*
X94869000Y-94107000D01*
X94889000Y-94107000D01*
X94889000Y-94361000D01*
X94869000Y-94361000D01*
X94869000Y-95510250D01*
X95027750Y-95669000D01*
X95542000Y-95672072D01*
X95666482Y-95659812D01*
X95786180Y-95623502D01*
X95896494Y-95564537D01*
X95993185Y-95485185D01*
X96006790Y-95468607D01*
X96062273Y-95505680D01*
X96323426Y-95613853D01*
X96600665Y-95669000D01*
X96883335Y-95669000D01*
X97160574Y-95613853D01*
X97421727Y-95505680D01*
X97656759Y-95348637D01*
X97856637Y-95148759D01*
X98013680Y-94913727D01*
X98121853Y-94652574D01*
X98177000Y-94375335D01*
X98177000Y-94092665D01*
X98121853Y-93815426D01*
X98013680Y-93554273D01*
X97856637Y-93319241D01*
X97656759Y-93119363D01*
X97523689Y-93030448D01*
X97515641Y-92948743D01*
X97470754Y-92800770D01*
X97397862Y-92664397D01*
X97299764Y-92544866D01*
X97269816Y-92520288D01*
X95153717Y-90404190D01*
X95129134Y-90374236D01*
X95009603Y-90276138D01*
X94873230Y-90203246D01*
X94725257Y-90158359D01*
X94609931Y-90147000D01*
X94609923Y-90147000D01*
X94571370Y-90143203D01*
X94532817Y-90147000D01*
X59205000Y-90147000D01*
X59205000Y-89311382D01*
X59388102Y-89387226D01*
X59588061Y-89427000D01*
X59791939Y-89427000D01*
X59991898Y-89387226D01*
X60180256Y-89309205D01*
X60349774Y-89195937D01*
X60493937Y-89051774D01*
X60607205Y-88882256D01*
X60685226Y-88693898D01*
X60725000Y-88493939D01*
X60725000Y-88290061D01*
X60685226Y-88090102D01*
X60607205Y-87901744D01*
X60493937Y-87732226D01*
X60475000Y-87713289D01*
X60475000Y-84366000D01*
X63331928Y-84366000D01*
X63344188Y-84490482D01*
X63380498Y-84610180D01*
X63439463Y-84720494D01*
X63518815Y-84817185D01*
X63615506Y-84896537D01*
X63725820Y-84955502D01*
X63845518Y-84991812D01*
X63970000Y-85004072D01*
X64484250Y-85001000D01*
X64643000Y-84842250D01*
X64643000Y-83693000D01*
X63493750Y-83693000D01*
X63335000Y-83851750D01*
X63331928Y-84366000D01*
X60475000Y-84366000D01*
X60475000Y-82766000D01*
X63331928Y-82766000D01*
X63335000Y-83280250D01*
X63493750Y-83439000D01*
X64643000Y-83439000D01*
X64643000Y-82289750D01*
X64897000Y-82289750D01*
X64897000Y-83439000D01*
X64917000Y-83439000D01*
X64917000Y-83693000D01*
X64897000Y-83693000D01*
X64897000Y-84842250D01*
X65055750Y-85001000D01*
X65570000Y-85004072D01*
X65694482Y-84991812D01*
X65814180Y-84955502D01*
X65924494Y-84896537D01*
X66021185Y-84817185D01*
X66034790Y-84800607D01*
X66090273Y-84837680D01*
X66351426Y-84945853D01*
X66628665Y-85001000D01*
X66911335Y-85001000D01*
X67188574Y-84945853D01*
X67449727Y-84837680D01*
X67684759Y-84680637D01*
X67884637Y-84480759D01*
X68041680Y-84245727D01*
X68149853Y-83984574D01*
X68205000Y-83707335D01*
X68205000Y-83528000D01*
X84921928Y-83528000D01*
X84921928Y-85128000D01*
X84934188Y-85252482D01*
X84970498Y-85372180D01*
X85029463Y-85482494D01*
X85108815Y-85579185D01*
X85125393Y-85592790D01*
X85088320Y-85648273D01*
X84980147Y-85909426D01*
X84925000Y-86186665D01*
X84925000Y-86469335D01*
X84980147Y-86746574D01*
X85088320Y-87007727D01*
X85245363Y-87242759D01*
X85445241Y-87442637D01*
X85680273Y-87599680D01*
X85941426Y-87707853D01*
X86218665Y-87763000D01*
X86501335Y-87763000D01*
X86778574Y-87707853D01*
X87039727Y-87599680D01*
X87274759Y-87442637D01*
X87474637Y-87242759D01*
X87631680Y-87007727D01*
X87739853Y-86746574D01*
X87795000Y-86469335D01*
X87795000Y-86186665D01*
X87739853Y-85909426D01*
X87631680Y-85648273D01*
X87594607Y-85592790D01*
X87611185Y-85579185D01*
X87690537Y-85482494D01*
X87749502Y-85372180D01*
X87785812Y-85252482D01*
X87798072Y-85128000D01*
X87798072Y-83528000D01*
X87785812Y-83403518D01*
X87749502Y-83283820D01*
X87690537Y-83173506D01*
X87611185Y-83076815D01*
X87514494Y-82997463D01*
X87404180Y-82938498D01*
X87284482Y-82902188D01*
X87160000Y-82889928D01*
X85560000Y-82889928D01*
X85435518Y-82902188D01*
X85315820Y-82938498D01*
X85205506Y-82997463D01*
X85108815Y-83076815D01*
X85029463Y-83173506D01*
X84970498Y-83283820D01*
X84934188Y-83403518D01*
X84921928Y-83528000D01*
X68205000Y-83528000D01*
X68205000Y-83424665D01*
X68149853Y-83147426D01*
X68041680Y-82886273D01*
X67884637Y-82651241D01*
X67684759Y-82451363D01*
X67449727Y-82294320D01*
X67188574Y-82186147D01*
X66911335Y-82131000D01*
X66628665Y-82131000D01*
X66351426Y-82186147D01*
X66090273Y-82294320D01*
X66034790Y-82331393D01*
X66021185Y-82314815D01*
X65924494Y-82235463D01*
X65814180Y-82176498D01*
X65694482Y-82140188D01*
X65570000Y-82127928D01*
X65055750Y-82131000D01*
X64897000Y-82289750D01*
X64643000Y-82289750D01*
X64484250Y-82131000D01*
X63970000Y-82127928D01*
X63845518Y-82140188D01*
X63725820Y-82176498D01*
X63615506Y-82235463D01*
X63518815Y-82314815D01*
X63439463Y-82411506D01*
X63380498Y-82521820D01*
X63344188Y-82641518D01*
X63331928Y-82766000D01*
X60475000Y-82766000D01*
X60475000Y-79779000D01*
X93555289Y-79779000D01*
X93574226Y-79797937D01*
X93743744Y-79911205D01*
X93932102Y-79989226D01*
X94132061Y-80029000D01*
X94335939Y-80029000D01*
X94535898Y-79989226D01*
X94724256Y-79911205D01*
X94893774Y-79797937D01*
X95037937Y-79653774D01*
X95151205Y-79484256D01*
X95229226Y-79295898D01*
X95269000Y-79095939D01*
X95269000Y-78892061D01*
X95229226Y-78692102D01*
X95151205Y-78503744D01*
X95037937Y-78334226D01*
X94893774Y-78190063D01*
X94724256Y-78076795D01*
X94535898Y-77998774D01*
X94335939Y-77959000D01*
X94132061Y-77959000D01*
X93932102Y-77998774D01*
X93743744Y-78076795D01*
X93574226Y-78190063D01*
X93555289Y-78209000D01*
X60475000Y-78209000D01*
X60475000Y-75608711D01*
X60493937Y-75589774D01*
X60607205Y-75420256D01*
X60685226Y-75231898D01*
X60725000Y-75031939D01*
X60725000Y-74828061D01*
X60685226Y-74628102D01*
X60607205Y-74439744D01*
X60493937Y-74270226D01*
X60475000Y-74251289D01*
X60475000Y-71540000D01*
X66075928Y-71540000D01*
X66075928Y-73240000D01*
X66088188Y-73364482D01*
X66124498Y-73484180D01*
X66183463Y-73594494D01*
X66262815Y-73691185D01*
X66359506Y-73770537D01*
X66469820Y-73829502D01*
X66542380Y-73851513D01*
X66410525Y-73983368D01*
X66248010Y-74226589D01*
X66136068Y-74496842D01*
X66079000Y-74783740D01*
X66079000Y-75076260D01*
X66136068Y-75363158D01*
X66248010Y-75633411D01*
X66410525Y-75876632D01*
X66617368Y-76083475D01*
X66860589Y-76245990D01*
X67130842Y-76357932D01*
X67417740Y-76415000D01*
X67710260Y-76415000D01*
X67997158Y-76357932D01*
X68267411Y-76245990D01*
X68510632Y-76083475D01*
X68717475Y-75876632D01*
X68879990Y-75633411D01*
X68991932Y-75363158D01*
X69049000Y-75076260D01*
X69049000Y-74783740D01*
X68991932Y-74496842D01*
X68879990Y-74226589D01*
X68717475Y-73983368D01*
X68585620Y-73851513D01*
X68658180Y-73829502D01*
X68768494Y-73770537D01*
X68865185Y-73691185D01*
X68944537Y-73594494D01*
X69003502Y-73484180D01*
X69039812Y-73364482D01*
X69052072Y-73240000D01*
X69052072Y-71540000D01*
X69039812Y-71415518D01*
X69003502Y-71295820D01*
X68944537Y-71185506D01*
X68865185Y-71088815D01*
X68768494Y-71009463D01*
X68658180Y-70950498D01*
X68538482Y-70914188D01*
X68414000Y-70901928D01*
X66714000Y-70901928D01*
X66589518Y-70914188D01*
X66469820Y-70950498D01*
X66359506Y-71009463D01*
X66262815Y-71088815D01*
X66183463Y-71185506D01*
X66124498Y-71295820D01*
X66088188Y-71415518D01*
X66075928Y-71540000D01*
X60475000Y-71540000D01*
X60475000Y-71501000D01*
X63246000Y-71501000D01*
X63270776Y-71498560D01*
X63294601Y-71491333D01*
X63316557Y-71479597D01*
X63335803Y-71463803D01*
X63351597Y-71444557D01*
X63363333Y-71422601D01*
X63370560Y-71398776D01*
X63373000Y-71374000D01*
X63373000Y-67183000D01*
X86233000Y-67183000D01*
X86233000Y-74676000D01*
G37*
X86233000Y-74676000D02*
X86235440Y-74700776D01*
X86242667Y-74724601D01*
X86254403Y-74746557D01*
X86270197Y-74765803D01*
X86289443Y-74781597D01*
X86311399Y-74793333D01*
X86335224Y-74800560D01*
X86360000Y-74803000D01*
X99187000Y-74803000D01*
X99187000Y-113157000D01*
X88966681Y-113157000D01*
X88960537Y-113145506D01*
X88881185Y-113048815D01*
X88784494Y-112969463D01*
X88674180Y-112910498D01*
X88554482Y-112874188D01*
X88430000Y-112861928D01*
X86830000Y-112861928D01*
X86705518Y-112874188D01*
X86585820Y-112910498D01*
X86475506Y-112969463D01*
X86378815Y-113048815D01*
X86299463Y-113145506D01*
X86293319Y-113157000D01*
X63975157Y-113157000D01*
X69869810Y-107262347D01*
X69899764Y-107237764D01*
X69997862Y-107118233D01*
X70070754Y-106981860D01*
X70115642Y-106833887D01*
X70123020Y-106758974D01*
X70127000Y-106718561D01*
X70127000Y-106718556D01*
X70130797Y-106680000D01*
X70127000Y-106641444D01*
X70127000Y-99988000D01*
X71663928Y-99988000D01*
X71663928Y-101688000D01*
X71676188Y-101812482D01*
X71712498Y-101932180D01*
X71771463Y-102042494D01*
X71850815Y-102139185D01*
X71947506Y-102218537D01*
X72057820Y-102277502D01*
X72130380Y-102299513D01*
X71998525Y-102431368D01*
X71836010Y-102674589D01*
X71724068Y-102944842D01*
X71667000Y-103231740D01*
X71667000Y-103524260D01*
X71724068Y-103811158D01*
X71836010Y-104081411D01*
X71998525Y-104324632D01*
X72205368Y-104531475D01*
X72448589Y-104693990D01*
X72718842Y-104805932D01*
X73005740Y-104863000D01*
X73298260Y-104863000D01*
X73585158Y-104805932D01*
X73855411Y-104693990D01*
X73894307Y-104668000D01*
X81169928Y-104668000D01*
X81169928Y-107168000D01*
X81182188Y-107292482D01*
X81218498Y-107412180D01*
X81277463Y-107522494D01*
X81356815Y-107619185D01*
X81453506Y-107698537D01*
X81563820Y-107757502D01*
X81683518Y-107793812D01*
X81808000Y-107806072D01*
X84308000Y-107806072D01*
X84432482Y-107793812D01*
X84552180Y-107757502D01*
X84662494Y-107698537D01*
X84759185Y-107619185D01*
X84838537Y-107522494D01*
X84897502Y-107412180D01*
X84933812Y-107292482D01*
X84946072Y-107168000D01*
X84946072Y-104668000D01*
X84933812Y-104543518D01*
X84897502Y-104423820D01*
X84838537Y-104313506D01*
X84759185Y-104216815D01*
X84662494Y-104137463D01*
X84552180Y-104078498D01*
X84432482Y-104042188D01*
X84308000Y-104029928D01*
X81808000Y-104029928D01*
X81683518Y-104042188D01*
X81563820Y-104078498D01*
X81453506Y-104137463D01*
X81356815Y-104216815D01*
X81277463Y-104313506D01*
X81218498Y-104423820D01*
X81182188Y-104543518D01*
X81169928Y-104668000D01*
X73894307Y-104668000D01*
X74098632Y-104531475D01*
X74305475Y-104324632D01*
X74467990Y-104081411D01*
X74579932Y-103811158D01*
X74637000Y-103524260D01*
X74637000Y-103231740D01*
X74579932Y-102944842D01*
X74467990Y-102674589D01*
X74305475Y-102431368D01*
X74173620Y-102299513D01*
X74246180Y-102277502D01*
X74356494Y-102218537D01*
X74453185Y-102139185D01*
X74532537Y-102042494D01*
X74591502Y-101932180D01*
X74627812Y-101812482D01*
X74640072Y-101688000D01*
X74640072Y-100732344D01*
X81173000Y-100732344D01*
X81173000Y-101103656D01*
X81245439Y-101467834D01*
X81387534Y-101810882D01*
X81593825Y-102119618D01*
X81856382Y-102382175D01*
X82165118Y-102588466D01*
X82508166Y-102730561D01*
X82872344Y-102803000D01*
X83243656Y-102803000D01*
X83607834Y-102730561D01*
X83950882Y-102588466D01*
X84259618Y-102382175D01*
X84522175Y-102119618D01*
X84728466Y-101810882D01*
X84870561Y-101467834D01*
X84943000Y-101103656D01*
X84943000Y-100732344D01*
X84870561Y-100368166D01*
X84728466Y-100025118D01*
X84522175Y-99716382D01*
X84259618Y-99453825D01*
X83950882Y-99247534D01*
X83607834Y-99105439D01*
X83243656Y-99033000D01*
X82872344Y-99033000D01*
X82508166Y-99105439D01*
X82165118Y-99247534D01*
X81856382Y-99453825D01*
X81593825Y-99716382D01*
X81387534Y-100025118D01*
X81245439Y-100368166D01*
X81173000Y-100732344D01*
X74640072Y-100732344D01*
X74640072Y-99988000D01*
X74627812Y-99863518D01*
X74591502Y-99743820D01*
X74532537Y-99633506D01*
X74453185Y-99536815D01*
X74356494Y-99457463D01*
X74246180Y-99398498D01*
X74126482Y-99362188D01*
X74002000Y-99349928D01*
X72302000Y-99349928D01*
X72177518Y-99362188D01*
X72057820Y-99398498D01*
X71947506Y-99457463D01*
X71850815Y-99536815D01*
X71771463Y-99633506D01*
X71712498Y-99743820D01*
X71676188Y-99863518D01*
X71663928Y-99988000D01*
X70127000Y-99988000D01*
X70127000Y-95420711D01*
X70145937Y-95401774D01*
X70259205Y-95232256D01*
X70337226Y-95043898D01*
X70339194Y-95034000D01*
X93303928Y-95034000D01*
X93316188Y-95158482D01*
X93352498Y-95278180D01*
X93411463Y-95388494D01*
X93490815Y-95485185D01*
X93587506Y-95564537D01*
X93697820Y-95623502D01*
X93817518Y-95659812D01*
X93942000Y-95672072D01*
X94456250Y-95669000D01*
X94615000Y-95510250D01*
X94615000Y-94361000D01*
X93465750Y-94361000D01*
X93307000Y-94519750D01*
X93303928Y-95034000D01*
X70339194Y-95034000D01*
X70377000Y-94843939D01*
X70377000Y-94640061D01*
X70337226Y-94440102D01*
X70259205Y-94251744D01*
X70145937Y-94082226D01*
X70127000Y-94063289D01*
X70127000Y-93434000D01*
X93303928Y-93434000D01*
X93307000Y-93948250D01*
X93465750Y-94107000D01*
X94615000Y-94107000D01*
X94615000Y-92957750D01*
X94456250Y-92799000D01*
X93942000Y-92795928D01*
X93817518Y-92808188D01*
X93697820Y-92844498D01*
X93587506Y-92903463D01*
X93490815Y-92982815D01*
X93411463Y-93079506D01*
X93352498Y-93189820D01*
X93316188Y-93309518D01*
X93303928Y-93434000D01*
X70127000Y-93434000D01*
X70127000Y-92880711D01*
X70145937Y-92861774D01*
X70259205Y-92692256D01*
X70337226Y-92503898D01*
X70377000Y-92303939D01*
X70377000Y-92100061D01*
X70337226Y-91900102D01*
X70261382Y-91717000D01*
X94246213Y-91717000D01*
X95326428Y-92797216D01*
X95027750Y-92799000D01*
X94869000Y-92957750D01*
X94869000Y-94107000D01*
X94889000Y-94107000D01*
X94889000Y-94361000D01*
X94869000Y-94361000D01*
X94869000Y-95510250D01*
X95027750Y-95669000D01*
X95542000Y-95672072D01*
X95666482Y-95659812D01*
X95786180Y-95623502D01*
X95896494Y-95564537D01*
X95993185Y-95485185D01*
X96006790Y-95468607D01*
X96062273Y-95505680D01*
X96323426Y-95613853D01*
X96600665Y-95669000D01*
X96883335Y-95669000D01*
X97160574Y-95613853D01*
X97421727Y-95505680D01*
X97656759Y-95348637D01*
X97856637Y-95148759D01*
X98013680Y-94913727D01*
X98121853Y-94652574D01*
X98177000Y-94375335D01*
X98177000Y-94092665D01*
X98121853Y-93815426D01*
X98013680Y-93554273D01*
X97856637Y-93319241D01*
X97656759Y-93119363D01*
X97523689Y-93030448D01*
X97515641Y-92948743D01*
X97470754Y-92800770D01*
X97397862Y-92664397D01*
X97299764Y-92544866D01*
X97269816Y-92520288D01*
X95153717Y-90404190D01*
X95129134Y-90374236D01*
X95009603Y-90276138D01*
X94873230Y-90203246D01*
X94725257Y-90158359D01*
X94609931Y-90147000D01*
X94609923Y-90147000D01*
X94571370Y-90143203D01*
X94532817Y-90147000D01*
X59205000Y-90147000D01*
X59205000Y-89311382D01*
X59388102Y-89387226D01*
X59588061Y-89427000D01*
X59791939Y-89427000D01*
X59991898Y-89387226D01*
X60180256Y-89309205D01*
X60349774Y-89195937D01*
X60493937Y-89051774D01*
X60607205Y-88882256D01*
X60685226Y-88693898D01*
X60725000Y-88493939D01*
X60725000Y-88290061D01*
X60685226Y-88090102D01*
X60607205Y-87901744D01*
X60493937Y-87732226D01*
X60475000Y-87713289D01*
X60475000Y-84366000D01*
X63331928Y-84366000D01*
X63344188Y-84490482D01*
X63380498Y-84610180D01*
X63439463Y-84720494D01*
X63518815Y-84817185D01*
X63615506Y-84896537D01*
X63725820Y-84955502D01*
X63845518Y-84991812D01*
X63970000Y-85004072D01*
X64484250Y-85001000D01*
X64643000Y-84842250D01*
X64643000Y-83693000D01*
X63493750Y-83693000D01*
X63335000Y-83851750D01*
X63331928Y-84366000D01*
X60475000Y-84366000D01*
X60475000Y-82766000D01*
X63331928Y-82766000D01*
X63335000Y-83280250D01*
X63493750Y-83439000D01*
X64643000Y-83439000D01*
X64643000Y-82289750D01*
X64897000Y-82289750D01*
X64897000Y-83439000D01*
X64917000Y-83439000D01*
X64917000Y-83693000D01*
X64897000Y-83693000D01*
X64897000Y-84842250D01*
X65055750Y-85001000D01*
X65570000Y-85004072D01*
X65694482Y-84991812D01*
X65814180Y-84955502D01*
X65924494Y-84896537D01*
X66021185Y-84817185D01*
X66034790Y-84800607D01*
X66090273Y-84837680D01*
X66351426Y-84945853D01*
X66628665Y-85001000D01*
X66911335Y-85001000D01*
X67188574Y-84945853D01*
X67449727Y-84837680D01*
X67684759Y-84680637D01*
X67884637Y-84480759D01*
X68041680Y-84245727D01*
X68149853Y-83984574D01*
X68205000Y-83707335D01*
X68205000Y-83528000D01*
X84921928Y-83528000D01*
X84921928Y-85128000D01*
X84934188Y-85252482D01*
X84970498Y-85372180D01*
X85029463Y-85482494D01*
X85108815Y-85579185D01*
X85125393Y-85592790D01*
X85088320Y-85648273D01*
X84980147Y-85909426D01*
X84925000Y-86186665D01*
X84925000Y-86469335D01*
X84980147Y-86746574D01*
X85088320Y-87007727D01*
X85245363Y-87242759D01*
X85445241Y-87442637D01*
X85680273Y-87599680D01*
X85941426Y-87707853D01*
X86218665Y-87763000D01*
X86501335Y-87763000D01*
X86778574Y-87707853D01*
X87039727Y-87599680D01*
X87274759Y-87442637D01*
X87474637Y-87242759D01*
X87631680Y-87007727D01*
X87739853Y-86746574D01*
X87795000Y-86469335D01*
X87795000Y-86186665D01*
X87739853Y-85909426D01*
X87631680Y-85648273D01*
X87594607Y-85592790D01*
X87611185Y-85579185D01*
X87690537Y-85482494D01*
X87749502Y-85372180D01*
X87785812Y-85252482D01*
X87798072Y-85128000D01*
X87798072Y-83528000D01*
X87785812Y-83403518D01*
X87749502Y-83283820D01*
X87690537Y-83173506D01*
X87611185Y-83076815D01*
X87514494Y-82997463D01*
X87404180Y-82938498D01*
X87284482Y-82902188D01*
X87160000Y-82889928D01*
X85560000Y-82889928D01*
X85435518Y-82902188D01*
X85315820Y-82938498D01*
X85205506Y-82997463D01*
X85108815Y-83076815D01*
X85029463Y-83173506D01*
X84970498Y-83283820D01*
X84934188Y-83403518D01*
X84921928Y-83528000D01*
X68205000Y-83528000D01*
X68205000Y-83424665D01*
X68149853Y-83147426D01*
X68041680Y-82886273D01*
X67884637Y-82651241D01*
X67684759Y-82451363D01*
X67449727Y-82294320D01*
X67188574Y-82186147D01*
X66911335Y-82131000D01*
X66628665Y-82131000D01*
X66351426Y-82186147D01*
X66090273Y-82294320D01*
X66034790Y-82331393D01*
X66021185Y-82314815D01*
X65924494Y-82235463D01*
X65814180Y-82176498D01*
X65694482Y-82140188D01*
X65570000Y-82127928D01*
X65055750Y-82131000D01*
X64897000Y-82289750D01*
X64643000Y-82289750D01*
X64484250Y-82131000D01*
X63970000Y-82127928D01*
X63845518Y-82140188D01*
X63725820Y-82176498D01*
X63615506Y-82235463D01*
X63518815Y-82314815D01*
X63439463Y-82411506D01*
X63380498Y-82521820D01*
X63344188Y-82641518D01*
X63331928Y-82766000D01*
X60475000Y-82766000D01*
X60475000Y-79779000D01*
X93555289Y-79779000D01*
X93574226Y-79797937D01*
X93743744Y-79911205D01*
X93932102Y-79989226D01*
X94132061Y-80029000D01*
X94335939Y-80029000D01*
X94535898Y-79989226D01*
X94724256Y-79911205D01*
X94893774Y-79797937D01*
X95037937Y-79653774D01*
X95151205Y-79484256D01*
X95229226Y-79295898D01*
X95269000Y-79095939D01*
X95269000Y-78892061D01*
X95229226Y-78692102D01*
X95151205Y-78503744D01*
X95037937Y-78334226D01*
X94893774Y-78190063D01*
X94724256Y-78076795D01*
X94535898Y-77998774D01*
X94335939Y-77959000D01*
X94132061Y-77959000D01*
X93932102Y-77998774D01*
X93743744Y-78076795D01*
X93574226Y-78190063D01*
X93555289Y-78209000D01*
X60475000Y-78209000D01*
X60475000Y-75608711D01*
X60493937Y-75589774D01*
X60607205Y-75420256D01*
X60685226Y-75231898D01*
X60725000Y-75031939D01*
X60725000Y-74828061D01*
X60685226Y-74628102D01*
X60607205Y-74439744D01*
X60493937Y-74270226D01*
X60475000Y-74251289D01*
X60475000Y-71540000D01*
X66075928Y-71540000D01*
X66075928Y-73240000D01*
X66088188Y-73364482D01*
X66124498Y-73484180D01*
X66183463Y-73594494D01*
X66262815Y-73691185D01*
X66359506Y-73770537D01*
X66469820Y-73829502D01*
X66542380Y-73851513D01*
X66410525Y-73983368D01*
X66248010Y-74226589D01*
X66136068Y-74496842D01*
X66079000Y-74783740D01*
X66079000Y-75076260D01*
X66136068Y-75363158D01*
X66248010Y-75633411D01*
X66410525Y-75876632D01*
X66617368Y-76083475D01*
X66860589Y-76245990D01*
X67130842Y-76357932D01*
X67417740Y-76415000D01*
X67710260Y-76415000D01*
X67997158Y-76357932D01*
X68267411Y-76245990D01*
X68510632Y-76083475D01*
X68717475Y-75876632D01*
X68879990Y-75633411D01*
X68991932Y-75363158D01*
X69049000Y-75076260D01*
X69049000Y-74783740D01*
X68991932Y-74496842D01*
X68879990Y-74226589D01*
X68717475Y-73983368D01*
X68585620Y-73851513D01*
X68658180Y-73829502D01*
X68768494Y-73770537D01*
X68865185Y-73691185D01*
X68944537Y-73594494D01*
X69003502Y-73484180D01*
X69039812Y-73364482D01*
X69052072Y-73240000D01*
X69052072Y-71540000D01*
X69039812Y-71415518D01*
X69003502Y-71295820D01*
X68944537Y-71185506D01*
X68865185Y-71088815D01*
X68768494Y-71009463D01*
X68658180Y-70950498D01*
X68538482Y-70914188D01*
X68414000Y-70901928D01*
X66714000Y-70901928D01*
X66589518Y-70914188D01*
X66469820Y-70950498D01*
X66359506Y-71009463D01*
X66262815Y-71088815D01*
X66183463Y-71185506D01*
X66124498Y-71295820D01*
X66088188Y-71415518D01*
X66075928Y-71540000D01*
X60475000Y-71540000D01*
X60475000Y-71501000D01*
X63246000Y-71501000D01*
X63270776Y-71498560D01*
X63294601Y-71491333D01*
X63316557Y-71479597D01*
X63335803Y-71463803D01*
X63351597Y-71444557D01*
X63363333Y-71422601D01*
X63370560Y-71398776D01*
X63373000Y-71374000D01*
X63373000Y-67183000D01*
X86233000Y-67183000D01*
X86233000Y-74676000D01*
G36*
X57635001Y-75907430D02*
G01*
X57635000Y-75907440D01*
X57635001Y-90893429D01*
X57631202Y-90932000D01*
X57635000Y-90970561D01*
X57635001Y-97767000D01*
X41062072Y-97767000D01*
X41062072Y-96228000D01*
X41049812Y-96103518D01*
X41013502Y-95983820D01*
X40954537Y-95873506D01*
X40875185Y-95776815D01*
X40778494Y-95697463D01*
X40668180Y-95638498D01*
X40548482Y-95602188D01*
X40424000Y-95589928D01*
X38824000Y-95589928D01*
X38699518Y-95602188D01*
X38579820Y-95638498D01*
X38469506Y-95697463D01*
X38372815Y-95776815D01*
X38293463Y-95873506D01*
X38234498Y-95983820D01*
X38198188Y-96103518D01*
X38185928Y-96228000D01*
X38185928Y-97767000D01*
X33853158Y-97767000D01*
X33408554Y-97322396D01*
X33439000Y-97169335D01*
X33439000Y-96886665D01*
X33383853Y-96609426D01*
X33275680Y-96348273D01*
X33118637Y-96113241D01*
X32918759Y-95913363D01*
X32683727Y-95756320D01*
X32422574Y-95648147D01*
X32145335Y-95593000D01*
X31862665Y-95593000D01*
X31585426Y-95648147D01*
X31369000Y-95737793D01*
X31369000Y-91714207D01*
X31585426Y-91803853D01*
X31862665Y-91859000D01*
X32145335Y-91859000D01*
X32422574Y-91803853D01*
X32683727Y-91695680D01*
X32918759Y-91538637D01*
X33118637Y-91338759D01*
X33275680Y-91103727D01*
X33383853Y-90842574D01*
X33439000Y-90565335D01*
X33439000Y-90282665D01*
X33383853Y-90005426D01*
X33275680Y-89744273D01*
X33195317Y-89624000D01*
X38185928Y-89624000D01*
X38185928Y-91224000D01*
X38198188Y-91348482D01*
X38234498Y-91468180D01*
X38293463Y-91578494D01*
X38372815Y-91675185D01*
X38469506Y-91754537D01*
X38579820Y-91813502D01*
X38699518Y-91849812D01*
X38824000Y-91862072D01*
X40424000Y-91862072D01*
X40548482Y-91849812D01*
X40668180Y-91813502D01*
X40778494Y-91754537D01*
X40875185Y-91675185D01*
X40954537Y-91578494D01*
X41013502Y-91468180D01*
X41049812Y-91348482D01*
X41062072Y-91224000D01*
X41062072Y-89624000D01*
X41049812Y-89499518D01*
X41013502Y-89379820D01*
X40954537Y-89269506D01*
X40875185Y-89172815D01*
X40778494Y-89093463D01*
X40668180Y-89034498D01*
X40548482Y-88998188D01*
X40424000Y-88985928D01*
X38824000Y-88985928D01*
X38699518Y-88998188D01*
X38579820Y-89034498D01*
X38469506Y-89093463D01*
X38372815Y-89172815D01*
X38293463Y-89269506D01*
X38234498Y-89379820D01*
X38198188Y-89499518D01*
X38185928Y-89624000D01*
X33195317Y-89624000D01*
X33118637Y-89509241D01*
X32918759Y-89309363D01*
X32683727Y-89152320D01*
X32422574Y-89044147D01*
X32145335Y-88989000D01*
X31862665Y-88989000D01*
X31585426Y-89044147D01*
X31369000Y-89133793D01*
X31369000Y-82521653D01*
X31411506Y-82556537D01*
X31521820Y-82615502D01*
X31641518Y-82651812D01*
X31766000Y-82664072D01*
X33766000Y-82664072D01*
X33890482Y-82651812D01*
X34010180Y-82615502D01*
X34120494Y-82556537D01*
X34217185Y-82477185D01*
X34296537Y-82380494D01*
X34355502Y-82270180D01*
X34391812Y-82150482D01*
X34404072Y-82026000D01*
X34404072Y-80026000D01*
X34391812Y-79901518D01*
X34355502Y-79781820D01*
X34296537Y-79671506D01*
X34217185Y-79574815D01*
X34120494Y-79495463D01*
X34010180Y-79436498D01*
X33890482Y-79400188D01*
X33766000Y-79387928D01*
X31766000Y-79387928D01*
X31641518Y-79400188D01*
X31521820Y-79436498D01*
X31411506Y-79495463D01*
X31369000Y-79530347D01*
X31369000Y-77597000D01*
X40084843Y-77597000D01*
X38230483Y-79451360D01*
X37927033Y-79391000D01*
X37604967Y-79391000D01*
X37289088Y-79453832D01*
X36991537Y-79577082D01*
X36723748Y-79756013D01*
X36496013Y-79983748D01*
X36317082Y-80251537D01*
X36193832Y-80549088D01*
X36131000Y-80864967D01*
X36131000Y-81187033D01*
X36193832Y-81502912D01*
X36317082Y-81800463D01*
X36496013Y-82068252D01*
X36723748Y-82295987D01*
X36991537Y-82474918D01*
X37289088Y-82598168D01*
X37604967Y-82661000D01*
X37927033Y-82661000D01*
X38242912Y-82598168D01*
X38540463Y-82474918D01*
X38808252Y-82295987D01*
X39035987Y-82068252D01*
X39214918Y-81800463D01*
X39338168Y-81502912D01*
X39401000Y-81187033D01*
X39401000Y-80864967D01*
X39340640Y-80561517D01*
X42305157Y-77597000D01*
X43434000Y-77597000D01*
X43458776Y-77594560D01*
X43482601Y-77587333D01*
X43504557Y-77575597D01*
X43523803Y-77559803D01*
X43539597Y-77540557D01*
X43551333Y-77518601D01*
X43558560Y-77494776D01*
X43561000Y-77470000D01*
X43561000Y-76606061D01*
X44685000Y-76606061D01*
X44685000Y-76809939D01*
X44724774Y-77009898D01*
X44802795Y-77198256D01*
X44916063Y-77367774D01*
X44935000Y-77386711D01*
X44935001Y-84919288D01*
X44916063Y-84938226D01*
X44802795Y-85107744D01*
X44724774Y-85296102D01*
X44685000Y-85496061D01*
X44685000Y-85699939D01*
X44724774Y-85899898D01*
X44802795Y-86088256D01*
X44916063Y-86257774D01*
X45060226Y-86401937D01*
X45229744Y-86515205D01*
X45418102Y-86593226D01*
X45618061Y-86633000D01*
X45821939Y-86633000D01*
X46021898Y-86593226D01*
X46210256Y-86515205D01*
X46379774Y-86401937D01*
X46523937Y-86257774D01*
X46637205Y-86088256D01*
X46715226Y-85899898D01*
X46755000Y-85699939D01*
X46755000Y-85496061D01*
X46715226Y-85296102D01*
X46637205Y-85107744D01*
X46523937Y-84938226D01*
X46505000Y-84919289D01*
X46505000Y-77386711D01*
X46523937Y-77367774D01*
X46637205Y-77198256D01*
X46715226Y-77009898D01*
X46755000Y-76809939D01*
X46755000Y-76606061D01*
X46715226Y-76406102D01*
X46637205Y-76217744D01*
X46523937Y-76048226D01*
X46379774Y-75904063D01*
X46210256Y-75790795D01*
X46021898Y-75712774D01*
X45821939Y-75673000D01*
X45618061Y-75673000D01*
X45418102Y-75712774D01*
X45229744Y-75790795D01*
X45060226Y-75904063D01*
X44916063Y-76048226D01*
X44802795Y-76217744D01*
X44724774Y-76406102D01*
X44685000Y-76606061D01*
X43561000Y-76606061D01*
X43561000Y-76341157D01*
X48401158Y-71501000D01*
X57635000Y-71501000D01*
X57635001Y-75907430D01*
G37*
X57635001Y-75907430D02*
X57635000Y-75907440D01*
X57635001Y-90893429D01*
X57631202Y-90932000D01*
X57635000Y-90970561D01*
X57635001Y-97767000D01*
X41062072Y-97767000D01*
X41062072Y-96228000D01*
X41049812Y-96103518D01*
X41013502Y-95983820D01*
X40954537Y-95873506D01*
X40875185Y-95776815D01*
X40778494Y-95697463D01*
X40668180Y-95638498D01*
X40548482Y-95602188D01*
X40424000Y-95589928D01*
X38824000Y-95589928D01*
X38699518Y-95602188D01*
X38579820Y-95638498D01*
X38469506Y-95697463D01*
X38372815Y-95776815D01*
X38293463Y-95873506D01*
X38234498Y-95983820D01*
X38198188Y-96103518D01*
X38185928Y-96228000D01*
X38185928Y-97767000D01*
X33853158Y-97767000D01*
X33408554Y-97322396D01*
X33439000Y-97169335D01*
X33439000Y-96886665D01*
X33383853Y-96609426D01*
X33275680Y-96348273D01*
X33118637Y-96113241D01*
X32918759Y-95913363D01*
X32683727Y-95756320D01*
X32422574Y-95648147D01*
X32145335Y-95593000D01*
X31862665Y-95593000D01*
X31585426Y-95648147D01*
X31369000Y-95737793D01*
X31369000Y-91714207D01*
X31585426Y-91803853D01*
X31862665Y-91859000D01*
X32145335Y-91859000D01*
X32422574Y-91803853D01*
X32683727Y-91695680D01*
X32918759Y-91538637D01*
X33118637Y-91338759D01*
X33275680Y-91103727D01*
X33383853Y-90842574D01*
X33439000Y-90565335D01*
X33439000Y-90282665D01*
X33383853Y-90005426D01*
X33275680Y-89744273D01*
X33195317Y-89624000D01*
X38185928Y-89624000D01*
X38185928Y-91224000D01*
X38198188Y-91348482D01*
X38234498Y-91468180D01*
X38293463Y-91578494D01*
X38372815Y-91675185D01*
X38469506Y-91754537D01*
X38579820Y-91813502D01*
X38699518Y-91849812D01*
X38824000Y-91862072D01*
X40424000Y-91862072D01*
X40548482Y-91849812D01*
X40668180Y-91813502D01*
X40778494Y-91754537D01*
X40875185Y-91675185D01*
X40954537Y-91578494D01*
X41013502Y-91468180D01*
X41049812Y-91348482D01*
X41062072Y-91224000D01*
X41062072Y-89624000D01*
X41049812Y-89499518D01*
X41013502Y-89379820D01*
X40954537Y-89269506D01*
X40875185Y-89172815D01*
X40778494Y-89093463D01*
X40668180Y-89034498D01*
X40548482Y-88998188D01*
X40424000Y-88985928D01*
X38824000Y-88985928D01*
X38699518Y-88998188D01*
X38579820Y-89034498D01*
X38469506Y-89093463D01*
X38372815Y-89172815D01*
X38293463Y-89269506D01*
X38234498Y-89379820D01*
X38198188Y-89499518D01*
X38185928Y-89624000D01*
X33195317Y-89624000D01*
X33118637Y-89509241D01*
X32918759Y-89309363D01*
X32683727Y-89152320D01*
X32422574Y-89044147D01*
X32145335Y-88989000D01*
X31862665Y-88989000D01*
X31585426Y-89044147D01*
X31369000Y-89133793D01*
X31369000Y-82521653D01*
X31411506Y-82556537D01*
X31521820Y-82615502D01*
X31641518Y-82651812D01*
X31766000Y-82664072D01*
X33766000Y-82664072D01*
X33890482Y-82651812D01*
X34010180Y-82615502D01*
X34120494Y-82556537D01*
X34217185Y-82477185D01*
X34296537Y-82380494D01*
X34355502Y-82270180D01*
X34391812Y-82150482D01*
X34404072Y-82026000D01*
X34404072Y-80026000D01*
X34391812Y-79901518D01*
X34355502Y-79781820D01*
X34296537Y-79671506D01*
X34217185Y-79574815D01*
X34120494Y-79495463D01*
X34010180Y-79436498D01*
X33890482Y-79400188D01*
X33766000Y-79387928D01*
X31766000Y-79387928D01*
X31641518Y-79400188D01*
X31521820Y-79436498D01*
X31411506Y-79495463D01*
X31369000Y-79530347D01*
X31369000Y-77597000D01*
X40084843Y-77597000D01*
X38230483Y-79451360D01*
X37927033Y-79391000D01*
X37604967Y-79391000D01*
X37289088Y-79453832D01*
X36991537Y-79577082D01*
X36723748Y-79756013D01*
X36496013Y-79983748D01*
X36317082Y-80251537D01*
X36193832Y-80549088D01*
X36131000Y-80864967D01*
X36131000Y-81187033D01*
X36193832Y-81502912D01*
X36317082Y-81800463D01*
X36496013Y-82068252D01*
X36723748Y-82295987D01*
X36991537Y-82474918D01*
X37289088Y-82598168D01*
X37604967Y-82661000D01*
X37927033Y-82661000D01*
X38242912Y-82598168D01*
X38540463Y-82474918D01*
X38808252Y-82295987D01*
X39035987Y-82068252D01*
X39214918Y-81800463D01*
X39338168Y-81502912D01*
X39401000Y-81187033D01*
X39401000Y-80864967D01*
X39340640Y-80561517D01*
X42305157Y-77597000D01*
X43434000Y-77597000D01*
X43458776Y-77594560D01*
X43482601Y-77587333D01*
X43504557Y-77575597D01*
X43523803Y-77559803D01*
X43539597Y-77540557D01*
X43551333Y-77518601D01*
X43558560Y-77494776D01*
X43561000Y-77470000D01*
X43561000Y-76606061D01*
X44685000Y-76606061D01*
X44685000Y-76809939D01*
X44724774Y-77009898D01*
X44802795Y-77198256D01*
X44916063Y-77367774D01*
X44935000Y-77386711D01*
X44935001Y-84919288D01*
X44916063Y-84938226D01*
X44802795Y-85107744D01*
X44724774Y-85296102D01*
X44685000Y-85496061D01*
X44685000Y-85699939D01*
X44724774Y-85899898D01*
X44802795Y-86088256D01*
X44916063Y-86257774D01*
X45060226Y-86401937D01*
X45229744Y-86515205D01*
X45418102Y-86593226D01*
X45618061Y-86633000D01*
X45821939Y-86633000D01*
X46021898Y-86593226D01*
X46210256Y-86515205D01*
X46379774Y-86401937D01*
X46523937Y-86257774D01*
X46637205Y-86088256D01*
X46715226Y-85899898D01*
X46755000Y-85699939D01*
X46755000Y-85496061D01*
X46715226Y-85296102D01*
X46637205Y-85107744D01*
X46523937Y-84938226D01*
X46505000Y-84919289D01*
X46505000Y-77386711D01*
X46523937Y-77367774D01*
X46637205Y-77198256D01*
X46715226Y-77009898D01*
X46755000Y-76809939D01*
X46755000Y-76606061D01*
X46715226Y-76406102D01*
X46637205Y-76217744D01*
X46523937Y-76048226D01*
X46379774Y-75904063D01*
X46210256Y-75790795D01*
X46021898Y-75712774D01*
X45821939Y-75673000D01*
X45618061Y-75673000D01*
X45418102Y-75712774D01*
X45229744Y-75790795D01*
X45060226Y-75904063D01*
X44916063Y-76048226D01*
X44802795Y-76217744D01*
X44724774Y-76406102D01*
X44685000Y-76606061D01*
X43561000Y-76606061D01*
X43561000Y-76341157D01*
X48401158Y-71501000D01*
X57635000Y-71501000D01*
X57635001Y-75907430D01*
G36*
X72137796Y-106721381D02*
G01*
X72809545Y-106855000D01*
X73229901Y-106855000D01*
X73277747Y-111759205D01*
X68221278Y-111727992D01*
X71209174Y-108740097D01*
X71315136Y-108653136D01*
X71402098Y-108547173D01*
X71662163Y-108230284D01*
X71920027Y-107747854D01*
X71931808Y-107709018D01*
X72078819Y-107224387D01*
X72119000Y-106816419D01*
X72119000Y-106816409D01*
X72128729Y-106717625D01*
X72137796Y-106721381D01*
G37*
X72137796Y-106721381D02*
X72809545Y-106855000D01*
X73229901Y-106855000D01*
X73277747Y-111759205D01*
X68221278Y-111727992D01*
X71209174Y-108740097D01*
X71315136Y-108653136D01*
X71402098Y-108547173D01*
X71662163Y-108230284D01*
X71920027Y-107747854D01*
X71931808Y-107709018D01*
X72078819Y-107224387D01*
X72119000Y-106816419D01*
X72119000Y-106816409D01*
X72128729Y-106717625D01*
X72137796Y-106721381D01*
G36*
X73137153Y-97348290D02*
G01*
X72302000Y-97348290D01*
X72119000Y-97366314D01*
X72119000Y-95947660D01*
X72252674Y-95624943D01*
X72369000Y-95040133D01*
X72369000Y-94443867D01*
X72252674Y-93859057D01*
X72190518Y-93709000D01*
X73101648Y-93709000D01*
X73137153Y-97348290D01*
G37*
X73137153Y-97348290D02*
X72302000Y-97348290D01*
X72119000Y-97366314D01*
X72119000Y-95947660D01*
X72252674Y-95624943D01*
X72369000Y-95040133D01*
X72369000Y-94443867D01*
X72252674Y-93859057D01*
X72190518Y-93709000D01*
X73101648Y-93709000D01*
X73137153Y-97348290D01*
G36*
X42693000Y-85418426D02*
G01*
X42693000Y-85896133D01*
X42809326Y-86480943D01*
X43037508Y-87031822D01*
X43368776Y-87527600D01*
X43790400Y-87949224D01*
X44286178Y-88280492D01*
X44837057Y-88508674D01*
X45421867Y-88625000D01*
X46018133Y-88625000D01*
X46602943Y-88508674D01*
X47153822Y-88280492D01*
X47649600Y-87949224D01*
X48071224Y-87527600D01*
X48402492Y-87031822D01*
X48630674Y-86480943D01*
X48747000Y-85896133D01*
X48747000Y-85529849D01*
X55643001Y-85656769D01*
X55643001Y-90795571D01*
X55629564Y-90932000D01*
X55643000Y-91068419D01*
X55643001Y-95775000D01*
X43019094Y-95775000D01*
X43012989Y-95713018D01*
X42862774Y-95217827D01*
X42618839Y-94761456D01*
X42290557Y-94361443D01*
X41890544Y-94033161D01*
X41434173Y-93789226D01*
X41225745Y-93726000D01*
X41434173Y-93662774D01*
X41890544Y-93418839D01*
X42290557Y-93090557D01*
X42618839Y-92690544D01*
X42862774Y-92234173D01*
X43012989Y-91738982D01*
X43063710Y-91224000D01*
X43063710Y-89624000D01*
X43012989Y-89109018D01*
X42862774Y-88613827D01*
X42618839Y-88157456D01*
X42290557Y-87757443D01*
X41890544Y-87429161D01*
X41434173Y-87185226D01*
X40938982Y-87035011D01*
X40424000Y-86984290D01*
X38824000Y-86984290D01*
X38309018Y-87035011D01*
X37813827Y-87185226D01*
X37357456Y-87429161D01*
X36957443Y-87757443D01*
X36629161Y-88157456D01*
X36385226Y-88613827D01*
X36235011Y-89109018D01*
X36184290Y-89624000D01*
X36184290Y-91224000D01*
X36235011Y-91738982D01*
X36385226Y-92234173D01*
X36629161Y-92690544D01*
X36957443Y-93090557D01*
X37357456Y-93418839D01*
X37813827Y-93662774D01*
X38022255Y-93726000D01*
X37813827Y-93789226D01*
X37357456Y-94033161D01*
X36957443Y-94361443D01*
X36629161Y-94761456D01*
X36385226Y-95217827D01*
X36235011Y-95713018D01*
X36228906Y-95775000D01*
X35194349Y-95775000D01*
X35040968Y-95404707D01*
X34665925Y-94843415D01*
X34188585Y-94366075D01*
X33627293Y-93991032D01*
X33003619Y-93732697D01*
X32969951Y-93726000D01*
X33003619Y-93719303D01*
X33627293Y-93460968D01*
X34188585Y-93085925D01*
X34665925Y-92608585D01*
X35040968Y-92047293D01*
X35299303Y-91423619D01*
X35431000Y-90761530D01*
X35431000Y-90086470D01*
X35299303Y-89424381D01*
X35040968Y-88800707D01*
X34665925Y-88239415D01*
X34188585Y-87762075D01*
X33627293Y-87387032D01*
X33003619Y-87128697D01*
X32341530Y-86997000D01*
X31913521Y-86997000D01*
X31879500Y-85219404D01*
X42693000Y-85418426D01*
G37*
X42693000Y-85418426D02*
X42693000Y-85896133D01*
X42809326Y-86480943D01*
X43037508Y-87031822D01*
X43368776Y-87527600D01*
X43790400Y-87949224D01*
X44286178Y-88280492D01*
X44837057Y-88508674D01*
X45421867Y-88625000D01*
X46018133Y-88625000D01*
X46602943Y-88508674D01*
X47153822Y-88280492D01*
X47649600Y-87949224D01*
X48071224Y-87527600D01*
X48402492Y-87031822D01*
X48630674Y-86480943D01*
X48747000Y-85896133D01*
X48747000Y-85529849D01*
X55643001Y-85656769D01*
X55643001Y-90795571D01*
X55629564Y-90932000D01*
X55643000Y-91068419D01*
X55643001Y-95775000D01*
X43019094Y-95775000D01*
X43012989Y-95713018D01*
X42862774Y-95217827D01*
X42618839Y-94761456D01*
X42290557Y-94361443D01*
X41890544Y-94033161D01*
X41434173Y-93789226D01*
X41225745Y-93726000D01*
X41434173Y-93662774D01*
X41890544Y-93418839D01*
X42290557Y-93090557D01*
X42618839Y-92690544D01*
X42862774Y-92234173D01*
X43012989Y-91738982D01*
X43063710Y-91224000D01*
X43063710Y-89624000D01*
X43012989Y-89109018D01*
X42862774Y-88613827D01*
X42618839Y-88157456D01*
X42290557Y-87757443D01*
X41890544Y-87429161D01*
X41434173Y-87185226D01*
X40938982Y-87035011D01*
X40424000Y-86984290D01*
X38824000Y-86984290D01*
X38309018Y-87035011D01*
X37813827Y-87185226D01*
X37357456Y-87429161D01*
X36957443Y-87757443D01*
X36629161Y-88157456D01*
X36385226Y-88613827D01*
X36235011Y-89109018D01*
X36184290Y-89624000D01*
X36184290Y-91224000D01*
X36235011Y-91738982D01*
X36385226Y-92234173D01*
X36629161Y-92690544D01*
X36957443Y-93090557D01*
X37357456Y-93418839D01*
X37813827Y-93662774D01*
X38022255Y-93726000D01*
X37813827Y-93789226D01*
X37357456Y-94033161D01*
X36957443Y-94361443D01*
X36629161Y-94761456D01*
X36385226Y-95217827D01*
X36235011Y-95713018D01*
X36228906Y-95775000D01*
X35194349Y-95775000D01*
X35040968Y-95404707D01*
X34665925Y-94843415D01*
X34188585Y-94366075D01*
X33627293Y-93991032D01*
X33003619Y-93732697D01*
X32969951Y-93726000D01*
X33003619Y-93719303D01*
X33627293Y-93460968D01*
X34188585Y-93085925D01*
X34665925Y-92608585D01*
X35040968Y-92047293D01*
X35299303Y-91423619D01*
X35431000Y-90761530D01*
X35431000Y-90086470D01*
X35299303Y-89424381D01*
X35040968Y-88800707D01*
X34665925Y-88239415D01*
X34188585Y-87762075D01*
X33627293Y-87387032D01*
X33003619Y-87128697D01*
X32341530Y-86997000D01*
X31913521Y-86997000D01*
X31879500Y-85219404D01*
X42693000Y-85418426D01*
G36*
X64171221Y-85813731D02*
G01*
X64585415Y-86227925D01*
X65146707Y-86602968D01*
X65770381Y-86861303D01*
X66432470Y-86993000D01*
X67107530Y-86993000D01*
X67769619Y-86861303D01*
X68393293Y-86602968D01*
X68954585Y-86227925D01*
X69274848Y-85907662D01*
X73026211Y-85976706D01*
X73047463Y-88155000D01*
X62717000Y-88155000D01*
X62717000Y-88093867D01*
X62600674Y-87509057D01*
X62467000Y-87186340D01*
X62467000Y-85782365D01*
X64171221Y-85813731D01*
G37*
X64171221Y-85813731D02*
X64585415Y-86227925D01*
X65146707Y-86602968D01*
X65770381Y-86861303D01*
X66432470Y-86993000D01*
X67107530Y-86993000D01*
X67769619Y-86861303D01*
X68393293Y-86602968D01*
X68954585Y-86227925D01*
X69274848Y-85907662D01*
X73026211Y-85976706D01*
X73047463Y-88155000D01*
X62717000Y-88155000D01*
X62717000Y-88093867D01*
X62600674Y-87509057D01*
X62467000Y-87186340D01*
X62467000Y-85782365D01*
X64171221Y-85813731D01*
%TO.N,GNDA*%
G36*
X103251000Y-76835000D02*
G01*
X99949000Y-76835000D01*
X99949000Y-72898000D01*
X99946560Y-72873224D01*
X99939333Y-72849399D01*
X99927597Y-72827443D01*
X99911803Y-72808197D01*
X99892557Y-72792403D01*
X99870601Y-72780667D01*
X99846776Y-72773440D01*
X99822000Y-72771000D01*
X87757000Y-72771000D01*
X87757000Y-71100000D01*
X95901928Y-71100000D01*
X95914188Y-71224482D01*
X95950498Y-71344180D01*
X96009463Y-71454494D01*
X96088815Y-71551185D01*
X96185506Y-71630537D01*
X96295820Y-71689502D01*
X96415518Y-71725812D01*
X96540000Y-71738072D01*
X97504250Y-71735000D01*
X97663000Y-71576250D01*
X97663000Y-69977000D01*
X97917000Y-69977000D01*
X97917000Y-71576250D01*
X98075750Y-71735000D01*
X99040000Y-71738072D01*
X99164482Y-71725812D01*
X99284180Y-71689502D01*
X99394494Y-71630537D01*
X99491185Y-71551185D01*
X99570537Y-71454494D01*
X99629502Y-71344180D01*
X99665812Y-71224482D01*
X99678072Y-71100000D01*
X99675000Y-70135750D01*
X99516250Y-69977000D01*
X97917000Y-69977000D01*
X97663000Y-69977000D01*
X96063750Y-69977000D01*
X95905000Y-70135750D01*
X95901928Y-71100000D01*
X87757000Y-71100000D01*
X87757000Y-68600000D01*
X95901928Y-68600000D01*
X95905000Y-69564250D01*
X96063750Y-69723000D01*
X97663000Y-69723000D01*
X97663000Y-68123750D01*
X97917000Y-68123750D01*
X97917000Y-69723000D01*
X99516250Y-69723000D01*
X99675000Y-69564250D01*
X99678072Y-68600000D01*
X99665812Y-68475518D01*
X99629502Y-68355820D01*
X99570537Y-68245506D01*
X99491185Y-68148815D01*
X99394494Y-68069463D01*
X99284180Y-68010498D01*
X99164482Y-67974188D01*
X99040000Y-67961928D01*
X98075750Y-67965000D01*
X97917000Y-68123750D01*
X97663000Y-68123750D01*
X97504250Y-67965000D01*
X96540000Y-67961928D01*
X96415518Y-67974188D01*
X96295820Y-68010498D01*
X96185506Y-68069463D01*
X96088815Y-68148815D01*
X96009463Y-68245506D01*
X95950498Y-68355820D01*
X95914188Y-68475518D01*
X95901928Y-68600000D01*
X87757000Y-68600000D01*
X87757000Y-66163605D01*
X96656000Y-66163605D01*
X96781914Y-66453577D01*
X97114126Y-66619433D01*
X97472312Y-66717290D01*
X97842706Y-66743389D01*
X98211075Y-66696725D01*
X98563262Y-66579094D01*
X98798086Y-66453577D01*
X98924000Y-66163605D01*
X97790000Y-65029605D01*
X96656000Y-66163605D01*
X87757000Y-66163605D01*
X87757000Y-64902706D01*
X95896611Y-64902706D01*
X95943275Y-65271075D01*
X96060906Y-65623262D01*
X96186423Y-65858086D01*
X96476395Y-65984000D01*
X97610395Y-64850000D01*
X97969605Y-64850000D01*
X99103605Y-65984000D01*
X99393577Y-65858086D01*
X99559433Y-65525874D01*
X99657290Y-65167688D01*
X99683389Y-64797294D01*
X99636725Y-64428925D01*
X99519094Y-64076738D01*
X99393577Y-63841914D01*
X99103605Y-63716000D01*
X97969605Y-64850000D01*
X97610395Y-64850000D01*
X96476395Y-63716000D01*
X96186423Y-63841914D01*
X96020567Y-64174126D01*
X95922710Y-64532312D01*
X95896611Y-64902706D01*
X87757000Y-64902706D01*
X87757000Y-63536395D01*
X96656000Y-63536395D01*
X97790000Y-64670395D01*
X98924000Y-63536395D01*
X98798086Y-63246423D01*
X98465874Y-63080567D01*
X98107688Y-62982710D01*
X97737294Y-62956611D01*
X97368925Y-63003275D01*
X97016738Y-63120906D01*
X96781914Y-63246423D01*
X96656000Y-63536395D01*
X87757000Y-63536395D01*
X87757000Y-57785000D01*
X103251000Y-57785000D01*
X103251000Y-76835000D01*
G37*
X103251000Y-76835000D02*
X99949000Y-76835000D01*
X99949000Y-72898000D01*
X99946560Y-72873224D01*
X99939333Y-72849399D01*
X99927597Y-72827443D01*
X99911803Y-72808197D01*
X99892557Y-72792403D01*
X99870601Y-72780667D01*
X99846776Y-72773440D01*
X99822000Y-72771000D01*
X87757000Y-72771000D01*
X87757000Y-71100000D01*
X95901928Y-71100000D01*
X95914188Y-71224482D01*
X95950498Y-71344180D01*
X96009463Y-71454494D01*
X96088815Y-71551185D01*
X96185506Y-71630537D01*
X96295820Y-71689502D01*
X96415518Y-71725812D01*
X96540000Y-71738072D01*
X97504250Y-71735000D01*
X97663000Y-71576250D01*
X97663000Y-69977000D01*
X97917000Y-69977000D01*
X97917000Y-71576250D01*
X98075750Y-71735000D01*
X99040000Y-71738072D01*
X99164482Y-71725812D01*
X99284180Y-71689502D01*
X99394494Y-71630537D01*
X99491185Y-71551185D01*
X99570537Y-71454494D01*
X99629502Y-71344180D01*
X99665812Y-71224482D01*
X99678072Y-71100000D01*
X99675000Y-70135750D01*
X99516250Y-69977000D01*
X97917000Y-69977000D01*
X97663000Y-69977000D01*
X96063750Y-69977000D01*
X95905000Y-70135750D01*
X95901928Y-71100000D01*
X87757000Y-71100000D01*
X87757000Y-68600000D01*
X95901928Y-68600000D01*
X95905000Y-69564250D01*
X96063750Y-69723000D01*
X97663000Y-69723000D01*
X97663000Y-68123750D01*
X97917000Y-68123750D01*
X97917000Y-69723000D01*
X99516250Y-69723000D01*
X99675000Y-69564250D01*
X99678072Y-68600000D01*
X99665812Y-68475518D01*
X99629502Y-68355820D01*
X99570537Y-68245506D01*
X99491185Y-68148815D01*
X99394494Y-68069463D01*
X99284180Y-68010498D01*
X99164482Y-67974188D01*
X99040000Y-67961928D01*
X98075750Y-67965000D01*
X97917000Y-68123750D01*
X97663000Y-68123750D01*
X97504250Y-67965000D01*
X96540000Y-67961928D01*
X96415518Y-67974188D01*
X96295820Y-68010498D01*
X96185506Y-68069463D01*
X96088815Y-68148815D01*
X96009463Y-68245506D01*
X95950498Y-68355820D01*
X95914188Y-68475518D01*
X95901928Y-68600000D01*
X87757000Y-68600000D01*
X87757000Y-66163605D01*
X96656000Y-66163605D01*
X96781914Y-66453577D01*
X97114126Y-66619433D01*
X97472312Y-66717290D01*
X97842706Y-66743389D01*
X98211075Y-66696725D01*
X98563262Y-66579094D01*
X98798086Y-66453577D01*
X98924000Y-66163605D01*
X97790000Y-65029605D01*
X96656000Y-66163605D01*
X87757000Y-66163605D01*
X87757000Y-64902706D01*
X95896611Y-64902706D01*
X95943275Y-65271075D01*
X96060906Y-65623262D01*
X96186423Y-65858086D01*
X96476395Y-65984000D01*
X97610395Y-64850000D01*
X97969605Y-64850000D01*
X99103605Y-65984000D01*
X99393577Y-65858086D01*
X99559433Y-65525874D01*
X99657290Y-65167688D01*
X99683389Y-64797294D01*
X99636725Y-64428925D01*
X99519094Y-64076738D01*
X99393577Y-63841914D01*
X99103605Y-63716000D01*
X97969605Y-64850000D01*
X97610395Y-64850000D01*
X96476395Y-63716000D01*
X96186423Y-63841914D01*
X96020567Y-64174126D01*
X95922710Y-64532312D01*
X95896611Y-64902706D01*
X87757000Y-64902706D01*
X87757000Y-63536395D01*
X96656000Y-63536395D01*
X97790000Y-64670395D01*
X98924000Y-63536395D01*
X98798086Y-63246423D01*
X98465874Y-63080567D01*
X98107688Y-62982710D01*
X97737294Y-62956611D01*
X97368925Y-63003275D01*
X97016738Y-63120906D01*
X96781914Y-63246423D01*
X96656000Y-63536395D01*
X87757000Y-63536395D01*
X87757000Y-57785000D01*
X103251000Y-57785000D01*
X103251000Y-76835000D01*
%TO.N,GND*%
G36*
X29216697Y-46211619D02*
G01*
X29475032Y-46835293D01*
X29850075Y-47396585D01*
X30327415Y-47873925D01*
X30670465Y-48103144D01*
X30421552Y-48206247D01*
X29786557Y-48630538D01*
X29246538Y-49170557D01*
X28822247Y-49805552D01*
X28529991Y-50511121D01*
X28381000Y-51260149D01*
X28381000Y-52023851D01*
X28529991Y-52772879D01*
X28822247Y-53478448D01*
X28982807Y-53718742D01*
X28813161Y-53925456D01*
X28569226Y-54381827D01*
X28419011Y-54877018D01*
X28368290Y-55392000D01*
X28368290Y-57892000D01*
X28419011Y-58406982D01*
X28569226Y-58902173D01*
X28813161Y-59358544D01*
X29141443Y-59758557D01*
X29541456Y-60086839D01*
X29997827Y-60330774D01*
X30493018Y-60480989D01*
X31008000Y-60531710D01*
X33508000Y-60531710D01*
X34022982Y-60480989D01*
X34518173Y-60330774D01*
X34974544Y-60086839D01*
X35374557Y-59758557D01*
X35702839Y-59358544D01*
X35946774Y-58902173D01*
X36096989Y-58406982D01*
X36147710Y-57892000D01*
X36147710Y-55392000D01*
X36096989Y-54877018D01*
X35946774Y-54381827D01*
X35702839Y-53925456D01*
X35533193Y-53718742D01*
X35693753Y-53478448D01*
X35986009Y-52772879D01*
X36135000Y-52023851D01*
X36135000Y-51260149D01*
X35986009Y-50511121D01*
X35693753Y-49805552D01*
X35269462Y-49170557D01*
X34729443Y-48630538D01*
X34146839Y-48241253D01*
X34524363Y-47989000D01*
X35169591Y-47989000D01*
X35306000Y-48002435D01*
X35442409Y-47989000D01*
X35442419Y-47989000D01*
X35850387Y-47948819D01*
X36373854Y-47790027D01*
X36856283Y-47532163D01*
X37071440Y-47355588D01*
X37137161Y-47478544D01*
X37465443Y-47878557D01*
X37865456Y-48206839D01*
X38321827Y-48450774D01*
X38817018Y-48600989D01*
X39332000Y-48651710D01*
X40932000Y-48651710D01*
X41446982Y-48600989D01*
X41942173Y-48450774D01*
X42398544Y-48206839D01*
X42798557Y-47878557D01*
X43126839Y-47478544D01*
X43370774Y-47022173D01*
X43520989Y-46526982D01*
X43562944Y-46101000D01*
X50927000Y-46101000D01*
X50927000Y-60579000D01*
X28052000Y-60579000D01*
X28052000Y-46101000D01*
X29194694Y-46101000D01*
X29216697Y-46211619D01*
G37*
X29216697Y-46211619D02*
X29475032Y-46835293D01*
X29850075Y-47396585D01*
X30327415Y-47873925D01*
X30670465Y-48103144D01*
X30421552Y-48206247D01*
X29786557Y-48630538D01*
X29246538Y-49170557D01*
X28822247Y-49805552D01*
X28529991Y-50511121D01*
X28381000Y-51260149D01*
X28381000Y-52023851D01*
X28529991Y-52772879D01*
X28822247Y-53478448D01*
X28982807Y-53718742D01*
X28813161Y-53925456D01*
X28569226Y-54381827D01*
X28419011Y-54877018D01*
X28368290Y-55392000D01*
X28368290Y-57892000D01*
X28419011Y-58406982D01*
X28569226Y-58902173D01*
X28813161Y-59358544D01*
X29141443Y-59758557D01*
X29541456Y-60086839D01*
X29997827Y-60330774D01*
X30493018Y-60480989D01*
X31008000Y-60531710D01*
X33508000Y-60531710D01*
X34022982Y-60480989D01*
X34518173Y-60330774D01*
X34974544Y-60086839D01*
X35374557Y-59758557D01*
X35702839Y-59358544D01*
X35946774Y-58902173D01*
X36096989Y-58406982D01*
X36147710Y-57892000D01*
X36147710Y-55392000D01*
X36096989Y-54877018D01*
X35946774Y-54381827D01*
X35702839Y-53925456D01*
X35533193Y-53718742D01*
X35693753Y-53478448D01*
X35986009Y-52772879D01*
X36135000Y-52023851D01*
X36135000Y-51260149D01*
X35986009Y-50511121D01*
X35693753Y-49805552D01*
X35269462Y-49170557D01*
X34729443Y-48630538D01*
X34146839Y-48241253D01*
X34524363Y-47989000D01*
X35169591Y-47989000D01*
X35306000Y-48002435D01*
X35442409Y-47989000D01*
X35442419Y-47989000D01*
X35850387Y-47948819D01*
X36373854Y-47790027D01*
X36856283Y-47532163D01*
X37071440Y-47355588D01*
X37137161Y-47478544D01*
X37465443Y-47878557D01*
X37865456Y-48206839D01*
X38321827Y-48450774D01*
X38817018Y-48600989D01*
X39332000Y-48651710D01*
X40932000Y-48651710D01*
X41446982Y-48600989D01*
X41942173Y-48450774D01*
X42398544Y-48206839D01*
X42798557Y-47878557D01*
X43126839Y-47478544D01*
X43370774Y-47022173D01*
X43520989Y-46526982D01*
X43562944Y-46101000D01*
X50927000Y-46101000D01*
X50927000Y-60579000D01*
X28052000Y-60579000D01*
X28052000Y-46101000D01*
X29194694Y-46101000D01*
X29216697Y-46211619D01*
%TD*%
M02*
