M48
; DRILL file {KiCad (5.1.6)-1} date 03/01/24 18:26:21
; FORMAT={-:-/ absolute / inch / decimal}
; #@! TF.CreationDate,2024-03-01T18:26:21-06:00
; #@! TF.GenerationSoftware,Kicad,Pcbnew,(5.1.6)-1
; #@! TF.FileFunction,Plated,1,2,PTH
FMAT,2
INCH
T1C0.0157
T2C0.0315
T3C0.0394
T4C0.0512
%
G90
G05
T1
X1.66Y-3.73
X1.76Y-4.93
X1.76Y-5.23
X1.8Y-3.02
X1.8Y-3.37
X1.84Y-1.33
X1.84Y-1.46
X1.855Y-5.025
X1.98Y-3.4
X2.12Y-5.72
X2.14Y-2.19
X2.15Y-1.5
X2.22Y-3.16
X2.26Y-1.82
X2.3Y-1.88
X2.3Y-3.88
X2.303Y-1.563
X2.35Y-2.95
X2.35Y-3.48
X2.37Y-4.93
X2.37Y-5.26
X2.42Y-1.32
X2.69Y-1.59
X2.73Y-3.63
X2.73Y-3.73
X2.75Y-1.72
X2.84Y-5.42
X2.84Y-5.57
X3.55Y-2.4
X3.71Y-3.11
T2
X2.66Y-5.19
X2.7387Y-5.19
X3.73Y-3.71
X3.8087Y-3.71
X1.22Y-5.57
X1.52Y-5.57
X3.48Y-1.3
X3.48Y-1.3787
X3.4Y-3.32
X3.4Y-3.3987
X3.45Y-4.5
X3.45Y-4.5787
X1.28Y-1.78
X1.58Y-1.78
X2.55Y-3.29
X2.6287Y-3.29
X3.91Y-1.65
X3.9887Y-1.65
X1.27Y-1.5
X1.57Y-1.5
X1.26Y-3.56
X1.56Y-3.56
X1.26Y-3.82
X1.56Y-3.82
X3.87Y-4.85
X3.9487Y-4.85
X2.55Y-1.3
X2.6287Y-1.3
X1.22Y-5.23
X1.52Y-5.23
T3
X2.6Y-0.75
X2.6Y-0.85
X2.75Y-4.67
X2.75Y-4.77
X3.2Y-6.12
X3.2Y-6.22
X2.88Y-3.97
X2.88Y-4.07
X2.88Y-2.01
X2.88Y-2.11
X2.66Y-2.85
X2.66Y-2.95
X1.23Y-4.78
X1.4269Y-4.78
X1.2Y-0.9
X1.3969Y-0.9
X1.29Y-3.19
X1.4869Y-3.19
T4
X1.28Y-4.1131
X1.28Y-4.31
X3.25Y-1.8531
X3.25Y-2.05
X1.42Y-2.5631
X1.42Y-2.76
X3.27Y-3.9731
X3.27Y-4.17
X1.52Y-5.9831
X1.52Y-6.18
X3.61Y-0.6931
X3.61Y-0.89
X3.85Y-2.5531
X3.85Y-2.75
X3.57Y-6.0831
X3.57Y-6.28
X1.27Y-2.0331
X1.27Y-2.23
T0
M30
