%TF.GenerationSoftware,KiCad,Pcbnew,(5.1.6)-1*%
%TF.CreationDate,2024-03-01T18:25:57-06:00*%
%TF.ProjectId,Loop PCVR,4c6f6f70-2050-4435-9652-2e6b69636164,rev?*%
%TF.SameCoordinates,Original*%
%TF.FileFunction,Soldermask,Top*%
%TF.FilePolarity,Negative*%
%FSLAX46Y46*%
G04 Gerber Fmt 4.6, Leading zero omitted, Abs format (unit mm)*
G04 Created by KiCad (PCBNEW (5.1.6)-1) date 2024-03-01 18:25:57*
%MOMM*%
%LPD*%
G01*
G04 APERTURE LIST*
%ADD10R,2.100000X2.100000*%
%ADD11C,2.100000*%
%ADD12C,2.600000*%
%ADD13R,2.600000X2.600000*%
%ADD14C,1.700000*%
%ADD15R,1.700000X1.700000*%
%ADD16O,1.800000X1.800000*%
%ADD17R,1.800000X1.800000*%
%ADD18O,1.700000X1.700000*%
G04 APERTURE END LIST*
D10*
%TO.C,C3*%
X31242000Y-121412000D03*
D11*
X36242000Y-121412000D03*
%TD*%
D12*
%TO.C,X9*%
X97790000Y-64850000D03*
D13*
X97790000Y-69850000D03*
%TD*%
%TO.C,U7*%
G36*
G01*
X98986000Y-31290000D02*
X98986000Y-30940000D01*
G75*
G02*
X99161000Y-30765000I175000J0D01*
G01*
X100861000Y-30765000D01*
G75*
G02*
X101036000Y-30940000I0J-175000D01*
G01*
X101036000Y-31290000D01*
G75*
G02*
X100861000Y-31465000I-175000J0D01*
G01*
X99161000Y-31465000D01*
G75*
G02*
X98986000Y-31290000I0J175000D01*
G01*
G37*
G36*
G01*
X98986000Y-32560000D02*
X98986000Y-32210000D01*
G75*
G02*
X99161000Y-32035000I175000J0D01*
G01*
X100861000Y-32035000D01*
G75*
G02*
X101036000Y-32210000I0J-175000D01*
G01*
X101036000Y-32560000D01*
G75*
G02*
X100861000Y-32735000I-175000J0D01*
G01*
X99161000Y-32735000D01*
G75*
G02*
X98986000Y-32560000I0J175000D01*
G01*
G37*
G36*
G01*
X98986000Y-33830000D02*
X98986000Y-33480000D01*
G75*
G02*
X99161000Y-33305000I175000J0D01*
G01*
X100861000Y-33305000D01*
G75*
G02*
X101036000Y-33480000I0J-175000D01*
G01*
X101036000Y-33830000D01*
G75*
G02*
X100861000Y-34005000I-175000J0D01*
G01*
X99161000Y-34005000D01*
G75*
G02*
X98986000Y-33830000I0J175000D01*
G01*
G37*
G36*
G01*
X98986000Y-35100000D02*
X98986000Y-34750000D01*
G75*
G02*
X99161000Y-34575000I175000J0D01*
G01*
X100861000Y-34575000D01*
G75*
G02*
X101036000Y-34750000I0J-175000D01*
G01*
X101036000Y-35100000D01*
G75*
G02*
X100861000Y-35275000I-175000J0D01*
G01*
X99161000Y-35275000D01*
G75*
G02*
X98986000Y-35100000I0J175000D01*
G01*
G37*
G36*
G01*
X94036000Y-35100000D02*
X94036000Y-34750000D01*
G75*
G02*
X94211000Y-34575000I175000J0D01*
G01*
X95911000Y-34575000D01*
G75*
G02*
X96086000Y-34750000I0J-175000D01*
G01*
X96086000Y-35100000D01*
G75*
G02*
X95911000Y-35275000I-175000J0D01*
G01*
X94211000Y-35275000D01*
G75*
G02*
X94036000Y-35100000I0J175000D01*
G01*
G37*
G36*
G01*
X94036000Y-33830000D02*
X94036000Y-33480000D01*
G75*
G02*
X94211000Y-33305000I175000J0D01*
G01*
X95911000Y-33305000D01*
G75*
G02*
X96086000Y-33480000I0J-175000D01*
G01*
X96086000Y-33830000D01*
G75*
G02*
X95911000Y-34005000I-175000J0D01*
G01*
X94211000Y-34005000D01*
G75*
G02*
X94036000Y-33830000I0J175000D01*
G01*
G37*
G36*
G01*
X94036000Y-32560000D02*
X94036000Y-32210000D01*
G75*
G02*
X94211000Y-32035000I175000J0D01*
G01*
X95911000Y-32035000D01*
G75*
G02*
X96086000Y-32210000I0J-175000D01*
G01*
X96086000Y-32560000D01*
G75*
G02*
X95911000Y-32735000I-175000J0D01*
G01*
X94211000Y-32735000D01*
G75*
G02*
X94036000Y-32560000I0J175000D01*
G01*
G37*
G36*
G01*
X94036000Y-31290000D02*
X94036000Y-30940000D01*
G75*
G02*
X94211000Y-30765000I175000J0D01*
G01*
X95911000Y-30765000D01*
G75*
G02*
X96086000Y-30940000I0J-175000D01*
G01*
X96086000Y-31290000D01*
G75*
G02*
X95911000Y-31465000I-175000J0D01*
G01*
X94211000Y-31465000D01*
G75*
G02*
X94036000Y-31290000I0J175000D01*
G01*
G37*
%TD*%
D12*
%TO.C,X8*%
X36068000Y-65104000D03*
D13*
X36068000Y-70104000D03*
%TD*%
%TO.C,U9*%
G36*
G01*
X98732000Y-113078000D02*
X98732000Y-112728000D01*
G75*
G02*
X98907000Y-112553000I175000J0D01*
G01*
X100607000Y-112553000D01*
G75*
G02*
X100782000Y-112728000I0J-175000D01*
G01*
X100782000Y-113078000D01*
G75*
G02*
X100607000Y-113253000I-175000J0D01*
G01*
X98907000Y-113253000D01*
G75*
G02*
X98732000Y-113078000I0J175000D01*
G01*
G37*
G36*
G01*
X98732000Y-114348000D02*
X98732000Y-113998000D01*
G75*
G02*
X98907000Y-113823000I175000J0D01*
G01*
X100607000Y-113823000D01*
G75*
G02*
X100782000Y-113998000I0J-175000D01*
G01*
X100782000Y-114348000D01*
G75*
G02*
X100607000Y-114523000I-175000J0D01*
G01*
X98907000Y-114523000D01*
G75*
G02*
X98732000Y-114348000I0J175000D01*
G01*
G37*
G36*
G01*
X98732000Y-115618000D02*
X98732000Y-115268000D01*
G75*
G02*
X98907000Y-115093000I175000J0D01*
G01*
X100607000Y-115093000D01*
G75*
G02*
X100782000Y-115268000I0J-175000D01*
G01*
X100782000Y-115618000D01*
G75*
G02*
X100607000Y-115793000I-175000J0D01*
G01*
X98907000Y-115793000D01*
G75*
G02*
X98732000Y-115618000I0J175000D01*
G01*
G37*
G36*
G01*
X98732000Y-116888000D02*
X98732000Y-116538000D01*
G75*
G02*
X98907000Y-116363000I175000J0D01*
G01*
X100607000Y-116363000D01*
G75*
G02*
X100782000Y-116538000I0J-175000D01*
G01*
X100782000Y-116888000D01*
G75*
G02*
X100607000Y-117063000I-175000J0D01*
G01*
X98907000Y-117063000D01*
G75*
G02*
X98732000Y-116888000I0J175000D01*
G01*
G37*
G36*
G01*
X93782000Y-116888000D02*
X93782000Y-116538000D01*
G75*
G02*
X93957000Y-116363000I175000J0D01*
G01*
X95657000Y-116363000D01*
G75*
G02*
X95832000Y-116538000I0J-175000D01*
G01*
X95832000Y-116888000D01*
G75*
G02*
X95657000Y-117063000I-175000J0D01*
G01*
X93957000Y-117063000D01*
G75*
G02*
X93782000Y-116888000I0J175000D01*
G01*
G37*
G36*
G01*
X93782000Y-115618000D02*
X93782000Y-115268000D01*
G75*
G02*
X93957000Y-115093000I175000J0D01*
G01*
X95657000Y-115093000D01*
G75*
G02*
X95832000Y-115268000I0J-175000D01*
G01*
X95832000Y-115618000D01*
G75*
G02*
X95657000Y-115793000I-175000J0D01*
G01*
X93957000Y-115793000D01*
G75*
G02*
X93782000Y-115618000I0J175000D01*
G01*
G37*
G36*
G01*
X93782000Y-114348000D02*
X93782000Y-113998000D01*
G75*
G02*
X93957000Y-113823000I175000J0D01*
G01*
X95657000Y-113823000D01*
G75*
G02*
X95832000Y-113998000I0J-175000D01*
G01*
X95832000Y-114348000D01*
G75*
G02*
X95657000Y-114523000I-175000J0D01*
G01*
X93957000Y-114523000D01*
G75*
G02*
X93782000Y-114348000I0J175000D01*
G01*
G37*
G36*
G01*
X93782000Y-113078000D02*
X93782000Y-112728000D01*
G75*
G02*
X93957000Y-112553000I175000J0D01*
G01*
X95657000Y-112553000D01*
G75*
G02*
X95832000Y-112728000I0J-175000D01*
G01*
X95832000Y-113078000D01*
G75*
G02*
X95657000Y-113253000I-175000J0D01*
G01*
X93957000Y-113253000D01*
G75*
G02*
X93782000Y-113078000I0J175000D01*
G01*
G37*
%TD*%
%TO.C,U8*%
G36*
G01*
X97462000Y-83360000D02*
X97462000Y-83010000D01*
G75*
G02*
X97637000Y-82835000I175000J0D01*
G01*
X99337000Y-82835000D01*
G75*
G02*
X99512000Y-83010000I0J-175000D01*
G01*
X99512000Y-83360000D01*
G75*
G02*
X99337000Y-83535000I-175000J0D01*
G01*
X97637000Y-83535000D01*
G75*
G02*
X97462000Y-83360000I0J175000D01*
G01*
G37*
G36*
G01*
X97462000Y-84630000D02*
X97462000Y-84280000D01*
G75*
G02*
X97637000Y-84105000I175000J0D01*
G01*
X99337000Y-84105000D01*
G75*
G02*
X99512000Y-84280000I0J-175000D01*
G01*
X99512000Y-84630000D01*
G75*
G02*
X99337000Y-84805000I-175000J0D01*
G01*
X97637000Y-84805000D01*
G75*
G02*
X97462000Y-84630000I0J175000D01*
G01*
G37*
G36*
G01*
X97462000Y-85900000D02*
X97462000Y-85550000D01*
G75*
G02*
X97637000Y-85375000I175000J0D01*
G01*
X99337000Y-85375000D01*
G75*
G02*
X99512000Y-85550000I0J-175000D01*
G01*
X99512000Y-85900000D01*
G75*
G02*
X99337000Y-86075000I-175000J0D01*
G01*
X97637000Y-86075000D01*
G75*
G02*
X97462000Y-85900000I0J175000D01*
G01*
G37*
G36*
G01*
X97462000Y-87170000D02*
X97462000Y-86820000D01*
G75*
G02*
X97637000Y-86645000I175000J0D01*
G01*
X99337000Y-86645000D01*
G75*
G02*
X99512000Y-86820000I0J-175000D01*
G01*
X99512000Y-87170000D01*
G75*
G02*
X99337000Y-87345000I-175000J0D01*
G01*
X97637000Y-87345000D01*
G75*
G02*
X97462000Y-87170000I0J175000D01*
G01*
G37*
G36*
G01*
X92512000Y-87170000D02*
X92512000Y-86820000D01*
G75*
G02*
X92687000Y-86645000I175000J0D01*
G01*
X94387000Y-86645000D01*
G75*
G02*
X94562000Y-86820000I0J-175000D01*
G01*
X94562000Y-87170000D01*
G75*
G02*
X94387000Y-87345000I-175000J0D01*
G01*
X92687000Y-87345000D01*
G75*
G02*
X92512000Y-87170000I0J175000D01*
G01*
G37*
G36*
G01*
X92512000Y-85900000D02*
X92512000Y-85550000D01*
G75*
G02*
X92687000Y-85375000I175000J0D01*
G01*
X94387000Y-85375000D01*
G75*
G02*
X94562000Y-85550000I0J-175000D01*
G01*
X94562000Y-85900000D01*
G75*
G02*
X94387000Y-86075000I-175000J0D01*
G01*
X92687000Y-86075000D01*
G75*
G02*
X92512000Y-85900000I0J175000D01*
G01*
G37*
G36*
G01*
X92512000Y-84630000D02*
X92512000Y-84280000D01*
G75*
G02*
X92687000Y-84105000I175000J0D01*
G01*
X94387000Y-84105000D01*
G75*
G02*
X94562000Y-84280000I0J-175000D01*
G01*
X94562000Y-84630000D01*
G75*
G02*
X94387000Y-84805000I-175000J0D01*
G01*
X92687000Y-84805000D01*
G75*
G02*
X92512000Y-84630000I0J175000D01*
G01*
G37*
G36*
G01*
X92512000Y-83360000D02*
X92512000Y-83010000D01*
G75*
G02*
X92687000Y-82835000I175000J0D01*
G01*
X94387000Y-82835000D01*
G75*
G02*
X94562000Y-83010000I0J-175000D01*
G01*
X94562000Y-83360000D01*
G75*
G02*
X94387000Y-83535000I-175000J0D01*
G01*
X92687000Y-83535000D01*
G75*
G02*
X92512000Y-83360000I0J175000D01*
G01*
G37*
%TD*%
%TO.C,R33*%
G36*
G01*
X99222544Y-77941000D02*
X101437456Y-77941000D01*
G75*
G02*
X101705000Y-78208544I0J-267544D01*
G01*
X101705000Y-79198456D01*
G75*
G02*
X101437456Y-79466000I-267544J0D01*
G01*
X99222544Y-79466000D01*
G75*
G02*
X98955000Y-79198456I0J267544D01*
G01*
X98955000Y-78208544D01*
G75*
G02*
X99222544Y-77941000I267544J0D01*
G01*
G37*
G36*
G01*
X99222544Y-74966000D02*
X101437456Y-74966000D01*
G75*
G02*
X101705000Y-75233544I0J-267544D01*
G01*
X101705000Y-76223456D01*
G75*
G02*
X101437456Y-76491000I-267544J0D01*
G01*
X99222544Y-76491000D01*
G75*
G02*
X98955000Y-76223456I0J267544D01*
G01*
X98955000Y-75233544D01*
G75*
G02*
X99222544Y-74966000I267544J0D01*
G01*
G37*
%TD*%
%TO.C,R32*%
G36*
G01*
X85889000Y-66710544D02*
X85889000Y-68925456D01*
G75*
G02*
X85621456Y-69193000I-267544J0D01*
G01*
X84631544Y-69193000D01*
G75*
G02*
X84364000Y-68925456I0J267544D01*
G01*
X84364000Y-66710544D01*
G75*
G02*
X84631544Y-66443000I267544J0D01*
G01*
X85621456Y-66443000D01*
G75*
G02*
X85889000Y-66710544I0J-267544D01*
G01*
G37*
G36*
G01*
X88864000Y-66710544D02*
X88864000Y-68925456D01*
G75*
G02*
X88596456Y-69193000I-267544J0D01*
G01*
X87606544Y-69193000D01*
G75*
G02*
X87339000Y-68925456I0J267544D01*
G01*
X87339000Y-66710544D01*
G75*
G02*
X87606544Y-66443000I267544J0D01*
G01*
X88596456Y-66443000D01*
G75*
G02*
X88864000Y-66710544I0J-267544D01*
G01*
G37*
%TD*%
%TO.C,R31*%
G36*
G01*
X101437456Y-56171000D02*
X99222544Y-56171000D01*
G75*
G02*
X98955000Y-55903456I0J267544D01*
G01*
X98955000Y-54913544D01*
G75*
G02*
X99222544Y-54646000I267544J0D01*
G01*
X101437456Y-54646000D01*
G75*
G02*
X101705000Y-54913544I0J-267544D01*
G01*
X101705000Y-55903456D01*
G75*
G02*
X101437456Y-56171000I-267544J0D01*
G01*
G37*
G36*
G01*
X101437456Y-59146000D02*
X99222544Y-59146000D01*
G75*
G02*
X98955000Y-58878456I0J267544D01*
G01*
X98955000Y-57888544D01*
G75*
G02*
X99222544Y-57621000I267544J0D01*
G01*
X101437456Y-57621000D01*
G75*
G02*
X101705000Y-57888544I0J-267544D01*
G01*
X101705000Y-58878456D01*
G75*
G02*
X101437456Y-59146000I-267544J0D01*
G01*
G37*
%TD*%
D14*
%TO.C,C12*%
X100298000Y-123190000D03*
D15*
X98298000Y-123190000D03*
%TD*%
D14*
%TO.C,C11*%
X87630000Y-116300000D03*
D15*
X87630000Y-114300000D03*
%TD*%
D14*
%TO.C,C10*%
X96742000Y-94234000D03*
D15*
X94742000Y-94234000D03*
%TD*%
D14*
%TO.C,C9*%
X86360000Y-86328000D03*
D15*
X86360000Y-84328000D03*
%TD*%
D12*
%TO.C,X6*%
X90678000Y-154512000D03*
D13*
X90678000Y-159512000D03*
%TD*%
D12*
%TO.C,X5*%
X83058000Y-100918000D03*
D13*
X83058000Y-105918000D03*
%TD*%
D16*
%TO.C,J8*%
X81280000Y-157988000D03*
D17*
X81280000Y-155448000D03*
%TD*%
D16*
%TO.C,J7*%
X69850000Y-121158000D03*
D17*
X69850000Y-118618000D03*
%TD*%
D16*
%TO.C,J6*%
X73152000Y-103378000D03*
D17*
X73152000Y-100838000D03*
%TD*%
%TO.C,U6*%
G36*
G01*
X67490000Y-141526000D02*
X67490000Y-141176000D01*
G75*
G02*
X67665000Y-141001000I175000J0D01*
G01*
X69365000Y-141001000D01*
G75*
G02*
X69540000Y-141176000I0J-175000D01*
G01*
X69540000Y-141526000D01*
G75*
G02*
X69365000Y-141701000I-175000J0D01*
G01*
X67665000Y-141701000D01*
G75*
G02*
X67490000Y-141526000I0J175000D01*
G01*
G37*
G36*
G01*
X67490000Y-142796000D02*
X67490000Y-142446000D01*
G75*
G02*
X67665000Y-142271000I175000J0D01*
G01*
X69365000Y-142271000D01*
G75*
G02*
X69540000Y-142446000I0J-175000D01*
G01*
X69540000Y-142796000D01*
G75*
G02*
X69365000Y-142971000I-175000J0D01*
G01*
X67665000Y-142971000D01*
G75*
G02*
X67490000Y-142796000I0J175000D01*
G01*
G37*
G36*
G01*
X67490000Y-144066000D02*
X67490000Y-143716000D01*
G75*
G02*
X67665000Y-143541000I175000J0D01*
G01*
X69365000Y-143541000D01*
G75*
G02*
X69540000Y-143716000I0J-175000D01*
G01*
X69540000Y-144066000D01*
G75*
G02*
X69365000Y-144241000I-175000J0D01*
G01*
X67665000Y-144241000D01*
G75*
G02*
X67490000Y-144066000I0J175000D01*
G01*
G37*
G36*
G01*
X67490000Y-145336000D02*
X67490000Y-144986000D01*
G75*
G02*
X67665000Y-144811000I175000J0D01*
G01*
X69365000Y-144811000D01*
G75*
G02*
X69540000Y-144986000I0J-175000D01*
G01*
X69540000Y-145336000D01*
G75*
G02*
X69365000Y-145511000I-175000J0D01*
G01*
X67665000Y-145511000D01*
G75*
G02*
X67490000Y-145336000I0J175000D01*
G01*
G37*
G36*
G01*
X62540000Y-145336000D02*
X62540000Y-144986000D01*
G75*
G02*
X62715000Y-144811000I175000J0D01*
G01*
X64415000Y-144811000D01*
G75*
G02*
X64590000Y-144986000I0J-175000D01*
G01*
X64590000Y-145336000D01*
G75*
G02*
X64415000Y-145511000I-175000J0D01*
G01*
X62715000Y-145511000D01*
G75*
G02*
X62540000Y-145336000I0J175000D01*
G01*
G37*
G36*
G01*
X62540000Y-144066000D02*
X62540000Y-143716000D01*
G75*
G02*
X62715000Y-143541000I175000J0D01*
G01*
X64415000Y-143541000D01*
G75*
G02*
X64590000Y-143716000I0J-175000D01*
G01*
X64590000Y-144066000D01*
G75*
G02*
X64415000Y-144241000I-175000J0D01*
G01*
X62715000Y-144241000D01*
G75*
G02*
X62540000Y-144066000I0J175000D01*
G01*
G37*
G36*
G01*
X62540000Y-142796000D02*
X62540000Y-142446000D01*
G75*
G02*
X62715000Y-142271000I175000J0D01*
G01*
X64415000Y-142271000D01*
G75*
G02*
X64590000Y-142446000I0J-175000D01*
G01*
X64590000Y-142796000D01*
G75*
G02*
X64415000Y-142971000I-175000J0D01*
G01*
X62715000Y-142971000D01*
G75*
G02*
X62540000Y-142796000I0J175000D01*
G01*
G37*
G36*
G01*
X62540000Y-141526000D02*
X62540000Y-141176000D01*
G75*
G02*
X62715000Y-141001000I175000J0D01*
G01*
X64415000Y-141001000D01*
G75*
G02*
X64590000Y-141176000I0J-175000D01*
G01*
X64590000Y-141526000D01*
G75*
G02*
X64415000Y-141701000I-175000J0D01*
G01*
X62715000Y-141701000D01*
G75*
G02*
X62540000Y-141526000I0J175000D01*
G01*
G37*
%TD*%
%TO.C,U5*%
G36*
G01*
X64950000Y-94790000D02*
X64950000Y-94440000D01*
G75*
G02*
X65125000Y-94265000I175000J0D01*
G01*
X66825000Y-94265000D01*
G75*
G02*
X67000000Y-94440000I0J-175000D01*
G01*
X67000000Y-94790000D01*
G75*
G02*
X66825000Y-94965000I-175000J0D01*
G01*
X65125000Y-94965000D01*
G75*
G02*
X64950000Y-94790000I0J175000D01*
G01*
G37*
G36*
G01*
X64950000Y-96060000D02*
X64950000Y-95710000D01*
G75*
G02*
X65125000Y-95535000I175000J0D01*
G01*
X66825000Y-95535000D01*
G75*
G02*
X67000000Y-95710000I0J-175000D01*
G01*
X67000000Y-96060000D01*
G75*
G02*
X66825000Y-96235000I-175000J0D01*
G01*
X65125000Y-96235000D01*
G75*
G02*
X64950000Y-96060000I0J175000D01*
G01*
G37*
G36*
G01*
X64950000Y-97330000D02*
X64950000Y-96980000D01*
G75*
G02*
X65125000Y-96805000I175000J0D01*
G01*
X66825000Y-96805000D01*
G75*
G02*
X67000000Y-96980000I0J-175000D01*
G01*
X67000000Y-97330000D01*
G75*
G02*
X66825000Y-97505000I-175000J0D01*
G01*
X65125000Y-97505000D01*
G75*
G02*
X64950000Y-97330000I0J175000D01*
G01*
G37*
G36*
G01*
X64950000Y-98600000D02*
X64950000Y-98250000D01*
G75*
G02*
X65125000Y-98075000I175000J0D01*
G01*
X66825000Y-98075000D01*
G75*
G02*
X67000000Y-98250000I0J-175000D01*
G01*
X67000000Y-98600000D01*
G75*
G02*
X66825000Y-98775000I-175000J0D01*
G01*
X65125000Y-98775000D01*
G75*
G02*
X64950000Y-98600000I0J175000D01*
G01*
G37*
G36*
G01*
X60000000Y-98600000D02*
X60000000Y-98250000D01*
G75*
G02*
X60175000Y-98075000I175000J0D01*
G01*
X61875000Y-98075000D01*
G75*
G02*
X62050000Y-98250000I0J-175000D01*
G01*
X62050000Y-98600000D01*
G75*
G02*
X61875000Y-98775000I-175000J0D01*
G01*
X60175000Y-98775000D01*
G75*
G02*
X60000000Y-98600000I0J175000D01*
G01*
G37*
G36*
G01*
X60000000Y-97330000D02*
X60000000Y-96980000D01*
G75*
G02*
X60175000Y-96805000I175000J0D01*
G01*
X61875000Y-96805000D01*
G75*
G02*
X62050000Y-96980000I0J-175000D01*
G01*
X62050000Y-97330000D01*
G75*
G02*
X61875000Y-97505000I-175000J0D01*
G01*
X60175000Y-97505000D01*
G75*
G02*
X60000000Y-97330000I0J175000D01*
G01*
G37*
G36*
G01*
X60000000Y-96060000D02*
X60000000Y-95710000D01*
G75*
G02*
X60175000Y-95535000I175000J0D01*
G01*
X61875000Y-95535000D01*
G75*
G02*
X62050000Y-95710000I0J-175000D01*
G01*
X62050000Y-96060000D01*
G75*
G02*
X61875000Y-96235000I-175000J0D01*
G01*
X60175000Y-96235000D01*
G75*
G02*
X60000000Y-96060000I0J175000D01*
G01*
G37*
G36*
G01*
X60000000Y-94790000D02*
X60000000Y-94440000D01*
G75*
G02*
X60175000Y-94265000I175000J0D01*
G01*
X61875000Y-94265000D01*
G75*
G02*
X62050000Y-94440000I0J-175000D01*
G01*
X62050000Y-94790000D01*
G75*
G02*
X61875000Y-94965000I-175000J0D01*
G01*
X60175000Y-94965000D01*
G75*
G02*
X60000000Y-94790000I0J175000D01*
G01*
G37*
%TD*%
%TO.C,U4*%
G36*
G01*
X64950000Y-43990000D02*
X64950000Y-43640000D01*
G75*
G02*
X65125000Y-43465000I175000J0D01*
G01*
X66825000Y-43465000D01*
G75*
G02*
X67000000Y-43640000I0J-175000D01*
G01*
X67000000Y-43990000D01*
G75*
G02*
X66825000Y-44165000I-175000J0D01*
G01*
X65125000Y-44165000D01*
G75*
G02*
X64950000Y-43990000I0J175000D01*
G01*
G37*
G36*
G01*
X64950000Y-45260000D02*
X64950000Y-44910000D01*
G75*
G02*
X65125000Y-44735000I175000J0D01*
G01*
X66825000Y-44735000D01*
G75*
G02*
X67000000Y-44910000I0J-175000D01*
G01*
X67000000Y-45260000D01*
G75*
G02*
X66825000Y-45435000I-175000J0D01*
G01*
X65125000Y-45435000D01*
G75*
G02*
X64950000Y-45260000I0J175000D01*
G01*
G37*
G36*
G01*
X64950000Y-46530000D02*
X64950000Y-46180000D01*
G75*
G02*
X65125000Y-46005000I175000J0D01*
G01*
X66825000Y-46005000D01*
G75*
G02*
X67000000Y-46180000I0J-175000D01*
G01*
X67000000Y-46530000D01*
G75*
G02*
X66825000Y-46705000I-175000J0D01*
G01*
X65125000Y-46705000D01*
G75*
G02*
X64950000Y-46530000I0J175000D01*
G01*
G37*
G36*
G01*
X64950000Y-47800000D02*
X64950000Y-47450000D01*
G75*
G02*
X65125000Y-47275000I175000J0D01*
G01*
X66825000Y-47275000D01*
G75*
G02*
X67000000Y-47450000I0J-175000D01*
G01*
X67000000Y-47800000D01*
G75*
G02*
X66825000Y-47975000I-175000J0D01*
G01*
X65125000Y-47975000D01*
G75*
G02*
X64950000Y-47800000I0J175000D01*
G01*
G37*
G36*
G01*
X60000000Y-47800000D02*
X60000000Y-47450000D01*
G75*
G02*
X60175000Y-47275000I175000J0D01*
G01*
X61875000Y-47275000D01*
G75*
G02*
X62050000Y-47450000I0J-175000D01*
G01*
X62050000Y-47800000D01*
G75*
G02*
X61875000Y-47975000I-175000J0D01*
G01*
X60175000Y-47975000D01*
G75*
G02*
X60000000Y-47800000I0J175000D01*
G01*
G37*
G36*
G01*
X60000000Y-46530000D02*
X60000000Y-46180000D01*
G75*
G02*
X60175000Y-46005000I175000J0D01*
G01*
X61875000Y-46005000D01*
G75*
G02*
X62050000Y-46180000I0J-175000D01*
G01*
X62050000Y-46530000D01*
G75*
G02*
X61875000Y-46705000I-175000J0D01*
G01*
X60175000Y-46705000D01*
G75*
G02*
X60000000Y-46530000I0J175000D01*
G01*
G37*
G36*
G01*
X60000000Y-45260000D02*
X60000000Y-44910000D01*
G75*
G02*
X60175000Y-44735000I175000J0D01*
G01*
X61875000Y-44735000D01*
G75*
G02*
X62050000Y-44910000I0J-175000D01*
G01*
X62050000Y-45260000D01*
G75*
G02*
X61875000Y-45435000I-175000J0D01*
G01*
X60175000Y-45435000D01*
G75*
G02*
X60000000Y-45260000I0J175000D01*
G01*
G37*
G36*
G01*
X60000000Y-43990000D02*
X60000000Y-43640000D01*
G75*
G02*
X60175000Y-43465000I175000J0D01*
G01*
X61875000Y-43465000D01*
G75*
G02*
X62050000Y-43640000I0J-175000D01*
G01*
X62050000Y-43990000D01*
G75*
G02*
X61875000Y-44165000I-175000J0D01*
G01*
X60175000Y-44165000D01*
G75*
G02*
X60000000Y-43990000I0J175000D01*
G01*
G37*
%TD*%
%TO.C,U3*%
G36*
G01*
X53774000Y-124000000D02*
X53774000Y-123650000D01*
G75*
G02*
X53949000Y-123475000I175000J0D01*
G01*
X55649000Y-123475000D01*
G75*
G02*
X55824000Y-123650000I0J-175000D01*
G01*
X55824000Y-124000000D01*
G75*
G02*
X55649000Y-124175000I-175000J0D01*
G01*
X53949000Y-124175000D01*
G75*
G02*
X53774000Y-124000000I0J175000D01*
G01*
G37*
G36*
G01*
X53774000Y-125270000D02*
X53774000Y-124920000D01*
G75*
G02*
X53949000Y-124745000I175000J0D01*
G01*
X55649000Y-124745000D01*
G75*
G02*
X55824000Y-124920000I0J-175000D01*
G01*
X55824000Y-125270000D01*
G75*
G02*
X55649000Y-125445000I-175000J0D01*
G01*
X53949000Y-125445000D01*
G75*
G02*
X53774000Y-125270000I0J175000D01*
G01*
G37*
G36*
G01*
X53774000Y-126540000D02*
X53774000Y-126190000D01*
G75*
G02*
X53949000Y-126015000I175000J0D01*
G01*
X55649000Y-126015000D01*
G75*
G02*
X55824000Y-126190000I0J-175000D01*
G01*
X55824000Y-126540000D01*
G75*
G02*
X55649000Y-126715000I-175000J0D01*
G01*
X53949000Y-126715000D01*
G75*
G02*
X53774000Y-126540000I0J175000D01*
G01*
G37*
G36*
G01*
X53774000Y-127810000D02*
X53774000Y-127460000D01*
G75*
G02*
X53949000Y-127285000I175000J0D01*
G01*
X55649000Y-127285000D01*
G75*
G02*
X55824000Y-127460000I0J-175000D01*
G01*
X55824000Y-127810000D01*
G75*
G02*
X55649000Y-127985000I-175000J0D01*
G01*
X53949000Y-127985000D01*
G75*
G02*
X53774000Y-127810000I0J175000D01*
G01*
G37*
G36*
G01*
X48824000Y-127810000D02*
X48824000Y-127460000D01*
G75*
G02*
X48999000Y-127285000I175000J0D01*
G01*
X50699000Y-127285000D01*
G75*
G02*
X50874000Y-127460000I0J-175000D01*
G01*
X50874000Y-127810000D01*
G75*
G02*
X50699000Y-127985000I-175000J0D01*
G01*
X48999000Y-127985000D01*
G75*
G02*
X48824000Y-127810000I0J175000D01*
G01*
G37*
G36*
G01*
X48824000Y-126540000D02*
X48824000Y-126190000D01*
G75*
G02*
X48999000Y-126015000I175000J0D01*
G01*
X50699000Y-126015000D01*
G75*
G02*
X50874000Y-126190000I0J-175000D01*
G01*
X50874000Y-126540000D01*
G75*
G02*
X50699000Y-126715000I-175000J0D01*
G01*
X48999000Y-126715000D01*
G75*
G02*
X48824000Y-126540000I0J175000D01*
G01*
G37*
G36*
G01*
X48824000Y-125270000D02*
X48824000Y-124920000D01*
G75*
G02*
X48999000Y-124745000I175000J0D01*
G01*
X50699000Y-124745000D01*
G75*
G02*
X50874000Y-124920000I0J-175000D01*
G01*
X50874000Y-125270000D01*
G75*
G02*
X50699000Y-125445000I-175000J0D01*
G01*
X48999000Y-125445000D01*
G75*
G02*
X48824000Y-125270000I0J175000D01*
G01*
G37*
G36*
G01*
X48824000Y-124000000D02*
X48824000Y-123650000D01*
G75*
G02*
X48999000Y-123475000I175000J0D01*
G01*
X50699000Y-123475000D01*
G75*
G02*
X50874000Y-123650000I0J-175000D01*
G01*
X50874000Y-124000000D01*
G75*
G02*
X50699000Y-124175000I-175000J0D01*
G01*
X48999000Y-124175000D01*
G75*
G02*
X48824000Y-124000000I0J175000D01*
G01*
G37*
%TD*%
%TO.C,U2*%
G36*
G01*
X53520000Y-73962000D02*
X53520000Y-73612000D01*
G75*
G02*
X53695000Y-73437000I175000J0D01*
G01*
X55395000Y-73437000D01*
G75*
G02*
X55570000Y-73612000I0J-175000D01*
G01*
X55570000Y-73962000D01*
G75*
G02*
X55395000Y-74137000I-175000J0D01*
G01*
X53695000Y-74137000D01*
G75*
G02*
X53520000Y-73962000I0J175000D01*
G01*
G37*
G36*
G01*
X53520000Y-75232000D02*
X53520000Y-74882000D01*
G75*
G02*
X53695000Y-74707000I175000J0D01*
G01*
X55395000Y-74707000D01*
G75*
G02*
X55570000Y-74882000I0J-175000D01*
G01*
X55570000Y-75232000D01*
G75*
G02*
X55395000Y-75407000I-175000J0D01*
G01*
X53695000Y-75407000D01*
G75*
G02*
X53520000Y-75232000I0J175000D01*
G01*
G37*
G36*
G01*
X53520000Y-76502000D02*
X53520000Y-76152000D01*
G75*
G02*
X53695000Y-75977000I175000J0D01*
G01*
X55395000Y-75977000D01*
G75*
G02*
X55570000Y-76152000I0J-175000D01*
G01*
X55570000Y-76502000D01*
G75*
G02*
X55395000Y-76677000I-175000J0D01*
G01*
X53695000Y-76677000D01*
G75*
G02*
X53520000Y-76502000I0J175000D01*
G01*
G37*
G36*
G01*
X53520000Y-77772000D02*
X53520000Y-77422000D01*
G75*
G02*
X53695000Y-77247000I175000J0D01*
G01*
X55395000Y-77247000D01*
G75*
G02*
X55570000Y-77422000I0J-175000D01*
G01*
X55570000Y-77772000D01*
G75*
G02*
X55395000Y-77947000I-175000J0D01*
G01*
X53695000Y-77947000D01*
G75*
G02*
X53520000Y-77772000I0J175000D01*
G01*
G37*
G36*
G01*
X48570000Y-77772000D02*
X48570000Y-77422000D01*
G75*
G02*
X48745000Y-77247000I175000J0D01*
G01*
X50445000Y-77247000D01*
G75*
G02*
X50620000Y-77422000I0J-175000D01*
G01*
X50620000Y-77772000D01*
G75*
G02*
X50445000Y-77947000I-175000J0D01*
G01*
X48745000Y-77947000D01*
G75*
G02*
X48570000Y-77772000I0J175000D01*
G01*
G37*
G36*
G01*
X48570000Y-76502000D02*
X48570000Y-76152000D01*
G75*
G02*
X48745000Y-75977000I175000J0D01*
G01*
X50445000Y-75977000D01*
G75*
G02*
X50620000Y-76152000I0J-175000D01*
G01*
X50620000Y-76502000D01*
G75*
G02*
X50445000Y-76677000I-175000J0D01*
G01*
X48745000Y-76677000D01*
G75*
G02*
X48570000Y-76502000I0J175000D01*
G01*
G37*
G36*
G01*
X48570000Y-75232000D02*
X48570000Y-74882000D01*
G75*
G02*
X48745000Y-74707000I175000J0D01*
G01*
X50445000Y-74707000D01*
G75*
G02*
X50620000Y-74882000I0J-175000D01*
G01*
X50620000Y-75232000D01*
G75*
G02*
X50445000Y-75407000I-175000J0D01*
G01*
X48745000Y-75407000D01*
G75*
G02*
X48570000Y-75232000I0J175000D01*
G01*
G37*
G36*
G01*
X48570000Y-73962000D02*
X48570000Y-73612000D01*
G75*
G02*
X48745000Y-73437000I175000J0D01*
G01*
X50445000Y-73437000D01*
G75*
G02*
X50620000Y-73612000I0J-175000D01*
G01*
X50620000Y-73962000D01*
G75*
G02*
X50445000Y-74137000I-175000J0D01*
G01*
X48745000Y-74137000D01*
G75*
G02*
X48570000Y-73962000I0J175000D01*
G01*
G37*
%TD*%
%TO.C,U1*%
G36*
G01*
X53520000Y-32560000D02*
X53520000Y-32210000D01*
G75*
G02*
X53695000Y-32035000I175000J0D01*
G01*
X55395000Y-32035000D01*
G75*
G02*
X55570000Y-32210000I0J-175000D01*
G01*
X55570000Y-32560000D01*
G75*
G02*
X55395000Y-32735000I-175000J0D01*
G01*
X53695000Y-32735000D01*
G75*
G02*
X53520000Y-32560000I0J175000D01*
G01*
G37*
G36*
G01*
X53520000Y-33830000D02*
X53520000Y-33480000D01*
G75*
G02*
X53695000Y-33305000I175000J0D01*
G01*
X55395000Y-33305000D01*
G75*
G02*
X55570000Y-33480000I0J-175000D01*
G01*
X55570000Y-33830000D01*
G75*
G02*
X55395000Y-34005000I-175000J0D01*
G01*
X53695000Y-34005000D01*
G75*
G02*
X53520000Y-33830000I0J175000D01*
G01*
G37*
G36*
G01*
X53520000Y-35100000D02*
X53520000Y-34750000D01*
G75*
G02*
X53695000Y-34575000I175000J0D01*
G01*
X55395000Y-34575000D01*
G75*
G02*
X55570000Y-34750000I0J-175000D01*
G01*
X55570000Y-35100000D01*
G75*
G02*
X55395000Y-35275000I-175000J0D01*
G01*
X53695000Y-35275000D01*
G75*
G02*
X53520000Y-35100000I0J175000D01*
G01*
G37*
G36*
G01*
X53520000Y-36370000D02*
X53520000Y-36020000D01*
G75*
G02*
X53695000Y-35845000I175000J0D01*
G01*
X55395000Y-35845000D01*
G75*
G02*
X55570000Y-36020000I0J-175000D01*
G01*
X55570000Y-36370000D01*
G75*
G02*
X55395000Y-36545000I-175000J0D01*
G01*
X53695000Y-36545000D01*
G75*
G02*
X53520000Y-36370000I0J175000D01*
G01*
G37*
G36*
G01*
X48570000Y-36370000D02*
X48570000Y-36020000D01*
G75*
G02*
X48745000Y-35845000I175000J0D01*
G01*
X50445000Y-35845000D01*
G75*
G02*
X50620000Y-36020000I0J-175000D01*
G01*
X50620000Y-36370000D01*
G75*
G02*
X50445000Y-36545000I-175000J0D01*
G01*
X48745000Y-36545000D01*
G75*
G02*
X48570000Y-36370000I0J175000D01*
G01*
G37*
G36*
G01*
X48570000Y-35100000D02*
X48570000Y-34750000D01*
G75*
G02*
X48745000Y-34575000I175000J0D01*
G01*
X50445000Y-34575000D01*
G75*
G02*
X50620000Y-34750000I0J-175000D01*
G01*
X50620000Y-35100000D01*
G75*
G02*
X50445000Y-35275000I-175000J0D01*
G01*
X48745000Y-35275000D01*
G75*
G02*
X48570000Y-35100000I0J175000D01*
G01*
G37*
G36*
G01*
X48570000Y-33830000D02*
X48570000Y-33480000D01*
G75*
G02*
X48745000Y-33305000I175000J0D01*
G01*
X50445000Y-33305000D01*
G75*
G02*
X50620000Y-33480000I0J-175000D01*
G01*
X50620000Y-33830000D01*
G75*
G02*
X50445000Y-34005000I-175000J0D01*
G01*
X48745000Y-34005000D01*
G75*
G02*
X48570000Y-33830000I0J175000D01*
G01*
G37*
G36*
G01*
X48570000Y-32560000D02*
X48570000Y-32210000D01*
G75*
G02*
X48745000Y-32035000I175000J0D01*
G01*
X50445000Y-32035000D01*
G75*
G02*
X50620000Y-32210000I0J-175000D01*
G01*
X50620000Y-32560000D01*
G75*
G02*
X50445000Y-32735000I-175000J0D01*
G01*
X48745000Y-32735000D01*
G75*
G02*
X48570000Y-32560000I0J175000D01*
G01*
G37*
%TD*%
%TO.C,R29*%
G36*
G01*
X63463000Y-69179456D02*
X63463000Y-66964544D01*
G75*
G02*
X63730544Y-66697000I267544J0D01*
G01*
X64720456Y-66697000D01*
G75*
G02*
X64988000Y-66964544I0J-267544D01*
G01*
X64988000Y-69179456D01*
G75*
G02*
X64720456Y-69447000I-267544J0D01*
G01*
X63730544Y-69447000D01*
G75*
G02*
X63463000Y-69179456I0J267544D01*
G01*
G37*
G36*
G01*
X60488000Y-69179456D02*
X60488000Y-66964544D01*
G75*
G02*
X60755544Y-66697000I267544J0D01*
G01*
X61745456Y-66697000D01*
G75*
G02*
X62013000Y-66964544I0J-267544D01*
G01*
X62013000Y-69179456D01*
G75*
G02*
X61745456Y-69447000I-267544J0D01*
G01*
X60755544Y-69447000D01*
G75*
G02*
X60488000Y-69179456I0J267544D01*
G01*
G37*
%TD*%
%TO.C,R28*%
G36*
G01*
X49239000Y-66385456D02*
X49239000Y-64170544D01*
G75*
G02*
X49506544Y-63903000I267544J0D01*
G01*
X50496456Y-63903000D01*
G75*
G02*
X50764000Y-64170544I0J-267544D01*
G01*
X50764000Y-66385456D01*
G75*
G02*
X50496456Y-66653000I-267544J0D01*
G01*
X49506544Y-66653000D01*
G75*
G02*
X49239000Y-66385456I0J267544D01*
G01*
G37*
G36*
G01*
X46264000Y-66385456D02*
X46264000Y-64170544D01*
G75*
G02*
X46531544Y-63903000I267544J0D01*
G01*
X47521456Y-63903000D01*
G75*
G02*
X47789000Y-64170544I0J-267544D01*
G01*
X47789000Y-66385456D01*
G75*
G02*
X47521456Y-66653000I-267544J0D01*
G01*
X46531544Y-66653000D01*
G75*
G02*
X46264000Y-66385456I0J267544D01*
G01*
G37*
%TD*%
D12*
%TO.C,X4*%
X82550000Y-47070000D03*
D13*
X82550000Y-52070000D03*
%TD*%
D12*
%TO.C,X7*%
X91694000Y-17606000D03*
D13*
X91694000Y-22606000D03*
%TD*%
%TO.C,R30*%
G36*
G01*
X26324544Y-77941000D02*
X28539456Y-77941000D01*
G75*
G02*
X28807000Y-78208544I0J-267544D01*
G01*
X28807000Y-79198456D01*
G75*
G02*
X28539456Y-79466000I-267544J0D01*
G01*
X26324544Y-79466000D01*
G75*
G02*
X26057000Y-79198456I0J267544D01*
G01*
X26057000Y-78208544D01*
G75*
G02*
X26324544Y-77941000I267544J0D01*
G01*
G37*
G36*
G01*
X26324544Y-74966000D02*
X28539456Y-74966000D01*
G75*
G02*
X28807000Y-75233544I0J-267544D01*
G01*
X28807000Y-76223456D01*
G75*
G02*
X28539456Y-76491000I-267544J0D01*
G01*
X26324544Y-76491000D01*
G75*
G02*
X26057000Y-76223456I0J267544D01*
G01*
X26057000Y-75233544D01*
G75*
G02*
X26324544Y-74966000I267544J0D01*
G01*
G37*
%TD*%
%TO.C,R27*%
G36*
G01*
X79973000Y-141315456D02*
X79973000Y-139100544D01*
G75*
G02*
X80240544Y-138833000I267544J0D01*
G01*
X81230456Y-138833000D01*
G75*
G02*
X81498000Y-139100544I0J-267544D01*
G01*
X81498000Y-141315456D01*
G75*
G02*
X81230456Y-141583000I-267544J0D01*
G01*
X80240544Y-141583000D01*
G75*
G02*
X79973000Y-141315456I0J267544D01*
G01*
G37*
G36*
G01*
X76998000Y-141315456D02*
X76998000Y-139100544D01*
G75*
G02*
X77265544Y-138833000I267544J0D01*
G01*
X78255456Y-138833000D01*
G75*
G02*
X78523000Y-139100544I0J-267544D01*
G01*
X78523000Y-141315456D01*
G75*
G02*
X78255456Y-141583000I-267544J0D01*
G01*
X77265544Y-141583000D01*
G75*
G02*
X76998000Y-141315456I0J267544D01*
G01*
G37*
%TD*%
%TO.C,R26*%
G36*
G01*
X79973000Y-134965456D02*
X79973000Y-132750544D01*
G75*
G02*
X80240544Y-132483000I267544J0D01*
G01*
X81230456Y-132483000D01*
G75*
G02*
X81498000Y-132750544I0J-267544D01*
G01*
X81498000Y-134965456D01*
G75*
G02*
X81230456Y-135233000I-267544J0D01*
G01*
X80240544Y-135233000D01*
G75*
G02*
X79973000Y-134965456I0J267544D01*
G01*
G37*
G36*
G01*
X76998000Y-134965456D02*
X76998000Y-132750544D01*
G75*
G02*
X77265544Y-132483000I267544J0D01*
G01*
X78255456Y-132483000D01*
G75*
G02*
X78523000Y-132750544I0J-267544D01*
G01*
X78523000Y-134965456D01*
G75*
G02*
X78255456Y-135233000I-267544J0D01*
G01*
X77265544Y-135233000D01*
G75*
G02*
X76998000Y-134965456I0J267544D01*
G01*
G37*
%TD*%
%TO.C,R25*%
G36*
G01*
X79973000Y-127345456D02*
X79973000Y-125130544D01*
G75*
G02*
X80240544Y-124863000I267544J0D01*
G01*
X81230456Y-124863000D01*
G75*
G02*
X81498000Y-125130544I0J-267544D01*
G01*
X81498000Y-127345456D01*
G75*
G02*
X81230456Y-127613000I-267544J0D01*
G01*
X80240544Y-127613000D01*
G75*
G02*
X79973000Y-127345456I0J267544D01*
G01*
G37*
G36*
G01*
X76998000Y-127345456D02*
X76998000Y-125130544D01*
G75*
G02*
X77265544Y-124863000I267544J0D01*
G01*
X78255456Y-124863000D01*
G75*
G02*
X78523000Y-125130544I0J-267544D01*
G01*
X78523000Y-127345456D01*
G75*
G02*
X78255456Y-127613000I-267544J0D01*
G01*
X77265544Y-127613000D01*
G75*
G02*
X76998000Y-127345456I0J267544D01*
G01*
G37*
%TD*%
%TO.C,R24*%
G36*
G01*
X79973000Y-119725456D02*
X79973000Y-117510544D01*
G75*
G02*
X80240544Y-117243000I267544J0D01*
G01*
X81230456Y-117243000D01*
G75*
G02*
X81498000Y-117510544I0J-267544D01*
G01*
X81498000Y-119725456D01*
G75*
G02*
X81230456Y-119993000I-267544J0D01*
G01*
X80240544Y-119993000D01*
G75*
G02*
X79973000Y-119725456I0J267544D01*
G01*
G37*
G36*
G01*
X76998000Y-119725456D02*
X76998000Y-117510544D01*
G75*
G02*
X77265544Y-117243000I267544J0D01*
G01*
X78255456Y-117243000D01*
G75*
G02*
X78523000Y-117510544I0J-267544D01*
G01*
X78523000Y-119725456D01*
G75*
G02*
X78255456Y-119993000I-267544J0D01*
G01*
X77265544Y-119993000D01*
G75*
G02*
X76998000Y-119725456I0J267544D01*
G01*
G37*
%TD*%
%TO.C,R23*%
G36*
G01*
X79465000Y-91277456D02*
X79465000Y-89062544D01*
G75*
G02*
X79732544Y-88795000I267544J0D01*
G01*
X80722456Y-88795000D01*
G75*
G02*
X80990000Y-89062544I0J-267544D01*
G01*
X80990000Y-91277456D01*
G75*
G02*
X80722456Y-91545000I-267544J0D01*
G01*
X79732544Y-91545000D01*
G75*
G02*
X79465000Y-91277456I0J267544D01*
G01*
G37*
G36*
G01*
X76490000Y-91277456D02*
X76490000Y-89062544D01*
G75*
G02*
X76757544Y-88795000I267544J0D01*
G01*
X77747456Y-88795000D01*
G75*
G02*
X78015000Y-89062544I0J-267544D01*
G01*
X78015000Y-91277456D01*
G75*
G02*
X77747456Y-91545000I-267544J0D01*
G01*
X76757544Y-91545000D01*
G75*
G02*
X76490000Y-91277456I0J267544D01*
G01*
G37*
%TD*%
%TO.C,R22*%
G36*
G01*
X79465000Y-83911456D02*
X79465000Y-81696544D01*
G75*
G02*
X79732544Y-81429000I267544J0D01*
G01*
X80722456Y-81429000D01*
G75*
G02*
X80990000Y-81696544I0J-267544D01*
G01*
X80990000Y-83911456D01*
G75*
G02*
X80722456Y-84179000I-267544J0D01*
G01*
X79732544Y-84179000D01*
G75*
G02*
X79465000Y-83911456I0J267544D01*
G01*
G37*
G36*
G01*
X76490000Y-83911456D02*
X76490000Y-81696544D01*
G75*
G02*
X76757544Y-81429000I267544J0D01*
G01*
X77747456Y-81429000D01*
G75*
G02*
X78015000Y-81696544I0J-267544D01*
G01*
X78015000Y-83911456D01*
G75*
G02*
X77747456Y-84179000I-267544J0D01*
G01*
X76757544Y-84179000D01*
G75*
G02*
X76490000Y-83911456I0J267544D01*
G01*
G37*
%TD*%
%TO.C,R21*%
G36*
G01*
X79465000Y-76545456D02*
X79465000Y-74330544D01*
G75*
G02*
X79732544Y-74063000I267544J0D01*
G01*
X80722456Y-74063000D01*
G75*
G02*
X80990000Y-74330544I0J-267544D01*
G01*
X80990000Y-76545456D01*
G75*
G02*
X80722456Y-76813000I-267544J0D01*
G01*
X79732544Y-76813000D01*
G75*
G02*
X79465000Y-76545456I0J267544D01*
G01*
G37*
G36*
G01*
X76490000Y-76545456D02*
X76490000Y-74330544D01*
G75*
G02*
X76757544Y-74063000I267544J0D01*
G01*
X77747456Y-74063000D01*
G75*
G02*
X78015000Y-74330544I0J-267544D01*
G01*
X78015000Y-76545456D01*
G75*
G02*
X77747456Y-76813000I-267544J0D01*
G01*
X76757544Y-76813000D01*
G75*
G02*
X76490000Y-76545456I0J267544D01*
G01*
G37*
%TD*%
%TO.C,R20*%
G36*
G01*
X79465000Y-69179456D02*
X79465000Y-66964544D01*
G75*
G02*
X79732544Y-66697000I267544J0D01*
G01*
X80722456Y-66697000D01*
G75*
G02*
X80990000Y-66964544I0J-267544D01*
G01*
X80990000Y-69179456D01*
G75*
G02*
X80722456Y-69447000I-267544J0D01*
G01*
X79732544Y-69447000D01*
G75*
G02*
X79465000Y-69179456I0J267544D01*
G01*
G37*
G36*
G01*
X76490000Y-69179456D02*
X76490000Y-66964544D01*
G75*
G02*
X76757544Y-66697000I267544J0D01*
G01*
X77747456Y-66697000D01*
G75*
G02*
X78015000Y-66964544I0J-267544D01*
G01*
X78015000Y-69179456D01*
G75*
G02*
X77747456Y-69447000I-267544J0D01*
G01*
X76757544Y-69447000D01*
G75*
G02*
X76490000Y-69179456I0J267544D01*
G01*
G37*
%TD*%
%TO.C,R19*%
G36*
G01*
X79465000Y-36667456D02*
X79465000Y-34452544D01*
G75*
G02*
X79732544Y-34185000I267544J0D01*
G01*
X80722456Y-34185000D01*
G75*
G02*
X80990000Y-34452544I0J-267544D01*
G01*
X80990000Y-36667456D01*
G75*
G02*
X80722456Y-36935000I-267544J0D01*
G01*
X79732544Y-36935000D01*
G75*
G02*
X79465000Y-36667456I0J267544D01*
G01*
G37*
G36*
G01*
X76490000Y-36667456D02*
X76490000Y-34452544D01*
G75*
G02*
X76757544Y-34185000I267544J0D01*
G01*
X77747456Y-34185000D01*
G75*
G02*
X78015000Y-34452544I0J-267544D01*
G01*
X78015000Y-36667456D01*
G75*
G02*
X77747456Y-36935000I-267544J0D01*
G01*
X76757544Y-36935000D01*
G75*
G02*
X76490000Y-36667456I0J267544D01*
G01*
G37*
%TD*%
%TO.C,R18*%
G36*
G01*
X79465000Y-30317456D02*
X79465000Y-28102544D01*
G75*
G02*
X79732544Y-27835000I267544J0D01*
G01*
X80722456Y-27835000D01*
G75*
G02*
X80990000Y-28102544I0J-267544D01*
G01*
X80990000Y-30317456D01*
G75*
G02*
X80722456Y-30585000I-267544J0D01*
G01*
X79732544Y-30585000D01*
G75*
G02*
X79465000Y-30317456I0J267544D01*
G01*
G37*
G36*
G01*
X76490000Y-30317456D02*
X76490000Y-28102544D01*
G75*
G02*
X76757544Y-27835000I267544J0D01*
G01*
X77747456Y-27835000D01*
G75*
G02*
X78015000Y-28102544I0J-267544D01*
G01*
X78015000Y-30317456D01*
G75*
G02*
X77747456Y-30585000I-267544J0D01*
G01*
X76757544Y-30585000D01*
G75*
G02*
X76490000Y-30317456I0J267544D01*
G01*
G37*
%TD*%
%TO.C,R17*%
G36*
G01*
X79465000Y-23967456D02*
X79465000Y-21752544D01*
G75*
G02*
X79732544Y-21485000I267544J0D01*
G01*
X80722456Y-21485000D01*
G75*
G02*
X80990000Y-21752544I0J-267544D01*
G01*
X80990000Y-23967456D01*
G75*
G02*
X80722456Y-24235000I-267544J0D01*
G01*
X79732544Y-24235000D01*
G75*
G02*
X79465000Y-23967456I0J267544D01*
G01*
G37*
G36*
G01*
X76490000Y-23967456D02*
X76490000Y-21752544D01*
G75*
G02*
X76757544Y-21485000I267544J0D01*
G01*
X77747456Y-21485000D01*
G75*
G02*
X78015000Y-21752544I0J-267544D01*
G01*
X78015000Y-23967456D01*
G75*
G02*
X77747456Y-24235000I-267544J0D01*
G01*
X76757544Y-24235000D01*
G75*
G02*
X76490000Y-23967456I0J267544D01*
G01*
G37*
%TD*%
%TO.C,R16*%
G36*
G01*
X79465000Y-17617456D02*
X79465000Y-15402544D01*
G75*
G02*
X79732544Y-15135000I267544J0D01*
G01*
X80722456Y-15135000D01*
G75*
G02*
X80990000Y-15402544I0J-267544D01*
G01*
X80990000Y-17617456D01*
G75*
G02*
X80722456Y-17885000I-267544J0D01*
G01*
X79732544Y-17885000D01*
G75*
G02*
X79465000Y-17617456I0J267544D01*
G01*
G37*
G36*
G01*
X76490000Y-17617456D02*
X76490000Y-15402544D01*
G75*
G02*
X76757544Y-15135000I267544J0D01*
G01*
X77747456Y-15135000D01*
G75*
G02*
X78015000Y-15402544I0J-267544D01*
G01*
X78015000Y-17617456D01*
G75*
G02*
X77747456Y-17885000I-267544J0D01*
G01*
X76757544Y-17885000D01*
G75*
G02*
X76490000Y-17617456I0J267544D01*
G01*
G37*
%TD*%
%TO.C,R15*%
G36*
G01*
X48422544Y-143473000D02*
X50637456Y-143473000D01*
G75*
G02*
X50905000Y-143740544I0J-267544D01*
G01*
X50905000Y-144730456D01*
G75*
G02*
X50637456Y-144998000I-267544J0D01*
G01*
X48422544Y-144998000D01*
G75*
G02*
X48155000Y-144730456I0J267544D01*
G01*
X48155000Y-143740544D01*
G75*
G02*
X48422544Y-143473000I267544J0D01*
G01*
G37*
G36*
G01*
X48422544Y-140498000D02*
X50637456Y-140498000D01*
G75*
G02*
X50905000Y-140765544I0J-267544D01*
G01*
X50905000Y-141755456D01*
G75*
G02*
X50637456Y-142023000I-267544J0D01*
G01*
X48422544Y-142023000D01*
G75*
G02*
X48155000Y-141755456I0J267544D01*
G01*
X48155000Y-140765544D01*
G75*
G02*
X48422544Y-140498000I267544J0D01*
G01*
G37*
%TD*%
%TO.C,R14*%
G36*
G01*
X48676544Y-97499000D02*
X50891456Y-97499000D01*
G75*
G02*
X51159000Y-97766544I0J-267544D01*
G01*
X51159000Y-98756456D01*
G75*
G02*
X50891456Y-99024000I-267544J0D01*
G01*
X48676544Y-99024000D01*
G75*
G02*
X48409000Y-98756456I0J267544D01*
G01*
X48409000Y-97766544D01*
G75*
G02*
X48676544Y-97499000I267544J0D01*
G01*
G37*
G36*
G01*
X48676544Y-94524000D02*
X50891456Y-94524000D01*
G75*
G02*
X51159000Y-94791544I0J-267544D01*
G01*
X51159000Y-95781456D01*
G75*
G02*
X50891456Y-96049000I-267544J0D01*
G01*
X48676544Y-96049000D01*
G75*
G02*
X48409000Y-95781456I0J267544D01*
G01*
X48409000Y-94791544D01*
G75*
G02*
X48676544Y-94524000I267544J0D01*
G01*
G37*
%TD*%
%TO.C,R13*%
G36*
G01*
X49692544Y-47715000D02*
X51907456Y-47715000D01*
G75*
G02*
X52175000Y-47982544I0J-267544D01*
G01*
X52175000Y-48972456D01*
G75*
G02*
X51907456Y-49240000I-267544J0D01*
G01*
X49692544Y-49240000D01*
G75*
G02*
X49425000Y-48972456I0J267544D01*
G01*
X49425000Y-47982544D01*
G75*
G02*
X49692544Y-47715000I267544J0D01*
G01*
G37*
G36*
G01*
X49692544Y-44740000D02*
X51907456Y-44740000D01*
G75*
G02*
X52175000Y-45007544I0J-267544D01*
G01*
X52175000Y-45997456D01*
G75*
G02*
X51907456Y-46265000I-267544J0D01*
G01*
X49692544Y-46265000D01*
G75*
G02*
X49425000Y-45997456I0J267544D01*
G01*
X49425000Y-45007544D01*
G75*
G02*
X49692544Y-44740000I267544J0D01*
G01*
G37*
%TD*%
%TO.C,R12*%
G36*
G01*
X69399045Y-158967000D02*
X71613957Y-158967000D01*
G75*
G02*
X71881501Y-159234544I0J-267544D01*
G01*
X71881501Y-160224456D01*
G75*
G02*
X71613957Y-160492000I-267544J0D01*
G01*
X69399045Y-160492000D01*
G75*
G02*
X69131501Y-160224456I0J267544D01*
G01*
X69131501Y-159234544D01*
G75*
G02*
X69399045Y-158967000I267544J0D01*
G01*
G37*
G36*
G01*
X69399045Y-155992000D02*
X71613957Y-155992000D01*
G75*
G02*
X71881501Y-156259544I0J-267544D01*
G01*
X71881501Y-157249456D01*
G75*
G02*
X71613957Y-157517000I-267544J0D01*
G01*
X69399045Y-157517000D01*
G75*
G02*
X69131501Y-157249456I0J267544D01*
G01*
X69131501Y-156259544D01*
G75*
G02*
X69399045Y-155992000I267544J0D01*
G01*
G37*
%TD*%
%TO.C,R11*%
G36*
G01*
X62795045Y-107405000D02*
X65009957Y-107405000D01*
G75*
G02*
X65277501Y-107672544I0J-267544D01*
G01*
X65277501Y-108662456D01*
G75*
G02*
X65009957Y-108930000I-267544J0D01*
G01*
X62795045Y-108930000D01*
G75*
G02*
X62527501Y-108662456I0J267544D01*
G01*
X62527501Y-107672544D01*
G75*
G02*
X62795045Y-107405000I267544J0D01*
G01*
G37*
G36*
G01*
X62795045Y-104430000D02*
X65009957Y-104430000D01*
G75*
G02*
X65277501Y-104697544I0J-267544D01*
G01*
X65277501Y-105687456D01*
G75*
G02*
X65009957Y-105955000I-267544J0D01*
G01*
X62795045Y-105955000D01*
G75*
G02*
X62527501Y-105687456I0J267544D01*
G01*
X62527501Y-104697544D01*
G75*
G02*
X62795045Y-104430000I267544J0D01*
G01*
G37*
%TD*%
D16*
%TO.C,J5*%
X67564000Y-74930000D03*
D17*
X67564000Y-72390000D03*
%TD*%
D16*
%TO.C,J4*%
X73152000Y-53594000D03*
D17*
X73152000Y-51054000D03*
%TD*%
D16*
%TO.C,J3*%
X66040000Y-21590000D03*
D17*
X66040000Y-19050000D03*
%TD*%
D18*
%TO.C,D6*%
X30988000Y-141478000D03*
D15*
X38608000Y-141478000D03*
%TD*%
D18*
%TO.C,D5*%
X30988000Y-132842000D03*
D15*
X38608000Y-132842000D03*
%TD*%
D18*
%TO.C,D4*%
X32004000Y-97028000D03*
D15*
X39624000Y-97028000D03*
%TD*%
D18*
%TO.C,D3*%
X32004000Y-90424000D03*
D15*
X39624000Y-90424000D03*
%TD*%
D14*
%TO.C,C8*%
X101314000Y-41910000D03*
D15*
X99314000Y-41910000D03*
%TD*%
D14*
%TO.C,C7*%
X88392000Y-35020000D03*
D15*
X88392000Y-33020000D03*
%TD*%
D14*
%TO.C,C6*%
X69564000Y-131826000D03*
D15*
X67564000Y-131826000D03*
%TD*%
D14*
%TO.C,C5*%
X66770000Y-83566000D03*
D15*
X64770000Y-83566000D03*
%TD*%
D11*
%TO.C,C2*%
X37766000Y-81026000D03*
D10*
X32766000Y-81026000D03*
%TD*%
D11*
%TO.C,C1*%
X35480000Y-22860000D03*
D10*
X30480000Y-22860000D03*
%TD*%
D12*
%TO.C,X3*%
X38608000Y-151972000D03*
D13*
X38608000Y-156972000D03*
%TD*%
D12*
%TO.C,X2*%
X32512000Y-104474000D03*
D13*
X32512000Y-109474000D03*
%TD*%
D12*
%TO.C,X1*%
X32258000Y-51642000D03*
D13*
X32258000Y-56642000D03*
%TD*%
%TO.C,R10*%
G36*
G01*
X62795045Y-57875000D02*
X65009957Y-57875000D01*
G75*
G02*
X65277501Y-58142544I0J-267544D01*
G01*
X65277501Y-59132456D01*
G75*
G02*
X65009957Y-59400000I-267544J0D01*
G01*
X62795045Y-59400000D01*
G75*
G02*
X62527501Y-59132456I0J267544D01*
G01*
X62527501Y-58142544D01*
G75*
G02*
X62795045Y-57875000I267544J0D01*
G01*
G37*
G36*
G01*
X62795045Y-54900000D02*
X65009957Y-54900000D01*
G75*
G02*
X65277501Y-55167544I0J-267544D01*
G01*
X65277501Y-56157456D01*
G75*
G02*
X65009957Y-56425000I-267544J0D01*
G01*
X62795045Y-56425000D01*
G75*
G02*
X62527501Y-56157456I0J267544D01*
G01*
X62527501Y-55167544D01*
G75*
G02*
X62795045Y-54900000I267544J0D01*
G01*
G37*
%TD*%
%TO.C,R9*%
G36*
G01*
X55753377Y-158967000D02*
X57968289Y-158967000D01*
G75*
G02*
X58235833Y-159234544I0J-267544D01*
G01*
X58235833Y-160224456D01*
G75*
G02*
X57968289Y-160492000I-267544J0D01*
G01*
X55753377Y-160492000D01*
G75*
G02*
X55485833Y-160224456I0J267544D01*
G01*
X55485833Y-159234544D01*
G75*
G02*
X55753377Y-158967000I267544J0D01*
G01*
G37*
G36*
G01*
X55753377Y-155992000D02*
X57968289Y-155992000D01*
G75*
G02*
X58235833Y-156259544I0J-267544D01*
G01*
X58235833Y-157249456D01*
G75*
G02*
X57968289Y-157517000I-267544J0D01*
G01*
X55753377Y-157517000D01*
G75*
G02*
X55485833Y-157249456I0J267544D01*
G01*
X55485833Y-156259544D01*
G75*
G02*
X55753377Y-155992000I267544J0D01*
G01*
G37*
%TD*%
%TO.C,R8*%
G36*
G01*
X49149377Y-107405000D02*
X51364289Y-107405000D01*
G75*
G02*
X51631833Y-107672544I0J-267544D01*
G01*
X51631833Y-108662456D01*
G75*
G02*
X51364289Y-108930000I-267544J0D01*
G01*
X49149377Y-108930000D01*
G75*
G02*
X48881833Y-108662456I0J267544D01*
G01*
X48881833Y-107672544D01*
G75*
G02*
X49149377Y-107405000I267544J0D01*
G01*
G37*
G36*
G01*
X49149377Y-104430000D02*
X51364289Y-104430000D01*
G75*
G02*
X51631833Y-104697544I0J-267544D01*
G01*
X51631833Y-105687456D01*
G75*
G02*
X51364289Y-105955000I-267544J0D01*
G01*
X49149377Y-105955000D01*
G75*
G02*
X48881833Y-105687456I0J267544D01*
G01*
X48881833Y-104697544D01*
G75*
G02*
X49149377Y-104430000I267544J0D01*
G01*
G37*
%TD*%
D15*
%TO.C,C4*%
X64770000Y-33020000D03*
D14*
X66770000Y-33020000D03*
%TD*%
D18*
%TO.C,D1*%
X32258000Y-38100000D03*
D15*
X39878000Y-38100000D03*
%TD*%
%TO.C,D2*%
X40132000Y-45212000D03*
D18*
X32512000Y-45212000D03*
%TD*%
%TO.C,R1*%
G36*
G01*
X44541456Y-59400000D02*
X42326544Y-59400000D01*
G75*
G02*
X42059000Y-59132456I0J267544D01*
G01*
X42059000Y-58142544D01*
G75*
G02*
X42326544Y-57875000I267544J0D01*
G01*
X44541456Y-57875000D01*
G75*
G02*
X44809000Y-58142544I0J-267544D01*
G01*
X44809000Y-59132456D01*
G75*
G02*
X44541456Y-59400000I-267544J0D01*
G01*
G37*
G36*
G01*
X44541456Y-56425000D02*
X42326544Y-56425000D01*
G75*
G02*
X42059000Y-56157456I0J267544D01*
G01*
X42059000Y-55167544D01*
G75*
G02*
X42326544Y-54900000I267544J0D01*
G01*
X44541456Y-54900000D01*
G75*
G02*
X44809000Y-55167544I0J-267544D01*
G01*
X44809000Y-56157456D01*
G75*
G02*
X44541456Y-56425000I-267544J0D01*
G01*
G37*
%TD*%
%TO.C,R2*%
G36*
G01*
X44541456Y-108930000D02*
X42326544Y-108930000D01*
G75*
G02*
X42059000Y-108662456I0J267544D01*
G01*
X42059000Y-107672544D01*
G75*
G02*
X42326544Y-107405000I267544J0D01*
G01*
X44541456Y-107405000D01*
G75*
G02*
X44809000Y-107672544I0J-267544D01*
G01*
X44809000Y-108662456D01*
G75*
G02*
X44541456Y-108930000I-267544J0D01*
G01*
G37*
G36*
G01*
X44541456Y-105955000D02*
X42326544Y-105955000D01*
G75*
G02*
X42059000Y-105687456I0J267544D01*
G01*
X42059000Y-104697544D01*
G75*
G02*
X42326544Y-104430000I267544J0D01*
G01*
X44541456Y-104430000D01*
G75*
G02*
X44809000Y-104697544I0J-267544D01*
G01*
X44809000Y-105687456D01*
G75*
G02*
X44541456Y-105955000I-267544J0D01*
G01*
G37*
%TD*%
%TO.C,R3*%
G36*
G01*
X51145456Y-160492000D02*
X48930544Y-160492000D01*
G75*
G02*
X48663000Y-160224456I0J267544D01*
G01*
X48663000Y-159234544D01*
G75*
G02*
X48930544Y-158967000I267544J0D01*
G01*
X51145456Y-158967000D01*
G75*
G02*
X51413000Y-159234544I0J-267544D01*
G01*
X51413000Y-160224456D01*
G75*
G02*
X51145456Y-160492000I-267544J0D01*
G01*
G37*
G36*
G01*
X51145456Y-157517000D02*
X48930544Y-157517000D01*
G75*
G02*
X48663000Y-157249456I0J267544D01*
G01*
X48663000Y-156259544D01*
G75*
G02*
X48930544Y-155992000I267544J0D01*
G01*
X51145456Y-155992000D01*
G75*
G02*
X51413000Y-156259544I0J-267544D01*
G01*
X51413000Y-157249456D01*
G75*
G02*
X51145456Y-157517000I-267544J0D01*
G01*
G37*
%TD*%
%TO.C,R4*%
G36*
G01*
X56550544Y-57875000D02*
X58765456Y-57875000D01*
G75*
G02*
X59033000Y-58142544I0J-267544D01*
G01*
X59033000Y-59132456D01*
G75*
G02*
X58765456Y-59400000I-267544J0D01*
G01*
X56550544Y-59400000D01*
G75*
G02*
X56283000Y-59132456I0J267544D01*
G01*
X56283000Y-58142544D01*
G75*
G02*
X56550544Y-57875000I267544J0D01*
G01*
G37*
G36*
G01*
X56550544Y-54900000D02*
X58765456Y-54900000D01*
G75*
G02*
X59033000Y-55167544I0J-267544D01*
G01*
X59033000Y-56157456D01*
G75*
G02*
X58765456Y-56425000I-267544J0D01*
G01*
X56550544Y-56425000D01*
G75*
G02*
X56283000Y-56157456I0J267544D01*
G01*
X56283000Y-55167544D01*
G75*
G02*
X56550544Y-54900000I267544J0D01*
G01*
G37*
%TD*%
%TO.C,R5*%
G36*
G01*
X55972210Y-107405000D02*
X58187122Y-107405000D01*
G75*
G02*
X58454666Y-107672544I0J-267544D01*
G01*
X58454666Y-108662456D01*
G75*
G02*
X58187122Y-108930000I-267544J0D01*
G01*
X55972210Y-108930000D01*
G75*
G02*
X55704666Y-108662456I0J267544D01*
G01*
X55704666Y-107672544D01*
G75*
G02*
X55972210Y-107405000I267544J0D01*
G01*
G37*
G36*
G01*
X55972210Y-104430000D02*
X58187122Y-104430000D01*
G75*
G02*
X58454666Y-104697544I0J-267544D01*
G01*
X58454666Y-105687456D01*
G75*
G02*
X58187122Y-105955000I-267544J0D01*
G01*
X55972210Y-105955000D01*
G75*
G02*
X55704666Y-105687456I0J267544D01*
G01*
X55704666Y-104697544D01*
G75*
G02*
X55972210Y-104430000I267544J0D01*
G01*
G37*
%TD*%
%TO.C,R6*%
G36*
G01*
X62576210Y-155992000D02*
X64791122Y-155992000D01*
G75*
G02*
X65058666Y-156259544I0J-267544D01*
G01*
X65058666Y-157249456D01*
G75*
G02*
X64791122Y-157517000I-267544J0D01*
G01*
X62576210Y-157517000D01*
G75*
G02*
X62308666Y-157249456I0J267544D01*
G01*
X62308666Y-156259544D01*
G75*
G02*
X62576210Y-155992000I267544J0D01*
G01*
G37*
G36*
G01*
X62576210Y-158967000D02*
X64791122Y-158967000D01*
G75*
G02*
X65058666Y-159234544I0J-267544D01*
G01*
X65058666Y-160224456D01*
G75*
G02*
X64791122Y-160492000I-267544J0D01*
G01*
X62576210Y-160492000D01*
G75*
G02*
X62308666Y-160224456I0J267544D01*
G01*
X62308666Y-159234544D01*
G75*
G02*
X62576210Y-158967000I267544J0D01*
G01*
G37*
%TD*%
%TO.C,R7*%
G36*
G01*
X49438544Y-57875000D02*
X51653456Y-57875000D01*
G75*
G02*
X51921000Y-58142544I0J-267544D01*
G01*
X51921000Y-59132456D01*
G75*
G02*
X51653456Y-59400000I-267544J0D01*
G01*
X49438544Y-59400000D01*
G75*
G02*
X49171000Y-59132456I0J267544D01*
G01*
X49171000Y-58142544D01*
G75*
G02*
X49438544Y-57875000I267544J0D01*
G01*
G37*
G36*
G01*
X49438544Y-54900000D02*
X51653456Y-54900000D01*
G75*
G02*
X51921000Y-55167544I0J-267544D01*
G01*
X51921000Y-56157456D01*
G75*
G02*
X51653456Y-56425000I-267544J0D01*
G01*
X49438544Y-56425000D01*
G75*
G02*
X49171000Y-56157456I0J267544D01*
G01*
X49171000Y-55167544D01*
G75*
G02*
X49438544Y-54900000I267544J0D01*
G01*
G37*
%TD*%
M02*
